<?xml version="1.0" standalone="no"?>
<!DOCTYPE svg PUBLIC "-//W3C//DTD SVG 1.1//EN" "http://www.w3.org/Graphics/SVG/1.1/DTD/svg11.dtd" >
<svg xmlns="http://www.w3.org/2000/svg" xmlns:xlink="http://www.w3.org/1999/xlink" version="1.1">
<metadata>
Created by FontForge 20170910 at Wed May 31 04:50:09 2017
 By Jimmy Wärting
(c) 2015-2017 Apple Inc. All rights reserved.
</metadata>
<defs>
<font id="SFProDisplay-RegularItalic" horiz-adv-x="0" >
  <font-face 
    font-family="SF Pro Display"
    font-weight="400"
    font-style="italic"
    font-stretch="normal"
    units-per-em="2048"
    panose-1="0 0 5 0 0 0 0 0 0 0"
    ascent="1638"
    descent="-410"
    x-height="1040"
    cap-height="1443"
    bbox="-607 -500 2807 2125"
    underline-thickness="120"
    underline-position="-370"
    slope="-12"
    stemh="148"
    stemv="170"
    unicode-range="U+0020-FB02"
  />
<missing-glyph horiz-adv-x="2048" 
d="M-65 -494l60 284h1848l-61 -284h-1847zM27 -62l60 284h1847l-60 -284h-1847zM119 370l60 284h1847l-60 -284h-1847zM210 802l61 284h1847l-60 -284h-1848zM302 1234l61 284h1847l-60 -284h-1848zM394 1666l60 284h1848l-61 -284h-1847z" />
    <glyph glyph-name=".notdef" horiz-adv-x="2048" 
d="M-65 -494l60 284h1848l-61 -284h-1847zM27 -62l60 284h1847l-60 -284h-1847zM119 370l60 284h1847l-60 -284h-1847zM210 802l61 284h1847l-60 -284h-1848zM302 1234l61 284h1847l-60 -284h-1848zM394 1666l60 284h1848l-61 -284h-1847z" />
    <glyph glyph-name=".null" 
 />
    <glyph glyph-name="nonmarkingreturn" 
 />
    <glyph glyph-name="space" unicode=" " horiz-adv-x="492" 
 />
    <glyph glyph-name="A" unicode="A" horiz-adv-x="1291" 
d="M850 1224l-368 -658h471l-99 658h-4zM1035 0l-59 413h-579l-234 -413h-198l836 1443h181l224 -1443h-171z" />
    <glyph glyph-name="Agrave" unicode="&#xc0;" horiz-adv-x="1291" 
d="M850 1224l-368 -658h471l-99 658h-4zM1035 0l-59 413h-579l-234 -413h-198l836 1443h181l224 -1443h-171zM826 1560l-199 289h182l159 -289h-142z" />
    <glyph glyph-name="Aacute" unicode="&#xc1;" horiz-adv-x="1291" 
d="M850 1224l-368 -658h471l-99 658h-4zM1035 0l-59 413h-579l-234 -413h-198l836 1443h181l224 -1443h-171zM994 1560h-162l281 289h202z" />
    <glyph glyph-name="Adieresis" unicode="&#xc4;" horiz-adv-x="1291" 
d="M850 1224l-368 -658h471l-99 658h-4zM1035 0l-59 413h-579l-234 -413h-198l836 1443h181l224 -1443h-171zM757 1618c-60 0 -110 49 -110 110s50 110 110 110s110 -49 110 -110s-50 -110 -110 -110zM1129 1618c-60 0 -110 49 -110 110s50 110 110 110s110 -49 110 -110
s-50 -110 -110 -110z" />
    <glyph glyph-name="Adieresismacron" unicode="&#x1de;" horiz-adv-x="1291" 
d="M850 1224l-368 -658h471l-99 658h-4zM1035 0l-59 413h-579l-234 -413h-198l836 1443h181l224 -1443h-171zM757 1766c57 0 104 -47 104 -106s-47 -106 -104 -106c-58 0 -105 47 -105 106s47 106 105 106zM1328 2025l-25 -116h-634l25 116h634zM1111 1766
c58 0 105 -47 105 -106s-47 -106 -105 -106c-57 0 -104 47 -104 106s47 106 104 106z" />
    <glyph glyph-name="Aring" unicode="&#xc5;" horiz-adv-x="1291" 
d="M850 1224l-368 -658h471l-99 658h-4zM1035 0l-59 413h-579l-234 -413h-198l836 1443h181l224 -1443h-171zM942 1555c-102 0 -187 68 -187 182c0 118 85 200 195 200c104 0 189 -68 188 -182c-1 -118 -84 -200 -196 -200zM942 1641c64 0 107 42 106 111
c-1 61 -40 99 -98 99c-62 0 -105 -42 -105 -111c0 -61 41 -99 97 -99z" />
    <glyph glyph-name="Aringacute" unicode="&#x1fa;" horiz-adv-x="1291" 
d="M850 1224l-368 -658h471l-99 658h-4zM1035 0l-59 413h-579l-234 -413h-198l836 1443h181l224 -1443h-171zM933 1507c-99 0 -182 64 -182 172c0 112 83 190 190 190c101 0 184 -64 183 -172c-1 -112 -82 -190 -191 -190zM933 1593c61 0 102 38 101 101
c-1 55 -38 89 -93 89c-59 0 -100 -38 -100 -101c0 -55 39 -89 92 -89zM1074 2101h164l-167 -171h-146z" />
    <glyph glyph-name="Atilde" unicode="&#xc3;" horiz-adv-x="1291" 
d="M850 1224l-368 -658h471l-99 658h-4zM1035 0l-59 413h-579l-234 -413h-198l836 1443h181l224 -1443h-171zM1056 1546c-132 0 -158 152 -237 152c-46 0 -89 -49 -105 -142h-118c29 160 118 255 232 255c141 0 162 -152 237 -152c42 0 83 47 103 143h118
c-32 -156 -121 -256 -230 -256z" />
    <glyph glyph-name="Abrevegrave" unicode="&#x1eb0;" horiz-adv-x="1291" 
d="M850 1224l-368 -658h471l-99 658h-4zM1035 0l-59 413h-579l-234 -413h-198l836 1443h181l224 -1443h-171zM1045 1830h-134l-146 216h158zM650 1821h117c-1 -8 -1 -15 -1 -22c0 -89 62 -146 159 -146c105 0 197 66 230 168h137c-47 -163 -198 -278 -380 -278
c-165 0 -265 95 -265 234c0 14 1 29 3 44z" />
    <glyph glyph-name="Adotmacron" unicode="&#x1e0;" horiz-adv-x="1291" 
d="M850 1224l-368 -658h471l-99 658h-4zM1035 0l-59 413h-579l-234 -413h-198l836 1443h181l224 -1443h-171zM940 1577c-66 0 -119 53 -119 119s53 119 119 119s119 -53 119 -119s-53 -119 -119 -119zM1328 2025l-26 -116h-634l26 116h634z" />
    <glyph glyph-name="Aringbelow" unicode="&#x1e00;" horiz-adv-x="1291" 
d="M850 1224l-368 -658h471l-99 658h-4zM1035 0l-59 413h-579l-234 -413h-198l836 1443h181l224 -1443h-171zM516 -500c-102 0 -187 68 -187 182c0 118 85 200 195 200c104 0 189 -68 188 -182c-1 -118 -84 -200 -196 -200zM516 -414c64 0 107 42 106 111
c-1 61 -40 99 -98 99c-62 0 -105 -42 -105 -111c0 -61 41 -99 97 -99z" />
    <glyph glyph-name="Acircumflex" unicode="&#xc2;" horiz-adv-x="1291" 
d="M850 1224l-368 -658h471l-99 658h-4zM1035 0l-59 413h-579l-234 -413h-198l836 1443h181l224 -1443h-171zM1030 1858l220 -298h-154l-140 192h-6l-222 -192h-178l346 298h134z" />
    <glyph glyph-name="Acircumflexdotbelow" unicode="&#x1eac;" horiz-adv-x="1291" 
d="M850 1224l-368 -658h471l-99 658h-4zM1035 0l-59 413h-579l-234 -413h-198l836 1443h181l224 -1443h-171zM1030 1858l220 -298h-154l-140 192h-6l-222 -192h-178l346 298h134zM522 -433c-68 0 -124 56 -124 124s56 124 124 124s124 -56 124 -124s-56 -124 -124 -124z" />
    <glyph glyph-name="Acircumflexacute" unicode="&#x1ea4;" horiz-adv-x="1291" 
d="M850 1224l-368 -658h471l-99 658h-4zM1035 0l-59 413h-579l-234 -413h-198l836 1443h181l224 -1443h-171zM881 1798h152l227 -258h-162l-145 168h-6l-217 -168h-186zM1134 1830l214 216h178l-238 -216h-154z" />
    <glyph glyph-name="Acircumflextilde" unicode="&#x1eaa;" horiz-adv-x="1291" 
d="M850 1224l-368 -658h471l-99 658h-4zM1035 0l-59 413h-579l-234 -413h-198l836 1443h181l224 -1443h-171zM1107 1833c-132 0 -163 125 -245 125c-46 0 -84 -36 -93 -108h-116c23 144 109 218 223 218c130 0 160 -125 244 -125c44 0 78 34 92 109h116
c-22 -140 -112 -219 -221 -219zM879 1788h152l229 -248h-162l-147 160h-6l-215 -160h-186z" />
    <glyph glyph-name="Acircumflexgrave" unicode="&#x1ea6;" horiz-adv-x="1291" 
d="M850 1224l-368 -658h471l-99 658h-4zM1035 0l-59 413h-579l-234 -413h-198l836 1443h181l224 -1443h-171zM881 1798h152l227 -258h-162l-145 168h-6l-217 -168h-186zM1320 1830h-134l-146 216h158z" />
    <glyph glyph-name="Acircumflexhookabove" unicode="&#x1ea8;" horiz-adv-x="1291" 
d="M850 1224l-368 -658h471l-99 658h-4zM1035 0l-59 413h-579l-234 -413h-198l836 1443h181l224 -1443h-171zM881 1798h152l227 -258h-162l-145 168h-6l-217 -168h-186zM1069 1953l23 88c16 7 54 12 82 12c112 0 182 -55 182 -139c0 -81 -60 -144 -163 -172l-62 70
c59 12 104 44 104 88c0 37 -35 62 -89 62c-27 0 -52 -3 -77 -9z" />
    <glyph glyph-name="Abreve" unicode="&#x102;" horiz-adv-x="1291" 
d="M850 1224l-368 -658h471l-99 658h-4zM1035 0l-59 413h-579l-234 -413h-198l836 1443h181l224 -1443h-171zM652 1848h126c-4 -14 -8 -33 -8 -52c0 -93 62 -146 159 -146c114 0 212 72 239 198h126c-41 -194 -180 -306 -384 -306c-150 0 -268 91 -268 232c0 28 4 53 10 74z
" />
    <glyph glyph-name="Abreveacute" unicode="&#x1eae;" horiz-adv-x="1291" 
d="M850 1224l-368 -658h471l-99 658h-4zM1035 0l-59 413h-579l-234 -413h-198l836 1443h181l224 -1443h-171zM868 1830l214 216h178l-238 -216h-154zM912 1543c-165 0 -265 95 -265 234c0 14 1 29 3 44h117c-1 -8 -1 -15 -1 -22c0 -89 62 -146 159 -146
c105 0 197 66 230 168h137c-47 -163 -198 -278 -380 -278z" />
    <glyph glyph-name="Abrevetilde" unicode="&#x1eb4;" horiz-adv-x="1291" 
d="M850 1224l-368 -658h471l-99 658h-4zM1035 0l-59 413h-579l-234 -413h-198l836 1443h181l224 -1443h-171zM1115 1833c-132 0 -163 125 -245 125c-46 0 -84 -36 -93 -108h-116c23 144 109 218 223 218c130 0 160 -125 244 -125c44 0 78 34 92 109h116
c-22 -140 -112 -219 -221 -219zM912 1543c-165 0 -265 95 -265 234c0 14 1 29 3 44h117c-1 -8 -1 -15 -1 -22c0 -89 62 -146 159 -146c105 0 197 66 230 168h137c-47 -163 -198 -278 -380 -278z" />
    <glyph glyph-name="Abrevehookabove" unicode="&#x1eb2;" horiz-adv-x="1291" 
d="M850 1224l-368 -658h471l-99 658h-4zM1035 0l-59 413h-579l-234 -413h-198l836 1443h181l224 -1443h-171zM801 2015l25 98c19 7 62 12 90 12c120 0 198 -61 198 -154c0 -87 -65 -159 -174 -189l-72 77c69 12 118 49 118 98c0 42 -35 67 -98 67c-32 0 -59 -3 -87 -9z
M912 1543c-165 0 -265 95 -265 234c0 14 1 29 3 44h117c-1 -8 -1 -15 -1 -22c0 -89 62 -146 159 -146c105 0 197 66 230 168h137c-47 -163 -198 -278 -380 -278z" />
    <glyph glyph-name="Abrevedotbelow" unicode="&#x1eb6;" horiz-adv-x="1291" 
d="M850 1224l-368 -658h471l-99 658h-4zM1035 0l-59 413h-579l-234 -413h-198l836 1443h181l224 -1443h-171zM652 1848h126c-4 -14 -8 -33 -8 -52c0 -93 62 -146 159 -146c114 0 212 72 239 198h126c-41 -194 -180 -306 -384 -306c-150 0 -268 91 -268 232c0 28 4 53 10 74z
M522 -433c-68 0 -124 56 -124 124s56 124 124 124s124 -56 124 -124s-56 -124 -124 -124z" />
    <glyph glyph-name="Ainvertedbreve" unicode="&#x202;" horiz-adv-x="1291" 
d="M850 1224l-368 -658h471l-99 658h-4zM1035 0l-59 413h-579l-234 -413h-198l836 1443h181l224 -1443h-171zM1229 1542h-126c4 10 8 29 8 48c0 93 -62 150 -159 150c-114 0 -212 -76 -239 -198h-126c41 190 180 306 384 306c150 0 268 -95 268 -236c0 -28 -4 -53 -10 -70z
" />
    <glyph glyph-name="Acaron" unicode="&#x1cd;" horiz-adv-x="1291" 
d="M850 1224l-368 -658h471l-99 658h-4zM1035 0l-59 413h-579l-234 -413h-198l836 1443h181l224 -1443h-171zM850 1560l-220 298h154l141 -192h6l221 192h178l-346 -298h-134z" />
    <glyph glyph-name="Adotaccent" unicode="&#x226;" horiz-adv-x="1291" 
d="M850 1224l-368 -658h471l-99 658h-4zM1035 0l-59 413h-579l-234 -413h-198l836 1443h181l224 -1443h-171zM945 1611c-68 0 -124 56 -124 124s56 124 124 124s124 -56 124 -124s-56 -124 -124 -124z" />
    <glyph glyph-name="Adotbelow" unicode="&#x1ea0;" horiz-adv-x="1291" 
d="M850 1224l-368 -658h471l-99 658h-4zM1035 0l-59 413h-579l-234 -413h-198l836 1443h181l224 -1443h-171zM522 -433c-68 0 -124 56 -124 124s56 124 124 124s124 -56 124 -124s-56 -124 -124 -124z" />
    <glyph glyph-name="Ahookabove" unicode="&#x1ea2;" horiz-adv-x="1291" 
d="M850 1224l-368 -658h471l-99 658h-4zM1035 0l-59 413h-579l-234 -413h-198l836 1443h181l224 -1443h-171zM770 1763l24 96c19 7 61 12 89 12c122 0 198 -59 198 -151c0 -95 -74 -166 -203 -193l-42 83c67 12 112 48 112 96c0 41 -35 66 -93 66c-31 0 -58 -3 -85 -9z" />
    <glyph glyph-name="Adblgrave" unicode="&#x200;" horiz-adv-x="1291" 
d="M850 1224l-368 -658h471l-99 658h-4zM1035 0l-59 413h-579l-234 -413h-198l836 1443h181l224 -1443h-171zM696 1560l-199 289h182l159 -289h-142zM1016 1560l-199 289h182l159 -289h-142z" />
    <glyph glyph-name="Amacron" unicode="&#x100;" horiz-adv-x="1291" 
d="M850 1224l-368 -658h471l-99 658h-4zM1035 0l-59 413h-579l-234 -413h-198l836 1443h181l224 -1443h-171zM1270 1750l-25 -116h-634l25 116h634z" />
    <glyph glyph-name="Aogonek" unicode="&#x104;" horiz-adv-x="1291" 
d="M1128 -288l-25 -118c-17 -12 -64 -21 -111 -21c-113 0 -188 59 -188 149c0 94 78 190 230 283l-61 408h-579l-231 -413h-198l833 1443h181l224 -1427l-22 -13c-148 -87 -221 -169 -221 -231c0 -46 35 -73 95 -73c28 0 53 4 73 13zM847 1224l-368 -658h471l-99 658h-4z
" />
    <glyph glyph-name="B" unicode="B" horiz-adv-x="1300" 
d="M680 0h-600l307 1443h511c232 0 396 -125 396 -318c0 -182 -133 -325 -313 -374l-1 -4c159 -25 247 -146 247 -289c0 -267 -220 -458 -547 -458zM537 1284l-98 -463h297c220 0 371 109 371 267c0 132 -98 196 -278 196h-292zM298 159h376c214 0 362 122 362 284
c0 148 -100 223 -296 223h-334z" />
    <glyph glyph-name="Blinebelow" unicode="&#x1e06;" horiz-adv-x="1300" 
d="M680 0h-600l307 1443h511c232 0 396 -125 396 -318c0 -182 -133 -325 -313 -374l-1 -4c159 -25 247 -146 247 -289c0 -267 -220 -458 -547 -458zM537 1284l-98 -463h297c220 0 371 109 371 267c0 132 -98 196 -278 196h-292zM298 159h376c214 0 362 122 362 284
c0 148 -100 223 -296 223h-334zM835 -251l-25 -116h-634l25 116h634z" />
    <glyph glyph-name="Bdotbelow" unicode="&#x1e04;" horiz-adv-x="1300" 
d="M680 0h-600l307 1443h511c232 0 396 -125 396 -318c0 -182 -133 -325 -313 -374l-1 -4c159 -25 247 -146 247 -289c0 -267 -220 -458 -547 -458zM537 1284l-98 -463h297c220 0 371 109 371 267c0 132 -98 196 -278 196h-292zM298 159h376c214 0 362 122 362 284
c0 148 -100 223 -296 223h-334zM501 -433c-68 0 -124 56 -124 124s56 124 124 124s124 -56 124 -124s-56 -124 -124 -124z" />
    <glyph glyph-name="Bdotaccent" unicode="&#x1e02;" horiz-adv-x="1300" 
d="M680 0h-600l307 1443h511c232 0 396 -125 396 -318c0 -182 -133 -325 -313 -374l-1 -4c159 -25 247 -146 247 -289c0 -267 -220 -458 -547 -458zM537 1284l-98 -463h297c220 0 371 109 371 267c0 132 -98 196 -278 196h-292zM298 159h376c214 0 362 122 362 284
c0 148 -100 223 -296 223h-334zM866 1611c-68 0 -124 56 -124 124s56 124 124 124s124 -56 124 -124s-56 -124 -124 -124z" />
    <glyph glyph-name="C" unicode="C" horiz-adv-x="1402" 
d="M1292 978c0 6 -1 16 -2 24c-20 188 -172 299 -374 299c-328 0 -553 -291 -553 -691c0 -290 156 -468 410 -468c193 0 350 104 418 278h182c-79 -270 -315 -443 -602 -443c-363 0 -593 244 -593 627c0 490 310 862 740 862c312 0 536 -177 555 -461c1 -15 1 -19 1 -27
h-182z" />
    <glyph glyph-name="Cacute" unicode="&#x106;" horiz-adv-x="1402" 
d="M1292 978c0 6 -1 16 -2 24c-20 188 -172 299 -374 299c-328 0 -553 -291 -553 -691c0 -290 156 -468 410 -468c193 0 350 104 418 278h182c-79 -270 -315 -443 -602 -443c-363 0 -593 244 -593 627c0 490 310 862 740 862c312 0 536 -177 555 -461c1 -15 1 -19 1 -27
h-182zM1024 1562h-162l281 289h202z" />
    <glyph glyph-name="Ccaron" unicode="&#x10c;" horiz-adv-x="1402" 
d="M1292 978c0 6 -1 16 -2 24c-20 188 -172 299 -374 299c-328 0 -553 -291 -553 -691c0 -290 156 -468 410 -468c193 0 350 104 418 278h182c-79 -270 -315 -443 -602 -443c-363 0 -593 244 -593 627c0 490 310 862 740 862c312 0 536 -177 555 -461c1 -15 1 -19 1 -27
h-182zM880 1562l-220 298h154l141 -192h6l221 192h178l-346 -298h-134z" />
    <glyph glyph-name="Ccircumflex" unicode="&#x108;" horiz-adv-x="1402" 
d="M1292 978c0 6 -1 16 -2 24c-20 188 -172 299 -374 299c-328 0 -553 -291 -553 -691c0 -290 156 -468 410 -468c193 0 350 104 418 278h182c-79 -270 -315 -443 -602 -443c-363 0 -593 244 -593 627c0 490 310 862 740 862c312 0 536 -177 555 -461c1 -15 1 -19 1 -27
h-182zM1060 1860l220 -298h-154l-140 192h-6l-222 -192h-178l346 298h134z" />
    <glyph glyph-name="Cdotaccent" unicode="&#x10a;" horiz-adv-x="1402" 
d="M1292 978c0 6 -1 16 -2 24c-20 188 -172 299 -374 299c-328 0 -553 -291 -553 -691c0 -290 156 -468 410 -468c193 0 350 104 418 278h182c-79 -270 -315 -443 -602 -443c-363 0 -593 244 -593 627c0 490 310 862 740 862c312 0 536 -177 555 -461c1 -15 1 -19 1 -27
h-182zM975 1613c-68 0 -124 56 -124 124s56 124 124 124s124 -56 124 -124s-56 -124 -124 -124z" />
    <glyph glyph-name="Ccedilla" unicode="&#xc7;" horiz-adv-x="1402" 
d="M1474 978h-182c0 6 -1 16 -2 24c-20 188 -172 299 -374 299c-328 0 -553 -291 -553 -691c0 -290 156 -468 410 -468c193 0 350 104 418 278h182c-75 -258 -294 -427 -564 -442l-67 -118c119 4 189 -50 189 -145c0 -119 -98 -198 -246 -198c-59 0 -132 12 -177 29l24 114
c43 -16 91 -25 139 -25c79 0 125 25 125 69c0 45 -47 65 -155 65h-59l16 72l77 142c-307 40 -497 273 -497 621c0 490 310 862 740 862c312 0 536 -177 555 -461c1 -15 1 -19 1 -27z" />
    <glyph glyph-name="Ccedillaacute" unicode="&#x1e08;" horiz-adv-x="1402" 
d="M1345 1851l-321 -289h-162l281 289h202zM1474 978h-182c0 6 -1 16 -2 24c-20 188 -172 299 -374 299c-328 0 -553 -291 -553 -691c0 -290 156 -468 410 -468c193 0 350 104 418 278h182c-75 -258 -294 -427 -564 -442l-67 -118c119 4 189 -50 189 -145
c0 -119 -98 -198 -246 -198c-59 0 -132 12 -177 29l24 114c43 -16 91 -25 139 -25c79 0 125 25 125 69c0 45 -47 65 -155 65h-59l16 72l77 142c-307 40 -497 273 -497 621c0 490 310 862 740 862c312 0 536 -177 555 -461c1 -15 1 -19 1 -27z" />
    <glyph glyph-name="D" unicode="D" horiz-adv-x="1413" 
d="M387 1443h420c384 0 612 -219 612 -588c0 -506 -317 -855 -777 -855h-560zM537 1283l-239 -1123h330c352 0 605 281 605 673c0 297 -156 450 -457 450h-239z" />
    <glyph glyph-name="Ddotaccent" unicode="&#x1e0a;" horiz-adv-x="1413" 
d="M387 1443h420c384 0 612 -219 612 -588c0 -506 -317 -855 -777 -855h-560zM537 1283l-239 -1123h330c352 0 605 281 605 673c0 297 -156 450 -457 450h-239zM855 1611c-68 0 -124 56 -124 124s56 124 124 124s124 -56 124 -124s-56 -124 -124 -124z" />
    <glyph glyph-name="Dcircumflexbelow" unicode="&#x1e12;" horiz-adv-x="1413" 
d="M387 1443h420c384 0 612 -219 612 -588c0 -506 -317 -855 -777 -855h-560zM537 1283l-239 -1123h330c352 0 605 281 605 673c0 297 -156 450 -457 450h-239zM591 -165l220 -298h-154l-140 192h-6l-222 -192h-178l346 298h134z" />
    <glyph glyph-name="Dcommaaccent" unicode="&#x1e10;" horiz-adv-x="1413" 
d="M387 1443h420c384 0 612 -219 612 -588c0 -506 -317 -855 -777 -855h-560zM537 1283l-239 -1123h330c352 0 605 281 605 673c0 297 -156 450 -457 450h-239zM422 -476h-134l182 359h164z" />
    <glyph glyph-name="Dlinebelow" unicode="&#x1e0e;" horiz-adv-x="1413" 
d="M387 1443h420c384 0 612 -219 612 -588c0 -506 -317 -855 -777 -855h-560zM537 1283l-239 -1123h330c352 0 605 281 605 673c0 297 -156 450 -457 450h-239zM836 -251l-25 -116h-634l25 116h634z" />
    <glyph glyph-name="Dcaron" unicode="&#x10e;" horiz-adv-x="1413" 
d="M387 1443h420c384 0 612 -219 612 -588c0 -506 -317 -855 -777 -855h-560zM537 1283l-239 -1123h330c352 0 605 281 605 673c0 297 -156 450 -457 450h-239zM760 1560l-220 298h154l141 -192h6l221 192h178l-346 -298h-134z" />
    <glyph glyph-name="Ddotbelow" unicode="&#x1e0c;" horiz-adv-x="1413" 
d="M387 1443h420c384 0 612 -219 612 -588c0 -506 -317 -855 -777 -855h-560zM537 1283l-239 -1123h330c352 0 605 281 605 673c0 297 -156 450 -457 450h-239zM502 -433c-68 0 -124 56 -124 124s56 124 124 124s124 -56 124 -124s-56 -124 -124 -124z" />
    <glyph glyph-name="Dcroat" unicode="&#x110;" horiz-adv-x="1413" 
d="M298 160h330c352 0 605 281 605 673c0 297 -156 450 -457 450h-239l-99 -465h326l-34 -162h-326zM387 1443h420c384 0 612 -219 612 -588c0 -506 -317 -855 -777 -855h-560l139 656h-142l35 162h141z" />
    <glyph glyph-name="E" unicode="E" horiz-adv-x="1134" 
d="M1010 162l-34 -162h-896l307 1443h896l-35 -162h-711l-99 -463h674l-34 -160h-674l-105 -496h711z" />
    <glyph glyph-name="Egrave" unicode="&#xc8;" horiz-adv-x="1134" 
d="M1010 162l-34 -162h-896l307 1443h896l-35 -162h-711l-99 -463h674l-34 -160h-674l-105 -496h711zM774 1560l-199 289h182l159 -289h-142z" />
    <glyph glyph-name="Edblgrave" unicode="&#x204;" horiz-adv-x="1134" 
d="M1010 162l-34 -162h-896l307 1443h896l-35 -162h-711l-99 -463h674l-34 -160h-674l-105 -496h711zM644 1560l-199 289h182l159 -289h-142zM964 1560l-199 289h182l159 -289h-142z" />
    <glyph glyph-name="Eacute" unicode="&#xc9;" horiz-adv-x="1134" 
d="M1010 162l-34 -162h-896l307 1443h896l-35 -162h-711l-99 -463h674l-34 -160h-674l-105 -496h711zM942 1560h-162l281 289h202z" />
    <glyph glyph-name="Ecircumflex" unicode="&#xca;" horiz-adv-x="1134" 
d="M1010 162l-34 -162h-896l307 1443h896l-35 -162h-711l-99 -463h674l-34 -160h-674l-105 -496h711zM978 1858l220 -298h-154l-140 192h-6l-222 -192h-178l346 298h134z" />
    <glyph glyph-name="Ecircumflexhookabove" unicode="&#x1ec2;" horiz-adv-x="1134" 
d="M1010 162l-34 -162h-896l307 1443h896l-35 -162h-711l-99 -463h674l-34 -160h-674l-105 -496h711zM829 1798h152l227 -258h-162l-145 168h-6l-217 -168h-186zM1017 1953l23 88c16 7 54 12 82 12c112 0 182 -55 182 -139c0 -81 -60 -144 -163 -172l-62 70
c59 12 104 44 104 88c0 37 -35 62 -89 62c-27 0 -52 -3 -77 -9z" />
    <glyph glyph-name="Ecircumflexgrave" unicode="&#x1ec0;" horiz-adv-x="1134" 
d="M1010 162l-34 -162h-896l307 1443h896l-35 -162h-711l-99 -463h674l-34 -160h-674l-105 -496h711zM829 1798h152l227 -258h-162l-145 168h-6l-217 -168h-186zM1268 1830h-134l-146 216h158z" />
    <glyph glyph-name="Ecircumflextilde" unicode="&#x1ec4;" horiz-adv-x="1134" 
d="M1010 162l-34 -162h-896l307 1443h896l-35 -162h-711l-99 -463h674l-34 -160h-674l-105 -496h711zM1055 1833c-132 0 -163 125 -245 125c-46 0 -84 -36 -93 -108h-116c23 144 109 218 223 218c130 0 160 -125 244 -125c44 0 78 34 92 109h116
c-22 -140 -112 -219 -221 -219zM827 1788h152l229 -248h-162l-147 160h-6l-215 -160h-186z" />
    <glyph glyph-name="Ecircumflexdotbelow" unicode="&#x1ec6;" horiz-adv-x="1134" 
d="M1010 162l-34 -162h-896l307 1443h896l-35 -162h-711l-99 -463h674l-34 -160h-674l-105 -496h711zM978 1858l220 -298h-154l-140 192h-6l-222 -192h-178l346 298h134zM481 -433c-68 0 -124 56 -124 124s56 124 124 124s124 -56 124 -124s-56 -124 -124 -124z" />
    <glyph glyph-name="Ecircumflexacute" unicode="&#x1ebe;" horiz-adv-x="1134" 
d="M1010 162l-34 -162h-896l307 1443h896l-35 -162h-711l-99 -463h674l-34 -160h-674l-105 -496h711zM829 1798h152l227 -258h-162l-145 168h-6l-217 -168h-186zM1082 1830l214 216h178l-238 -216h-154z" />
    <glyph glyph-name="Edieresis" unicode="&#xcb;" horiz-adv-x="1134" 
d="M1010 162l-34 -162h-896l307 1443h896l-35 -162h-711l-99 -463h674l-34 -160h-674l-105 -496h711zM705 1618c-60 0 -110 49 -110 110s50 110 110 110s110 -49 110 -110s-50 -110 -110 -110zM1077 1618c-60 0 -110 49 -110 110s50 110 110 110s110 -49 110 -110
s-50 -110 -110 -110z" />
    <glyph glyph-name="Edotbelow" unicode="&#x1eb8;" horiz-adv-x="1134" 
d="M1010 162l-34 -162h-896l307 1443h896l-35 -162h-711l-99 -463h674l-34 -160h-674l-105 -496h711zM481 -433c-68 0 -124 56 -124 124s56 124 124 124s124 -56 124 -124s-56 -124 -124 -124z" />
    <glyph glyph-name="Einvertedbreve" unicode="&#x206;" horiz-adv-x="1134" 
d="M1010 162l-34 -162h-896l307 1443h896l-35 -162h-711l-99 -463h674l-34 -160h-674l-105 -496h711zM1177 1542h-126c4 10 8 29 8 48c0 93 -62 150 -159 150c-114 0 -212 -76 -239 -198h-126c41 190 180 306 384 306c150 0 268 -95 268 -236c0 -28 -4 -53 -10 -70z" />
    <glyph glyph-name="Ehookabove" unicode="&#x1eba;" horiz-adv-x="1134" 
d="M1010 162l-34 -162h-896l307 1443h896l-35 -162h-711l-99 -463h674l-34 -160h-674l-105 -496h711zM718 1763l24 96c19 7 61 12 89 12c122 0 198 -59 198 -151c0 -95 -74 -166 -203 -193l-42 83c67 12 112 48 112 96c0 41 -35 66 -93 66c-31 0 -58 -3 -85 -9z" />
    <glyph glyph-name="Ecaron" unicode="&#x11a;" horiz-adv-x="1134" 
d="M1010 162l-34 -162h-896l307 1443h896l-35 -162h-711l-99 -463h674l-34 -160h-674l-105 -496h711zM798 1560l-220 298h154l141 -192h6l221 192h178l-346 -298h-134z" />
    <glyph glyph-name="Emacron" unicode="&#x112;" horiz-adv-x="1134" 
d="M1010 162l-34 -162h-896l307 1443h896l-35 -162h-711l-99 -463h674l-34 -160h-674l-105 -496h711zM1218 1750l-25 -116h-634l25 116h634z" />
    <glyph glyph-name="Emacrongrave" unicode="&#x1e14;" horiz-adv-x="1134" 
d="M1010 162l-34 -162h-896l307 1443h896l-35 -162h-711l-99 -463h674l-34 -160h-674l-105 -496h711zM1184 1592h-634l25 116h634zM982 1830h-134l-146 216h158z" />
    <glyph glyph-name="Emacronacute" unicode="&#x1e16;" horiz-adv-x="1134" 
d="M1010 162l-34 -162h-896l307 1443h896l-35 -162h-711l-99 -463h674l-34 -160h-674l-105 -496h711zM1184 1592h-634l25 116h634zM848 1830l214 216h178l-238 -216h-154z" />
    <glyph glyph-name="Etilde" unicode="&#x1ebc;" horiz-adv-x="1134" 
d="M1010 162l-34 -162h-896l307 1443h896l-35 -162h-711l-99 -463h674l-34 -160h-674l-105 -496h711zM1004 1546c-132 0 -158 152 -237 152c-46 0 -89 -49 -105 -142h-118c29 160 118 255 232 255c141 0 162 -152 237 -152c42 0 83 47 103 143h118
c-32 -156 -121 -256 -230 -256z" />
    <glyph glyph-name="Ecircumflexbelow" unicode="&#x1e18;" horiz-adv-x="1134" 
d="M1010 162l-34 -162h-896l307 1443h896l-35 -162h-711l-99 -463h674l-34 -160h-674l-105 -496h711zM570 -165l220 -298h-154l-140 192h-6l-222 -192h-178l346 298h134z" />
    <glyph glyph-name="Ebreve" unicode="&#x114;" horiz-adv-x="1134" 
d="M1010 162l-34 -162h-896l307 1443h896l-35 -162h-711l-99 -463h674l-34 -160h-674l-105 -496h711zM600 1848h126c-4 -14 -8 -33 -8 -52c0 -93 62 -146 159 -146c114 0 212 72 239 198h126c-41 -194 -180 -306 -384 -306c-150 0 -268 91 -268 232c0 28 4 53 10 74z" />
    <glyph glyph-name="Etildebelow" unicode="&#x1e1a;" horiz-adv-x="1134" 
d="M1010 162l-34 -162h-896l307 1443h896l-35 -162h-711l-99 -463h674l-34 -160h-674l-105 -496h711zM604 -442c-132 0 -158 152 -237 152c-46 0 -89 -49 -105 -142h-118c29 160 118 255 232 255c141 0 162 -152 237 -152c42 0 83 47 103 143h118
c-32 -156 -121 -256 -230 -256z" />
    <glyph glyph-name="Edotaccent" unicode="&#x116;" horiz-adv-x="1134" 
d="M1010 162l-34 -162h-896l307 1443h896l-35 -162h-711l-99 -463h674l-34 -160h-674l-105 -496h711zM893 1611c-68 0 -124 56 -124 124s56 124 124 124s124 -56 124 -124s-56 -124 -124 -124z" />
    <glyph glyph-name="Ecedilla" unicode="&#x228;" horiz-adv-x="1134" 
d="M1248 1281h-711l-99 -463h674l-34 -160h-674l-105 -496h711l-34 -162h-354l-80 -140c119 4 189 -50 189 -145c0 -119 -98 -198 -246 -198c-59 0 -132 12 -177 29l24 114c43 -16 91 -25 139 -25c79 0 125 25 125 69c0 45 -47 65 -155 65h-59l16 72l87 159h-405l307 1443
h896z" />
    <glyph glyph-name="Ecedillabreve" unicode="&#x1e1c;" horiz-adv-x="1134" 
d="M1116 1848h126c-41 -194 -180 -306 -384 -306c-150 0 -268 91 -268 232c0 28 4 53 10 74h126c-4 -14 -8 -33 -8 -52c0 -93 62 -146 159 -146c114 0 212 72 239 198zM1248 1281h-711l-99 -463h674l-34 -160h-674l-105 -496h711l-34 -162h-354l-80 -140
c119 4 189 -50 189 -145c0 -119 -98 -198 -246 -198c-59 0 -132 12 -177 29l24 114c43 -16 91 -25 139 -25c79 0 125 25 125 69c0 45 -47 65 -155 65h-59l16 72l87 159h-405l307 1443h896z" />
    <glyph glyph-name="Eogonek" unicode="&#x118;" horiz-adv-x="1134" 
d="M80 0l307 1443h896l-35 -162h-711l-100 -463h675l-34 -160h-674l-106 -496h712l-31 -148l-18 -11c-146 -89 -221 -169 -221 -231c0 -46 35 -73 95 -73c28 0 53 4 73 13l-25 -118c-17 -12 -64 -21 -111 -21c-113 0 -188 59 -188 149c0 94 77 191 219 274v4h-723z" />
    <glyph glyph-name="F" unicode="F" horiz-adv-x="1084" 
d="M264 0h-184l307 1443h878l-35 -162h-693l-106 -496h636l-34 -160h-636z" />
    <glyph glyph-name="Fdotaccent" unicode="&#x1e1e;" horiz-adv-x="1084" 
d="M264 0h-184l307 1443h878l-35 -162h-693l-106 -496h636l-34 -160h-636zM884 1611c-68 0 -124 56 -124 124s56 124 124 124s124 -56 124 -124s-56 -124 -124 -124z" />
    <glyph glyph-name="G" unicode="G" horiz-adv-x="1454" 
d="M1462 736l-47 -221c-74 -342 -320 -538 -643 -538c-376 0 -595 258 -595 627c0 389 228 862 743 862c338 0 550 -204 558 -489v-14h-182c-13 206 -154 337 -376 337c-401 0 -558 -378 -558 -690c0 -278 145 -468 410 -468c233 0 415 150 461 381l11 55h-400l34 158h584z
" />
    <glyph glyph-name="Gacute" unicode="&#x1f4;" horiz-adv-x="1454" 
d="M1462 736l-47 -221c-74 -342 -320 -538 -643 -538c-376 0 -595 258 -595 627c0 389 228 862 743 862c338 0 550 -204 558 -489v-14h-182c-13 206 -154 337 -376 337c-401 0 -558 -378 -558 -690c0 -278 145 -468 410 -468c233 0 415 150 461 381l11 55h-400l34 158h584z
M1030 1560h-162l281 289h202z" />
    <glyph glyph-name="Gcaron" unicode="&#x1e6;" horiz-adv-x="1454" 
d="M1462 736l-47 -221c-74 -342 -320 -538 -643 -538c-376 0 -595 258 -595 627c0 389 228 862 743 862c338 0 550 -204 558 -489v-14h-182c-13 206 -154 337 -376 337c-401 0 -558 -378 -558 -690c0 -278 145 -468 410 -468c233 0 415 150 461 381l11 55h-400l34 158h584z
M886 1560l-220 298h154l141 -192h6l221 192h178l-346 -298h-134z" />
    <glyph glyph-name="Gcircumflex" unicode="&#x11c;" horiz-adv-x="1454" 
d="M1462 736l-47 -221c-74 -342 -320 -538 -643 -538c-376 0 -595 258 -595 627c0 389 228 862 743 862c338 0 550 -204 558 -489v-14h-182c-13 206 -154 337 -376 337c-401 0 -558 -378 -558 -690c0 -278 145 -468 410 -468c233 0 415 150 461 381l11 55h-400l34 158h584z
M1066 1858l220 -298h-154l-140 192h-6l-222 -192h-178l346 298h134z" />
    <glyph glyph-name="Gbreve" unicode="&#x11e;" horiz-adv-x="1454" 
d="M1462 736l-47 -221c-74 -342 -320 -538 -643 -538c-376 0 -595 258 -595 627c0 389 228 862 743 862c338 0 550 -204 558 -489v-14h-182c-13 206 -154 337 -376 337c-401 0 -558 -378 -558 -690c0 -278 145 -468 410 -468c233 0 415 150 461 381l11 55h-400l34 158h584z
M688 1848h126c-4 -14 -8 -33 -8 -52c0 -93 62 -146 159 -146c114 0 212 72 239 198h126c-41 -194 -180 -306 -384 -306c-150 0 -268 91 -268 232c0 28 4 53 10 74z" />
    <glyph glyph-name="Gmacron" unicode="&#x1e20;" horiz-adv-x="1454" 
d="M1462 736l-47 -221c-74 -342 -320 -538 -643 -538c-376 0 -595 258 -595 627c0 389 228 862 743 862c338 0 550 -204 558 -489v-14h-182c-13 206 -154 337 -376 337c-401 0 -558 -378 -558 -690c0 -278 145 -468 410 -468c233 0 415 150 461 381l11 55h-400l34 158h584z
M1306 1750l-25 -116h-634l25 116h634z" />
    <glyph glyph-name="Gdotaccent" unicode="&#x120;" horiz-adv-x="1454" 
d="M1462 736l-47 -221c-74 -342 -320 -538 -643 -538c-376 0 -595 258 -595 627c0 389 228 862 743 862c338 0 550 -204 558 -489v-14h-182c-13 206 -154 337 -376 337c-401 0 -558 -378 -558 -690c0 -278 145 -468 410 -468c233 0 415 150 461 381l11 55h-400l34 158h584z
M981 1611c-68 0 -124 56 -124 124s56 124 124 124s124 -56 124 -124s-56 -124 -124 -124z" />
    <glyph glyph-name="Gcommaaccent" unicode="&#x122;" horiz-adv-x="1454" 
d="M1462 736l-47 -221c-74 -342 -320 -538 -643 -538c-376 0 -595 258 -595 627c0 389 228 862 743 862c338 0 550 -204 558 -489v-14h-182c-13 206 -154 337 -376 337c-401 0 -558 -378 -558 -690c0 -278 145 -468 410 -468c233 0 415 150 461 381l11 55h-400l34 158h584z
M611 -476h-134l182 359h164z" />
    <glyph glyph-name="H" unicode="H" horiz-adv-x="1436" 
d="M1236 0h-184l140 657h-788l-140 -657h-184l307 1443h184l-133 -624h788l133 624h184z" />
    <glyph glyph-name="Hdieresis" unicode="&#x1e26;" horiz-adv-x="1436" 
d="M1236 0h-184l140 657h-788l-140 -657h-184l307 1443h184l-133 -624h788l133 624h184zM827 1618c-60 0 -110 49 -110 110s50 110 110 110s110 -49 110 -110s-50 -110 -110 -110zM1199 1618c-60 0 -110 49 -110 110s50 110 110 110s110 -49 110 -110s-50 -110 -110 -110z
" />
    <glyph glyph-name="Hcaron" unicode="&#x21e;" horiz-adv-x="1436" 
d="M1236 0h-184l140 657h-788l-140 -657h-184l307 1443h184l-133 -624h788l133 624h184zM920 1560l-220 298h154l141 -192h6l221 192h178l-346 -298h-134z" />
    <glyph glyph-name="Hcircumflex" unicode="&#x124;" horiz-adv-x="1436" 
d="M1236 0h-184l140 657h-788l-140 -657h-184l307 1443h184l-133 -624h788l133 624h184zM1100 1858l220 -298h-154l-140 192h-6l-222 -192h-178l346 298h134z" />
    <glyph glyph-name="Hdotbelow" unicode="&#x1e24;" horiz-adv-x="1436" 
d="M1236 0h-184l140 657h-788l-140 -657h-184l307 1443h184l-133 -624h788l133 624h184zM617 -433c-68 0 -124 56 -124 124s56 124 124 124s124 -56 124 -124s-56 -124 -124 -124z" />
    <glyph glyph-name="Hdotaccent" unicode="&#x1e22;" horiz-adv-x="1436" 
d="M1236 0h-184l140 657h-788l-140 -657h-184l307 1443h184l-133 -624h788l133 624h184zM1015 1611c-68 0 -124 56 -124 124s56 124 124 124s124 -56 124 -124s-56 -124 -124 -124z" />
    <glyph glyph-name="Hbrevebelow" unicode="&#x1e2a;" horiz-adv-x="1436" 
d="M1236 0h-184l140 657h-788l-140 -657h-184l307 1443h184l-133 -624h788l133 624h184zM332 -156h126c-4 -14 -8 -33 -8 -52c0 -93 62 -146 159 -146c114 0 212 72 239 198h126c-41 -194 -180 -306 -384 -306c-150 0 -268 91 -268 232c0 28 4 53 10 74z" />
    <glyph glyph-name="Hcedilla" unicode="&#x1e28;" horiz-adv-x="1436" 
d="M1359 1443h184l-307 -1443h-184l140 657h-788l-140 -657l-80 -140c119 4 189 -50 189 -145c0 -119 -98 -198 -246 -198c-59 0 -132 12 -177 29l24 114c43 -16 91 -25 139 -25c79 0 125 25 125 69c0 45 -47 65 -155 65h-59l16 72l87 159h-47l307 1443h184l-133 -624h788z
" />
    <glyph glyph-name="Hbar" unicode="&#x126;" horiz-adv-x="1436" 
d="M1226 819l51 240h-788l-51 -240h788zM1598 1221l-35 -162h-102l-225 -1059h-184l140 657h-788l-140 -657h-184l225 1059h-106l34 162h107l47 222h184l-47 -222h788l47 222h184l-47 -222h102z" />
    <glyph glyph-name="I" unicode="I" horiz-adv-x="464" 
d="M264 0h-184l307 1443h184z" />
    <glyph glyph-name="Idotaccent" unicode="&#x130;" horiz-adv-x="464" 
d="M264 0h-184l307 1443h184zM538 1611c-68 0 -124 56 -124 124s56 124 124 124s124 -56 124 -124s-56 -124 -124 -124z" />
    <glyph glyph-name="Igrave" unicode="&#xcc;" horiz-adv-x="464" 
d="M264 0h-184l307 1443h184zM419 1560l-199 289h182l159 -289h-142z" />
    <glyph glyph-name="Idblgrave" unicode="&#x208;" horiz-adv-x="464" 
d="M264 0h-184l307 1443h184zM289 1560l-199 289h182l159 -289h-142zM609 1560l-199 289h182l159 -289h-142z" />
    <glyph glyph-name="Iacute" unicode="&#xcd;" horiz-adv-x="464" 
d="M264 0h-184l307 1443h184zM587 1560h-162l281 289h202z" />
    <glyph glyph-name="Icircumflex" unicode="&#xce;" horiz-adv-x="464" 
d="M264 0h-184l307 1443h184zM623 1858l220 -298h-154l-140 192h-6l-222 -192h-178l346 298h134z" />
    <glyph glyph-name="Icaron" unicode="&#x1cf;" horiz-adv-x="464" 
d="M264 0h-184l307 1443h184zM443 1560l-220 298h154l141 -192h6l221 192h178l-346 -298h-134z" />
    <glyph glyph-name="Idieresis" unicode="&#xcf;" horiz-adv-x="464" 
d="M264 0h-184l307 1443h184zM350 1618c-60 0 -110 49 -110 110s50 110 110 110s110 -49 110 -110s-50 -110 -110 -110zM722 1618c-60 0 -110 49 -110 110s50 110 110 110s110 -49 110 -110s-50 -110 -110 -110z" />
    <glyph glyph-name="Idieresisacute" unicode="&#x1e2e;" horiz-adv-x="464" 
d="M264 0h-184l307 1443h184zM467 1830l214 216h178l-238 -216h-154zM350 1554c-58 0 -105 47 -105 106s47 106 105 106c57 0 104 -47 104 -106s-47 -106 -104 -106zM704 1554c-57 0 -104 47 -104 106s47 106 104 106c58 0 105 -47 105 -106s-47 -106 -105 -106z" />
    <glyph glyph-name="Ibreve" unicode="&#x12c;" horiz-adv-x="464" 
d="M264 0h-184l307 1443h184zM245 1848h126c-4 -14 -8 -33 -8 -52c0 -93 62 -146 159 -146c114 0 212 72 239 198h126c-41 -194 -180 -306 -384 -306c-150 0 -268 91 -268 232c0 28 4 53 10 74z" />
    <glyph glyph-name="Idotbelow" unicode="&#x1eca;" horiz-adv-x="464" 
d="M264 0h-184l307 1443h184zM102 -433c-68 0 -124 56 -124 124s56 124 124 124s124 -56 124 -124s-56 -124 -124 -124z" />
    <glyph glyph-name="Iinvertedbreve" unicode="&#x20a;" horiz-adv-x="464" 
d="M264 0h-184l307 1443h184zM822 1542h-126c4 10 8 29 8 48c0 93 -62 150 -159 150c-114 0 -212 -76 -239 -198h-126c41 190 180 306 384 306c150 0 268 -95 268 -236c0 -28 -4 -53 -10 -70z" />
    <glyph glyph-name="Imacron" unicode="&#x12a;" horiz-adv-x="464" 
d="M264 0h-184l307 1443h184zM863 1750l-25 -116h-634l25 116h634z" />
    <glyph glyph-name="Itildebelow" unicode="&#x1e2c;" horiz-adv-x="464" 
d="M264 0h-184l307 1443h184zM225 -442c-132 0 -158 152 -237 152c-46 0 -89 -49 -105 -142h-118c29 160 118 255 232 255c141 0 162 -152 237 -152c42 0 83 47 103 143h118c-32 -156 -121 -256 -230 -256z" />
    <glyph glyph-name="Ihookabove" unicode="&#x1ec8;" horiz-adv-x="464" 
d="M264 0h-184l307 1443h184zM363 1763l24 96c19 7 61 12 89 12c122 0 198 -59 198 -151c0 -95 -74 -166 -203 -193l-42 83c67 12 112 48 112 96c0 41 -35 66 -93 66c-31 0 -58 -3 -85 -9z" />
    <glyph glyph-name="Itilde" unicode="&#x128;" horiz-adv-x="464" 
d="M264 0h-184l307 1443h184zM649 1546c-132 0 -158 152 -237 152c-46 0 -89 -49 -105 -142h-118c29 160 118 255 232 255c141 0 162 -152 237 -152c42 0 83 47 103 143h118c-32 -156 -121 -256 -230 -256z" />
    <glyph glyph-name="Iogonek" unicode="&#x12e;" horiz-adv-x="464" 
d="M100 -427c-113 0 -188 59 -188 149c0 82 52 162 164 260v0l311 1461h184l-303 -1425l-17 -12c-139 -98 -183 -166 -183 -230c0 -50 36 -77 95 -77c32 0 57 4 73 13l-25 -118c-17 -12 -64 -21 -111 -21z" />
    <glyph glyph-name="I.1" horiz-adv-x="904" 
d="M1032 1289h-274l-241 -1135h274l-33 -154h-274h-184h-274l33 154h274l241 1135h-274l33 154h274h184h274z" />
    <glyph glyph-name="Idotaccent.1" horiz-adv-x="904" 
d="M756 1611c-68 0 -124 56 -124 124s56 124 124 124s124 -56 124 -124s-56 -124 -124 -124zM1032 1289h-274l-241 -1135h274l-33 -154h-274h-184h-274l33 154h274l241 1135h-274l33 154h274h184h274z" />
    <glyph glyph-name="Igrave.1" horiz-adv-x="904" 
d="M779 1560h-142l-199 289h182zM1032 1289h-274l-241 -1135h274l-33 -154h-274h-184h-274l33 154h274l241 1135h-274l33 154h274h184h274z" />
    <glyph glyph-name="Idblgrave.1" horiz-adv-x="904" 
d="M969 1560h-142l-199 289h182zM649 1560h-142l-199 289h182zM1032 1289h-274l-241 -1135h274l-33 -154h-274h-184h-274l33 154h274l241 1135h-274l33 154h274h184h274z" />
    <glyph glyph-name="Iacute.1" horiz-adv-x="904" 
d="M1126 1849l-321 -289h-162l281 289h202zM607 1443h184h274l-33 -154h-274l-241 -1135h274l-33 -154h-274h-184h-274l33 154h274l241 1135h-274l33 154h274z" />
    <glyph glyph-name="Icircumflex.1" horiz-adv-x="904" 
d="M761 1752l-222 -192h-178l346 298h134l220 -298h-154l-140 192h-6zM1032 1289h-274l-241 -1135h274l-33 -154h-274h-184h-274l33 154h274l241 1135h-274l33 154h274h184h274z" />
    <glyph glyph-name="Icaron.1" horiz-adv-x="904" 
d="M795 1560h-134l-220 298h154l141 -192h6l221 192h178zM607 1443h184h274l-33 -154h-274l-241 -1135h274l-33 -154h-274h-184h-274l33 154h274l241 1135h-274l33 154h274z" />
    <glyph glyph-name="Idieresis.1" horiz-adv-x="904" 
d="M940 1618c-60 0 -110 49 -110 110s50 110 110 110s110 -49 110 -110s-50 -110 -110 -110zM568 1618c-60 0 -110 49 -110 110s50 110 110 110s110 -49 110 -110s-50 -110 -110 -110zM1032 1289h-274l-241 -1135h274l-33 -154h-274h-184h-274l33 154h274l241 1135h-274
l33 154h274h184h274z" />
    <glyph glyph-name="Idieresisacute.1" horiz-adv-x="904" 
d="M1077 2046l-238 -216h-154l214 216h178zM818 1660c0 59 47 106 104 106c58 0 105 -47 105 -106s-47 -106 -105 -106c-57 0 -104 47 -104 106zM568 1554c-58 0 -105 47 -105 106s47 106 105 106c57 0 104 -47 104 -106s-47 -106 -104 -106zM607 1443h184h274l-33 -154
h-274l-241 -1135h274l-33 -154h-274h-184h-274l33 154h274l241 1135h-274l33 154h274z" />
    <glyph glyph-name="Ibreve.1" horiz-adv-x="904" 
d="M979 1848h126c-41 -194 -180 -306 -384 -306c-150 0 -268 91 -268 232c0 28 4 53 10 74h126c-4 -14 -8 -33 -8 -52c0 -93 62 -146 159 -146c114 0 212 72 239 198zM607 1443h184h274l-33 -154h-274l-241 -1135h274l-33 -154h-274h-184h-274l33 154h274l241 1135h-274
l33 154h274z" />
    <glyph glyph-name="Idotbelow.1" horiz-adv-x="904" 
d="M323 -185c68 0 124 -56 124 -124s-56 -124 -124 -124s-124 56 -124 124s56 124 124 124zM1032 1289h-274l-241 -1135h274l-33 -154h-274h-184h-274l33 154h274l241 1135h-274l33 154h274h184h274z" />
    <glyph glyph-name="Iinvertedbreve.1" horiz-adv-x="904" 
d="M1040 1542h-126c4 10 8 29 8 48c0 93 -62 150 -159 150c-114 0 -212 -76 -239 -198h-126c41 190 180 306 384 306c150 0 268 -95 268 -236c0 -28 -4 -53 -10 -70zM1032 1289h-274l-241 -1135h274l-33 -154h-274h-184h-274l33 154h274l241 1135h-274l33 154h274h184h274z
" />
    <glyph glyph-name="Imacron.1" horiz-adv-x="904" 
d="M1081 1750l-25 -116h-634l25 116h634zM607 1443h184h274l-33 -154h-274l-241 -1135h274l-33 -154h-274h-184h-274l33 154h274l241 1135h-274l33 154h274z" />
    <glyph glyph-name="Itildebelow.1" horiz-adv-x="904" 
d="M104 -432h-118c29 160 118 255 232 255c141 0 162 -152 237 -152c42 0 83 47 103 143h118c-32 -156 -121 -256 -230 -256c-132 0 -158 152 -237 152c-46 0 -89 -49 -105 -142zM1032 1289h-274l-241 -1135h274l-33 -154h-274h-184h-274l33 154h274l241 1135h-274l33 154
h274h184h274z" />
    <glyph glyph-name="Ihookabove.1" horiz-adv-x="904" 
d="M689 1527l-42 83c67 12 112 48 112 96c0 41 -35 66 -93 66c-31 0 -58 -3 -85 -9l24 96c19 7 61 12 89 12c122 0 198 -59 198 -151c0 -95 -74 -166 -203 -193zM1032 1289h-274l-241 -1135h274l-33 -154h-274h-184h-274l33 154h274l241 1135h-274l33 154h274h184h274z" />
    <glyph glyph-name="Itilde.1" horiz-adv-x="904" 
d="M979 1802h118c-32 -156 -121 -256 -230 -256c-132 0 -158 152 -237 152c-46 0 -89 -49 -105 -142h-118c29 160 118 255 232 255c141 0 162 -152 237 -152c42 0 83 47 103 143zM607 1443h184h274l-33 -154h-274l-241 -1135h274l-33 -154h-274h-184h-274l33 154h274
l241 1135h-274l33 154h274z" />
    <glyph glyph-name="Iogonek.1" horiz-adv-x="904" 
d="M300 1289l33 154h732l-33 -154h-274l-241 -1135h274l-30 -140l-18 -11c-146 -89 -221 -169 -221 -231c0 -46 35 -73 95 -73c28 0 53 4 73 13l-25 -118c-17 -12 -64 -21 -111 -21c-113 0 -188 59 -188 149c0 94 77 191 219 274v4h-559l33 154h274l241 1135h-274z" />
    <glyph glyph-name="J" unicode="J" horiz-adv-x="1026" 
d="M65 330v22h182v-1c0 -128 87 -206 222 -206c140 0 224 89 262 269l218 1029h184l-227 -1070c-53 -252 -209 -397 -455 -397c-223 0 -386 153 -386 354z" />
    <glyph glyph-name="Jcircumflex" unicode="&#x134;" horiz-adv-x="1026" 
d="M65 330v22h182v-1c0 -128 87 -206 222 -206c140 0 224 89 262 269l218 1029h184l-227 -1070c-53 -252 -209 -397 -455 -397c-223 0 -386 153 -386 354zM1185 1858l220 -298h-154l-140 192h-6l-222 -192h-178l346 298h134z" />
    <glyph glyph-name="K" unicode="K" horiz-adv-x="1259" 
d="M264 0h-184l307 1443h184l-149 -701h4l776 701h238l-714 -648l460 -795h-210l-392 683l-215 -189z" />
    <glyph glyph-name="Kacute" unicode="&#x1e30;" horiz-adv-x="1259" 
d="M264 0h-184l307 1443h184l-149 -701h4l776 701h238l-714 -648l460 -795h-210l-392 683l-215 -189zM953 1560h-162l281 289h202z" />
    <glyph glyph-name="Kcaron" unicode="&#x1e8;" horiz-adv-x="1259" 
d="M264 0h-184l307 1443h184l-149 -701h4l776 701h238l-714 -648l460 -795h-210l-392 683l-215 -189zM809 1560l-220 298h154l141 -192h6l221 192h178l-346 -298h-134z" />
    <glyph glyph-name="Kdotbelow" unicode="&#x1e32;" horiz-adv-x="1259" 
d="M264 0h-184l307 1443h184l-149 -701h4l776 701h238l-714 -648l460 -795h-210l-392 683l-215 -189zM530 -433c-68 0 -124 56 -124 124s56 124 124 124s124 -56 124 -124s-56 -124 -124 -124z" />
    <glyph glyph-name="Klinebelow" unicode="&#x1e34;" horiz-adv-x="1259" 
d="M264 0h-184l307 1443h184l-149 -701h4l776 701h238l-714 -648l460 -795h-210l-392 683l-215 -189zM864 -251l-25 -116h-634l25 116h634z" />
    <glyph glyph-name="Kcommaaccent" unicode="&#x136;" horiz-adv-x="1259" 
d="M264 0h-184l307 1443h184l-149 -701h4l776 701h238l-714 -648l460 -795h-210l-392 683l-215 -189zM450 -476h-134l182 359h164z" />
    <glyph glyph-name="L" unicode="L" horiz-adv-x="1078" 
d="M992 162l-34 -162h-878l307 1443h184l-272 -1281h693z" />
    <glyph glyph-name="Lacute" unicode="&#x139;" horiz-adv-x="1078" 
d="M992 162l-34 -162h-878l307 1443h184l-272 -1281h693zM586 1560h-162l281 289h202z" />
    <glyph glyph-name="Lcircumflexbelow" unicode="&#x1e3c;" horiz-adv-x="1078" 
d="M992 162l-34 -162h-878l307 1443h184l-272 -1281h693zM539 -165l220 -298h-154l-140 192h-6l-222 -192h-178l346 298h134z" />
    <glyph glyph-name="Ldotbelow" unicode="&#x1e36;" horiz-adv-x="1078" 
d="M992 162l-34 -162h-878l307 1443h184l-272 -1281h693zM450 -433c-68 0 -124 56 -124 124s56 124 124 124s124 -56 124 -124s-56 -124 -124 -124z" />
    <glyph glyph-name="Ldotbelowmacron" unicode="&#x1e38;" horiz-adv-x="1078" 
d="M992 162l-34 -162h-878l307 1443h184l-272 -1281h693zM450 -433c-68 0 -124 56 -124 124s56 124 124 124s124 -56 124 -124s-56 -124 -124 -124zM862 1750l-25 -116h-634l25 116h634z" />
    <glyph glyph-name="Llinebelow" unicode="&#x1e3a;" horiz-adv-x="1078" 
d="M992 162l-34 -162h-878l307 1443h184l-272 -1281h693zM784 -251l-25 -116h-634l25 116h634z" />
    <glyph glyph-name="Lcommaaccent" unicode="&#x13b;" horiz-adv-x="1078" 
d="M992 162l-34 -162h-878l307 1443h184l-272 -1281h693zM370 -476h-134l182 359h164z" />
    <glyph glyph-name="Lcaron" unicode="&#x13d;" horiz-adv-x="1078" 
d="M907 1443h170l-154 -488h-120zM992 162l-34 -162h-878l307 1443h184l-272 -1281h693z" />
    <glyph glyph-name="Lslash" unicode="&#x141;" horiz-adv-x="1078" 
d="M299 162h693l-34 -162h-878l120 564l-156 -73l33 152l155 72l155 728h184l-134 -632l340 158l-33 -152l-339 -158z" />
    <glyph glyph-name="M" unicode="M" horiz-adv-x="1706" 
d="M250 0h-170l307 1443h200l243 -1216h4l754 1216h225l-307 -1443h-170l239 1124h-7l-699 -1114h-153l-223 1114h-6z" />
    <glyph glyph-name="Macute" unicode="&#x1e3e;" horiz-adv-x="1706" 
d="M250 0h-170l307 1443h200l243 -1216h4l754 1216h225l-307 -1443h-170l239 1124h-7l-699 -1114h-153l-223 1114h-6zM1155 1560h-162l281 289h202z" />
    <glyph glyph-name="Mdotaccent" unicode="&#x1e40;" horiz-adv-x="1706" 
d="M250 0h-170l307 1443h200l243 -1216h4l754 1216h225l-307 -1443h-170l239 1124h-7l-699 -1114h-153l-223 1114h-6zM1106 1611c-68 0 -124 56 -124 124s56 124 124 124s124 -56 124 -124s-56 -124 -124 -124z" />
    <glyph glyph-name="Mdotbelow" unicode="&#x1e42;" horiz-adv-x="1706" 
d="M250 0h-170l307 1443h200l243 -1216h4l754 1216h225l-307 -1443h-170l239 1124h-7l-699 -1114h-153l-223 1114h-6zM723 -433c-68 0 -124 56 -124 124s56 124 124 124s124 -56 124 -124s-56 -124 -124 -124z" />
    <glyph glyph-name="N" unicode="N" horiz-adv-x="1434" 
d="M264 0h-184l307 1443h184l533 -1173h4l249 1173h184l-307 -1443h-184l-533 1173h-4z" />
    <glyph glyph-name="Ngrave" unicode="&#x1f8;" horiz-adv-x="1434" 
d="M264 0h-184l307 1443h184l533 -1173h4l249 1173h184l-307 -1443h-184l-533 1173h-4zM913 1560l-199 289h182l159 -289h-142z" />
    <glyph glyph-name="Nacute" unicode="&#x143;" horiz-adv-x="1434" 
d="M264 0h-184l307 1443h184l533 -1173h4l249 1173h184l-307 -1443h-184l-533 1173h-4zM1081 1560h-162l281 289h202z" />
    <glyph glyph-name="Ntilde" unicode="&#xd1;" horiz-adv-x="1434" 
d="M264 0h-184l307 1443h184l533 -1173h4l249 1173h184l-307 -1443h-184l-533 1173h-4zM1143 1546c-132 0 -158 152 -237 152c-46 0 -89 -49 -105 -142h-118c29 160 118 255 232 255c141 0 162 -152 237 -152c42 0 83 47 103 143h118c-32 -156 -121 -256 -230 -256z" />
    <glyph glyph-name="Ndotbelow" unicode="&#x1e46;" horiz-adv-x="1434" 
d="M264 0h-184l307 1443h184l533 -1173h4l249 1173h184l-307 -1443h-184l-533 1173h-4zM588 -433c-68 0 -124 56 -124 124s56 124 124 124s124 -56 124 -124s-56 -124 -124 -124z" />
    <glyph glyph-name="Ndotaccent" unicode="&#x1e44;" horiz-adv-x="1434" 
d="M264 0h-184l307 1443h184l533 -1173h4l249 1173h184l-307 -1443h-184l-533 1173h-4zM1032 1611c-68 0 -124 56 -124 124s56 124 124 124s124 -56 124 -124s-56 -124 -124 -124z" />
    <glyph glyph-name="Ncaron" unicode="&#x147;" horiz-adv-x="1434" 
d="M264 0h-184l307 1443h184l533 -1173h4l249 1173h184l-307 -1443h-184l-533 1173h-4zM937 1560l-220 298h154l141 -192h6l221 192h178l-346 -298h-134z" />
    <glyph glyph-name="Ncircumflexbelow" unicode="&#x1e4a;" horiz-adv-x="1434" 
d="M264 0h-184l307 1443h184l533 -1173h4l249 1173h184l-307 -1443h-184l-533 1173h-4zM677 -165l220 -298h-154l-140 192h-6l-222 -192h-178l346 298h134z" />
    <glyph glyph-name="Nlinebelow" unicode="&#x1e48;" horiz-adv-x="1434" 
d="M264 0h-184l307 1443h184l533 -1173h4l249 1173h184l-307 -1443h-184l-533 1173h-4zM922 -251l-25 -116h-634l25 116h634z" />
    <glyph glyph-name="Ncommaaccent" unicode="&#x145;" horiz-adv-x="1434" 
d="M264 0h-184l307 1443h184l533 -1173h4l249 1173h184l-307 -1443h-184l-533 1173h-4zM508 -476h-134l182 359h164z" />
    <glyph glyph-name="O" unicode="O" horiz-adv-x="1518" 
d="M928 1301c-336 0 -566 -309 -566 -689c0 -287 162 -470 415 -470c336 0 566 309 566 689c0 287 -162 470 -415 470zM777 -23c-362 0 -600 249 -600 629c0 472 315 860 751 860c362 0 600 -249 600 -629c0 -472 -315 -860 -751 -860z" />
    <glyph glyph-name="Odieresis" unicode="&#xd6;" horiz-adv-x="1518" 
d="M928 1301c-336 0 -566 -309 -566 -689c0 -287 162 -470 415 -470c336 0 566 309 566 689c0 287 -162 470 -415 470zM777 -23c-362 0 -600 249 -600 629c0 472 315 860 751 860c362 0 600 -249 600 -629c0 -472 -315 -860 -751 -860zM817 1618c-60 0 -110 49 -110 110
s50 110 110 110s110 -49 110 -110s-50 -110 -110 -110zM1189 1618c-60 0 -110 49 -110 110s50 110 110 110s110 -49 110 -110s-50 -110 -110 -110z" />
    <glyph glyph-name="Oslash" unicode="&#xd8;" horiz-adv-x="1518" 
d="M1297 1069l-811 -811c71 -75 171 -116 291 -116c336 0 566 309 566 689c0 90 -16 171 -46 238zM408 374l811 811c-71 75 -171 116 -291 116c-336 0 -566 -309 -566 -689c0 -90 16 -171 46 -238zM1596 1368l-163 -163c61 -100 95 -225 95 -368c0 -472 -315 -860 -751 -860
c-171 0 -314 56 -418 154l-153 -153l-97 97l163 163c-61 100 -95 225 -95 368c0 472 315 860 751 860c171 0 314 -56 418 -154l153 153z" />
    <glyph glyph-name="Otilde" unicode="&#xd5;" horiz-adv-x="1518" 
d="M928 1301c-336 0 -566 -309 -566 -689c0 -287 162 -470 415 -470c336 0 566 309 566 689c0 287 -162 470 -415 470zM777 -23c-362 0 -600 249 -600 629c0 472 315 860 751 860c362 0 600 -249 600 -629c0 -472 -315 -860 -751 -860zM1116 1546c-132 0 -158 152 -237 152
c-46 0 -89 -49 -105 -142h-118c29 160 118 255 232 255c141 0 162 -152 237 -152c42 0 83 47 103 143h118c-32 -156 -121 -256 -230 -256z" />
    <glyph glyph-name="Oacute" unicode="&#xd3;" horiz-adv-x="1518" 
d="M928 1301c-336 0 -566 -309 -566 -689c0 -287 162 -470 415 -470c336 0 566 309 566 689c0 287 -162 470 -415 470zM777 -23c-362 0 -600 249 -600 629c0 472 315 860 751 860c362 0 600 -249 600 -629c0 -472 -315 -860 -751 -860zM1054 1560h-162l281 289h202z" />
    <glyph glyph-name="Ocircumflex" unicode="&#xd4;" horiz-adv-x="1518" 
d="M928 1301c-336 0 -566 -309 -566 -689c0 -287 162 -470 415 -470c336 0 566 309 566 689c0 287 -162 470 -415 470zM777 -23c-362 0 -600 249 -600 629c0 472 315 860 751 860c362 0 600 -249 600 -629c0 -472 -315 -860 -751 -860zM1090 1858l220 -298h-154l-140 192h-6
l-222 -192h-178l346 298h134z" />
    <glyph glyph-name="Ograve" unicode="&#xd2;" horiz-adv-x="1518" 
d="M928 1301c-336 0 -566 -309 -566 -689c0 -287 162 -470 415 -470c336 0 566 309 566 689c0 287 -162 470 -415 470zM777 -23c-362 0 -600 249 -600 629c0 472 315 860 751 860c362 0 600 -249 600 -629c0 -472 -315 -860 -751 -860zM886 1560l-199 289h182l159 -289h-142
z" />
    <glyph glyph-name="Ocircumflexhookabove" unicode="&#x1ed4;" horiz-adv-x="1518" 
d="M928 1301c-336 0 -566 -309 -566 -689c0 -287 162 -470 415 -470c336 0 566 309 566 689c0 287 -162 470 -415 470zM777 -23c-362 0 -600 249 -600 629c0 472 315 860 751 860c362 0 600 -249 600 -629c0 -472 -315 -860 -751 -860zM941 1798h152l227 -258h-162l-145 168
h-6l-217 -168h-186zM1129 1953l23 88c16 7 54 12 82 12c112 0 182 -55 182 -139c0 -81 -60 -144 -163 -172l-62 70c59 12 104 44 104 88c0 37 -35 62 -89 62c-27 0 -52 -3 -77 -9z" />
    <glyph glyph-name="Ocircumflexgrave" unicode="&#x1ed2;" horiz-adv-x="1518" 
d="M928 1301c-336 0 -566 -309 -566 -689c0 -287 162 -470 415 -470c336 0 566 309 566 689c0 287 -162 470 -415 470zM777 -23c-362 0 -600 249 -600 629c0 472 315 860 751 860c362 0 600 -249 600 -629c0 -472 -315 -860 -751 -860zM941 1798h152l227 -258h-162l-145 168
h-6l-217 -168h-186zM1380 1830h-134l-146 216h158z" />
    <glyph glyph-name="Odotbelow" unicode="&#x1ecc;" horiz-adv-x="1518" 
d="M928 1301c-336 0 -566 -309 -566 -689c0 -287 162 -470 415 -470c336 0 566 309 566 689c0 287 -162 470 -415 470zM777 -23c-362 0 -600 249 -600 629c0 472 315 860 751 860c362 0 600 -249 600 -629c0 -472 -315 -860 -751 -860zM706 -433c-68 0 -124 56 -124 124
s56 124 124 124s124 -56 124 -124s-56 -124 -124 -124z" />
    <glyph glyph-name="Odblgrave" unicode="&#x20c;" horiz-adv-x="1518" 
d="M928 1301c-336 0 -566 -309 -566 -689c0 -287 162 -470 415 -470c336 0 566 309 566 689c0 287 -162 470 -415 470zM777 -23c-362 0 -600 249 -600 629c0 472 315 860 751 860c362 0 600 -249 600 -629c0 -472 -315 -860 -751 -860zM756 1560l-199 289h182l159 -289h-142
zM1076 1560l-199 289h182l159 -289h-142z" />
    <glyph glyph-name="Otildeacute" unicode="&#x1e4c;" horiz-adv-x="1518" 
d="M928 1301c-336 0 -566 -309 -566 -689c0 -287 162 -470 415 -470c336 0 566 309 566 689c0 287 -162 470 -415 470zM777 -23c-362 0 -600 249 -600 629c0 472 315 860 751 860c362 0 600 -249 600 -629c0 -472 -315 -860 -751 -860zM963 1850l210 196h178l-234 -196h-154
zM1109 1541c-135 0 -164 149 -241 149c-46 0 -86 -48 -99 -130h-116c28 154 115 240 229 240c133 0 161 -149 240 -149c44 0 80 46 98 131h116c-27 -150 -118 -241 -227 -241z" />
    <glyph glyph-name="Omacronacute" unicode="&#x1e52;" horiz-adv-x="1518" 
d="M928 1301c-336 0 -566 -309 -566 -689c0 -287 162 -470 415 -470c336 0 566 309 566 689c0 287 -162 470 -415 470zM777 -23c-362 0 -600 249 -600 629c0 472 315 860 751 860c362 0 600 -249 600 -629c0 -472 -315 -860 -751 -860zM1296 1592h-634l25 116h634zM960 1830
l214 216h178l-238 -216h-154z" />
    <glyph glyph-name="Ocircumflextilde" unicode="&#x1ed6;" horiz-adv-x="1518" 
d="M928 1301c-336 0 -566 -309 -566 -689c0 -287 162 -470 415 -470c336 0 566 309 566 689c0 287 -162 470 -415 470zM777 -23c-362 0 -600 249 -600 629c0 472 315 860 751 860c362 0 600 -249 600 -629c0 -472 -315 -860 -751 -860zM1167 1833c-132 0 -163 125 -245 125
c-46 0 -84 -36 -93 -108h-116c23 144 109 218 223 218c130 0 160 -125 244 -125c44 0 78 34 92 109h116c-22 -140 -112 -219 -221 -219zM939 1788h152l229 -248h-162l-147 160h-6l-215 -160h-186z" />
    <glyph glyph-name="Odotaccentmacron" unicode="&#x230;" horiz-adv-x="1518" 
d="M928 1301c-336 0 -566 -309 -566 -689c0 -287 162 -470 415 -470c336 0 566 309 566 689c0 287 -162 470 -415 470zM777 -23c-362 0 -600 249 -600 629c0 472 315 860 751 860c362 0 600 -249 600 -629c0 -472 -315 -860 -751 -860zM1000 1577c-66 0 -119 53 -119 119
s53 119 119 119s119 -53 119 -119s-53 -119 -119 -119zM1388 2025l-26 -116h-634l26 116h634z" />
    <glyph glyph-name="Omacrongrave" unicode="&#x1e50;" horiz-adv-x="1518" 
d="M928 1301c-336 0 -566 -309 -566 -689c0 -287 162 -470 415 -470c336 0 566 309 566 689c0 287 -162 470 -415 470zM777 -23c-362 0 -600 249 -600 629c0 472 315 860 751 860c362 0 600 -249 600 -629c0 -472 -315 -860 -751 -860zM1296 1592h-634l25 116h634z
M1094 1830h-134l-146 216h158z" />
    <glyph glyph-name="Ocaron" unicode="&#x1d1;" horiz-adv-x="1518" 
d="M928 1301c-336 0 -566 -309 -566 -689c0 -287 162 -470 415 -470c336 0 566 309 566 689c0 287 -162 470 -415 470zM777 -23c-362 0 -600 249 -600 629c0 472 315 860 751 860c362 0 600 -249 600 -629c0 -472 -315 -860 -751 -860zM910 1560l-220 298h154l141 -192h6
l221 192h178l-346 -298h-134z" />
    <glyph glyph-name="Oslashacute" unicode="&#x1fe;" horiz-adv-x="1518" 
d="M1375 1849l-321 -289h-162l281 289h202zM1297 1069l-811 -811c71 -75 171 -116 291 -116c336 0 566 309 566 689c0 90 -16 171 -46 238zM408 374l811 811c-71 75 -171 116 -291 116c-336 0 -566 -309 -566 -689c0 -90 16 -171 46 -238zM1596 1368l-163 -163
c61 -100 95 -225 95 -368c0 -472 -315 -860 -751 -860c-171 0 -314 56 -418 154l-153 -153l-97 97l163 163c-61 100 -95 225 -95 368c0 472 315 860 751 860c171 0 314 -56 418 -154l153 153z" />
    <glyph glyph-name="Ohungarumlaut" unicode="&#x150;" horiz-adv-x="1518" 
d="M928 1301c-336 0 -566 -309 -566 -689c0 -287 162 -470 415 -470c336 0 566 309 566 689c0 287 -162 470 -415 470zM777 -23c-362 0 -600 249 -600 629c0 472 315 860 751 860c362 0 600 -249 600 -629c0 -472 -315 -860 -751 -860zM1212 1560h-154l281 289h194z
M892 1560h-154l281 289h194z" />
    <glyph glyph-name="Obreve" unicode="&#x14e;" horiz-adv-x="1518" 
d="M928 1301c-336 0 -566 -309 -566 -689c0 -287 162 -470 415 -470c336 0 566 309 566 689c0 287 -162 470 -415 470zM777 -23c-362 0 -600 249 -600 629c0 472 315 860 751 860c362 0 600 -249 600 -629c0 -472 -315 -860 -751 -860zM712 1848h126c-4 -14 -8 -33 -8 -52
c0 -93 62 -146 159 -146c114 0 212 72 239 198h126c-41 -194 -180 -306 -384 -306c-150 0 -268 91 -268 232c0 28 4 53 10 74z" />
    <glyph glyph-name="Oinvertedbreve" unicode="&#x20e;" horiz-adv-x="1518" 
d="M928 1301c-336 0 -566 -309 -566 -689c0 -287 162 -470 415 -470c336 0 566 309 566 689c0 287 -162 470 -415 470zM777 -23c-362 0 -600 249 -600 629c0 472 315 860 751 860c362 0 600 -249 600 -629c0 -472 -315 -860 -751 -860zM1289 1542h-126c4 10 8 29 8 48
c0 93 -62 150 -159 150c-114 0 -212 -76 -239 -198h-126c41 190 180 306 384 306c150 0 268 -95 268 -236c0 -28 -4 -53 -10 -70z" />
    <glyph glyph-name="Ohookabove" unicode="&#x1ece;" horiz-adv-x="1518" 
d="M928 1301c-336 0 -566 -309 -566 -689c0 -287 162 -470 415 -470c336 0 566 309 566 689c0 287 -162 470 -415 470zM777 -23c-362 0 -600 249 -600 629c0 472 315 860 751 860c362 0 600 -249 600 -629c0 -472 -315 -860 -751 -860zM830 1763l24 96c19 7 61 12 89 12
c122 0 198 -59 198 -151c0 -95 -74 -166 -203 -193l-42 83c67 12 112 48 112 96c0 41 -35 66 -93 66c-31 0 -58 -3 -85 -9z" />
    <glyph glyph-name="Odieresismacron" unicode="&#x22a;" horiz-adv-x="1518" 
d="M928 1301c-336 0 -566 -309 -566 -689c0 -287 162 -470 415 -470c336 0 566 309 566 689c0 287 -162 470 -415 470zM777 -23c-362 0 -600 249 -600 629c0 472 315 860 751 860c362 0 600 -249 600 -629c0 -472 -315 -860 -751 -860zM817 1766c57 0 104 -47 104 -106
s-47 -106 -104 -106c-58 0 -105 47 -105 106s47 106 105 106zM1388 2025l-25 -116h-634l25 116h634zM1171 1766c58 0 105 -47 105 -106s-47 -106 -105 -106c-57 0 -104 47 -104 106s47 106 104 106z" />
    <glyph glyph-name="Otildemacron" unicode="&#x22c;" horiz-adv-x="1518" 
d="M928 1301c-336 0 -566 -309 -566 -689c0 -287 162 -470 415 -470c336 0 566 309 566 689c0 287 -162 470 -415 470zM777 -23c-362 0 -600 249 -600 629c0 472 315 860 751 860c362 0 600 -249 600 -629c0 -472 -315 -860 -751 -860zM1388 2025l-26 -116h-634l26 116h634z
M1109 1541c-135 0 -164 149 -241 149c-46 0 -86 -48 -99 -130h-116c28 154 115 240 229 240c133 0 161 -149 240 -149c44 0 80 46 98 131h116c-27 -150 -118 -241 -227 -241z" />
    <glyph glyph-name="Odotaccent" unicode="&#x22e;" horiz-adv-x="1518" 
d="M928 1301c-336 0 -566 -309 -566 -689c0 -287 162 -470 415 -470c336 0 566 309 566 689c0 287 -162 470 -415 470zM777 -23c-362 0 -600 249 -600 629c0 472 315 860 751 860c362 0 600 -249 600 -629c0 -472 -315 -860 -751 -860zM1005 1611c-68 0 -124 56 -124 124
s56 124 124 124s124 -56 124 -124s-56 -124 -124 -124z" />
    <glyph glyph-name="Ocircumflexdotbelow" unicode="&#x1ed8;" horiz-adv-x="1518" 
d="M928 1301c-336 0 -566 -309 -566 -689c0 -287 162 -470 415 -470c336 0 566 309 566 689c0 287 -162 470 -415 470zM777 -23c-362 0 -600 249 -600 629c0 472 315 860 751 860c362 0 600 -249 600 -629c0 -472 -315 -860 -751 -860zM1090 1858l220 -298h-154l-140 192h-6
l-222 -192h-178l346 298h134zM706 -433c-68 0 -124 56 -124 124s56 124 124 124s124 -56 124 -124s-56 -124 -124 -124z" />
    <glyph glyph-name="Ocircumflexacute" unicode="&#x1ed0;" horiz-adv-x="1518" 
d="M928 1301c-336 0 -566 -309 -566 -689c0 -287 162 -470 415 -470c336 0 566 309 566 689c0 287 -162 470 -415 470zM777 -23c-362 0 -600 249 -600 629c0 472 315 860 751 860c362 0 600 -249 600 -629c0 -472 -315 -860 -751 -860zM941 1798h152l227 -258h-162l-145 168
h-6l-217 -168h-186zM1194 1830l214 216h178l-238 -216h-154z" />
    <glyph glyph-name="Otildedieresis" unicode="&#x1e4e;" horiz-adv-x="1518" 
d="M928 1301c-336 0 -566 -309 -566 -689c0 -287 162 -470 415 -470c336 0 566 309 566 689c0 287 -162 470 -415 470zM777 -23c-362 0 -600 249 -600 629c0 472 315 860 751 860c362 0 600 -249 600 -629c0 -472 -315 -860 -751 -860zM1109 1541c-135 0 -164 149 -241 149
c-46 0 -86 -48 -99 -130h-116c28 154 115 240 229 240c133 0 161 -149 240 -149c44 0 80 46 98 131h116c-27 -150 -118 -241 -227 -241zM882 2076c57 0 104 -47 104 -106s-47 -106 -104 -106c-58 0 -105 47 -105 106s47 106 105 106zM1236 2076c58 0 105 -47 105 -106
s-47 -106 -105 -106c-57 0 -104 47 -104 106s47 106 104 106z" />
    <glyph glyph-name="Omacron" unicode="&#x14c;" horiz-adv-x="1518" 
d="M928 1301c-336 0 -566 -309 -566 -689c0 -287 162 -470 415 -470c336 0 566 309 566 689c0 287 -162 470 -415 470zM777 -23c-362 0 -600 249 -600 629c0 472 315 860 751 860c362 0 600 -249 600 -629c0 -472 -315 -860 -751 -860zM1330 1750l-25 -116h-634l25 116h634z
" />
    <glyph glyph-name="Oogonek" unicode="&#x1ea;" horiz-adv-x="1518" 
d="M932 -406c-17 -12 -64 -21 -111 -21c-113 0 -188 60 -188 150s57 171 191 252v4c-16 -1 -31 -2 -47 -2c-362 0 -600 249 -600 629c0 472 315 860 751 860c362 0 600 -249 600 -629c0 -365 -200 -651 -475 -804c-99 -55 -264 -171 -264 -260c0 -47 35 -74 95 -74
c28 0 53 4 73 13zM1343 831c0 287 -162 470 -415 470c-336 0 -566 -309 -566 -689c0 -287 162 -470 415 -470c336 0 566 309 566 689z" />
    <glyph glyph-name="Oogonekmacron" unicode="&#x1ec;" horiz-adv-x="1518" 
d="M932 -406c-17 -12 -64 -21 -111 -21c-113 0 -188 60 -188 150s57 171 191 252v4c-16 -1 -31 -2 -47 -2c-362 0 -600 249 -600 629c0 472 315 860 751 860c362 0 600 -249 600 -629c0 -365 -200 -651 -475 -804c-99 -55 -264 -171 -264 -260c0 -47 35 -74 95 -74
c28 0 53 4 73 13zM1343 831c0 287 -162 470 -415 470c-336 0 -566 -309 -566 -689c0 -287 162 -470 415 -470c336 0 566 309 566 689zM1330 1750l-25 -116h-634l25 116h634z" />
    <glyph glyph-name="Ohorn" unicode="&#x1a0;" horiz-adv-x="1518" 
d="M1343 831c0 287 -162 470 -415 470c-336 0 -566 -309 -566 -689c0 -287 162 -470 415 -470c336 0 566 309 566 689zM1528 837c0 -472 -315 -860 -751 -860c-362 0 -600 249 -600 629c0 472 315 860 751 860c234 0 292 -83 430 -83c70 0 102 23 114 81l40 196h162
l-54 -262c-19 -93 -101 -153 -198 -153h-14v-4c78 -107 120 -249 120 -404z" />
    <glyph glyph-name="Ohorndotbelow" unicode="&#x1ee2;" horiz-adv-x="1518" 
d="M1343 831c0 287 -162 470 -415 470c-336 0 -566 -309 -566 -689c0 -287 162 -470 415 -470c336 0 566 309 566 689zM1528 837c0 -472 -315 -860 -751 -860c-362 0 -600 249 -600 629c0 472 315 860 751 860c234 0 292 -83 430 -83c70 0 102 23 114 81l40 196h162
l-54 -262c-19 -93 -101 -153 -198 -153h-14v-4c78 -107 120 -249 120 -404zM706 -433c-68 0 -124 56 -124 124s56 124 124 124s124 -56 124 -124s-56 -124 -124 -124z" />
    <glyph glyph-name="Ohornhookabove" unicode="&#x1ede;" horiz-adv-x="1518" 
d="M1343 831c0 287 -162 470 -415 470c-336 0 -566 -309 -566 -689c0 -287 162 -470 415 -470c336 0 566 309 566 689zM1528 837c0 -472 -315 -860 -751 -860c-362 0 -600 249 -600 629c0 472 315 860 751 860c234 0 292 -83 430 -83c70 0 102 23 114 81l40 196h162
l-54 -262c-19 -93 -101 -153 -198 -153h-14v-4c78 -107 120 -249 120 -404zM830 1763l24 96c19 7 61 12 89 12c122 0 198 -59 198 -151c0 -95 -74 -166 -203 -193l-42 83c67 12 112 48 112 96c0 41 -35 66 -93 66c-31 0 -58 -3 -85 -9z" />
    <glyph glyph-name="Ohorntilde" unicode="&#x1ee0;" horiz-adv-x="1518" 
d="M1343 831c0 287 -162 470 -415 470c-336 0 -566 -309 -566 -689c0 -287 162 -470 415 -470c336 0 566 309 566 689zM1528 837c0 -472 -315 -860 -751 -860c-362 0 -600 249 -600 629c0 472 315 860 751 860c234 0 292 -83 430 -83c70 0 102 23 114 81l40 196h162
l-54 -262c-19 -93 -101 -153 -198 -153h-14v-4c78 -107 120 -249 120 -404zM1116 1546c-132 0 -158 152 -237 152c-46 0 -89 -49 -105 -142h-118c29 160 118 255 232 255c141 0 162 -152 237 -152c42 0 83 47 103 143h118c-32 -156 -121 -256 -230 -256z" />
    <glyph glyph-name="Ohorngrave" unicode="&#x1edc;" horiz-adv-x="1518" 
d="M1343 831c0 287 -162 470 -415 470c-336 0 -566 -309 -566 -689c0 -287 162 -470 415 -470c336 0 566 309 566 689zM1528 837c0 -472 -315 -860 -751 -860c-362 0 -600 249 -600 629c0 472 315 860 751 860c234 0 292 -83 430 -83c70 0 102 23 114 81l40 196h162
l-54 -262c-19 -93 -101 -153 -198 -153h-14v-4c78 -107 120 -249 120 -404zM886 1560l-199 289h182l159 -289h-142z" />
    <glyph glyph-name="Ohornacute" unicode="&#x1eda;" horiz-adv-x="1518" 
d="M1343 831c0 287 -162 470 -415 470c-336 0 -566 -309 -566 -689c0 -287 162 -470 415 -470c336 0 566 309 566 689zM1528 837c0 -472 -315 -860 -751 -860c-362 0 -600 249 -600 629c0 472 315 860 751 860c234 0 292 -83 430 -83c70 0 102 23 114 81l40 196h162
l-54 -262c-19 -93 -101 -153 -198 -153h-14v-4c78 -107 120 -249 120 -404zM1054 1560h-162l281 289h202z" />
    <glyph glyph-name="P" unicode="P" horiz-adv-x="1224" 
d="M387 1443h507c230 0 414 -151 414 -390c0 -337 -254 -538 -585 -538h-349l-109 -515h-185zM537 1283l-129 -608h304c248 0 408 130 408 362c0 156 -112 246 -288 246h-295z" />
    <glyph glyph-name="Pdotaccent" unicode="&#x1e56;" horiz-adv-x="1224" 
d="M387 1443h507c230 0 414 -151 414 -390c0 -337 -254 -538 -585 -538h-349l-109 -515h-185zM537 1283l-129 -608h304c248 0 408 130 408 362c0 156 -112 246 -288 246h-295zM839 1611c-68 0 -124 56 -124 124s56 124 124 124s124 -56 124 -124s-56 -124 -124 -124z" />
    <glyph glyph-name="Pacute" unicode="&#x1e54;" horiz-adv-x="1224" 
d="M387 1443h507c230 0 414 -151 414 -390c0 -337 -254 -538 -585 -538h-349l-109 -515h-185zM537 1283l-129 -608h304c248 0 408 130 408 362c0 156 -112 246 -288 246h-295zM888 1560h-162l281 289h202z" />
    <glyph glyph-name="Q" unicode="Q" horiz-adv-x="1518" 
d="M1268 -163h-178l-91 176c-69 -23 -144 -36 -222 -36c-362 0 -600 249 -600 629c0 472 315 860 751 860c362 0 600 -249 600 -629c0 -325 -150 -611 -386 -757zM777 142c51 0 99 7 145 20l-130 251h178l95 -183c172 118 278 343 278 601c0 287 -162 470 -415 470
c-336 0 -566 -309 -566 -689c0 -287 162 -470 415 -470z" />
    <glyph glyph-name="R" unicode="R" horiz-adv-x="1270" 
d="M420 731h347c212 0 360 129 360 313c0 146 -94 239 -245 239h-345zM387 1443h505c272 0 425 -151 425 -381c0 -224 -145 -416 -389 -466l202 -596h-190l-190 571h-364l-121 -571h-185z" />
    <glyph glyph-name="Rcaron" unicode="&#x158;" horiz-adv-x="1270" 
d="M888 1560h-134l-220 298h154l141 -192h6l221 192h178zM420 731h347c212 0 360 129 360 313c0 146 -94 239 -245 239h-345zM387 1443h505c272 0 425 -151 425 -381c0 -224 -145 -416 -389 -466l202 -596h-190l-190 571h-364l-121 -571h-185z" />
    <glyph glyph-name="Rlinebelow" unicode="&#x1e5e;" horiz-adv-x="1270" 
d="M209 -367l25 116h634l-25 -116h-634zM420 731h347c212 0 360 129 360 313c0 146 -94 239 -245 239h-345zM387 1443h505c272 0 425 -151 425 -381c0 -224 -145 -416 -389 -466l202 -596h-190l-190 571h-364l-121 -571h-185z" />
    <glyph glyph-name="Rdotbelowmacron" unicode="&#x1e5c;" horiz-adv-x="1270" 
d="M1174 1750l-25 -116h-634l25 116h634zM534 -185c68 0 124 -56 124 -124s-56 -124 -124 -124s-124 56 -124 124s56 124 124 124zM420 731h347c212 0 360 129 360 313c0 146 -94 239 -245 239h-345zM387 1443h505c272 0 425 -151 425 -381c0 -224 -145 -416 -389 -466
l202 -596h-190l-190 571h-364l-121 -571h-185z" />
    <glyph glyph-name="Rdblgrave" unicode="&#x210;" horiz-adv-x="1270" 
d="M1062 1560h-142l-199 289h182zM742 1560h-142l-199 289h182zM420 731h347c212 0 360 129 360 313c0 146 -94 239 -245 239h-345zM387 1443h505c272 0 425 -151 425 -381c0 -224 -145 -416 -389 -466l202 -596h-190l-190 571h-364l-121 -571h-185z" />
    <glyph glyph-name="Rinvertedbreve" unicode="&#x212;" horiz-adv-x="1270" 
d="M1133 1542h-126c4 10 8 29 8 48c0 93 -62 150 -159 150c-114 0 -212 -76 -239 -198h-126c41 190 180 306 384 306c150 0 268 -95 268 -236c0 -28 -4 -53 -10 -70zM420 731h347c212 0 360 129 360 313c0 146 -94 239 -245 239h-345zM387 1443h505c272 0 425 -151 425 -381
c0 -224 -145 -416 -389 -466l202 -596h-190l-190 571h-364l-121 -571h-185z" />
    <glyph glyph-name="Racute" unicode="&#x154;" horiz-adv-x="1270" 
d="M1219 1849l-321 -289h-162l281 289h202zM420 731h347c212 0 360 129 360 313c0 146 -94 239 -245 239h-345zM387 1443h505c272 0 425 -151 425 -381c0 -224 -145 -416 -389 -466l202 -596h-190l-190 571h-364l-121 -571h-185z" />
    <glyph glyph-name="Rdotbelow" unicode="&#x1e5a;" horiz-adv-x="1270" 
d="M534 -185c68 0 124 -56 124 -124s-56 -124 -124 -124s-124 56 -124 124s56 124 124 124zM420 731h347c212 0 360 129 360 313c0 146 -94 239 -245 239h-345zM387 1443h505c272 0 425 -151 425 -381c0 -224 -145 -416 -389 -466l202 -596h-190l-190 571h-364l-121 -571
h-185z" />
    <glyph glyph-name="Rdotaccent" unicode="&#x1e58;" horiz-adv-x="1270" 
d="M849 1611c-68 0 -124 56 -124 124s56 124 124 124s124 -56 124 -124s-56 -124 -124 -124zM420 731h347c212 0 360 129 360 313c0 146 -94 239 -245 239h-345zM387 1443h505c272 0 425 -151 425 -381c0 -224 -145 -416 -389 -466l202 -596h-190l-190 571h-364l-121 -571
h-185z" />
    <glyph glyph-name="Rcommaaccent" unicode="&#x156;" horiz-adv-x="1270" 
d="M320 -476l182 359h164l-212 -359h-134zM420 731h347c212 0 360 129 360 313c0 146 -94 239 -245 239h-345zM387 1443h505c272 0 425 -151 425 -381c0 -224 -145 -416 -389 -466l202 -596h-190l-190 571h-364l-121 -571h-185z" />
    <glyph glyph-name="S" unicode="S" horiz-adv-x="1227" 
d="M100 424h181c20 -168 162 -284 381 -284c185 0 328 87 328 245c0 130 -77 196 -255 252l-96 30c-239 75 -356 190 -356 385c0 247 205 414 499 414c293 0 507 -159 507 -418h-180c-7 150 -128 255 -329 255c-207 0 -311 -116 -311 -237c0 -111 77 -180 252 -235l96 -30
c240 -75 362 -195 362 -378c0 -226 -177 -446 -519 -446c-300 0 -550 167 -560 447z" />
    <glyph glyph-name="Scaron" unicode="&#x160;" horiz-adv-x="1227" 
d="M100 424h181c20 -168 162 -284 381 -284c185 0 328 87 328 245c0 130 -77 196 -255 252l-96 30c-239 75 -356 190 -356 385c0 247 205 414 499 414c293 0 507 -159 507 -418h-180c-7 150 -128 255 -329 255c-207 0 -311 -116 -311 -237c0 -111 77 -180 252 -235l96 -30
c240 -75 362 -195 362 -378c0 -226 -177 -446 -519 -446c-300 0 -550 167 -560 447zM800 1560l-220 298h154l141 -192h6l221 192h178l-346 -298h-134z" />
    <glyph glyph-name="Scedilla" unicode="&#x15e;" horiz-adv-x="1227" 
d="M721 831l96 -30c240 -75 362 -195 362 -378c0 -217 -163 -429 -480 -445l-67 -118c119 4 189 -50 189 -145c0 -119 -98 -198 -246 -198c-59 0 -132 12 -177 29l24 114c43 -16 91 -25 139 -25c79 0 125 25 125 69c0 45 -47 65 -155 65h-59l16 72l77 142
c-256 31 -456 191 -465 441h181c20 -168 162 -284 381 -284c185 0 328 87 328 245c0 130 -77 196 -255 252l-96 30c-239 75 -356 190 -356 385c0 247 205 414 499 414c293 0 507 -159 507 -418h-180c-7 150 -128 255 -329 255c-207 0 -311 -116 -311 -237
c0 -111 77 -180 252 -235z" />
    <glyph glyph-name="Sdotaccent" unicode="&#x1e60;" horiz-adv-x="1227" 
d="M100 424h181c20 -168 162 -284 381 -284c185 0 328 87 328 245c0 130 -77 196 -255 252l-96 30c-239 75 -356 190 -356 385c0 247 205 414 499 414c293 0 507 -159 507 -418h-180c-7 150 -128 255 -329 255c-207 0 -311 -116 -311 -237c0 -111 77 -180 252 -235l96 -30
c240 -75 362 -195 362 -378c0 -226 -177 -446 -519 -446c-300 0 -550 167 -560 447zM895 1611c-68 0 -124 56 -124 124s56 124 124 124s124 -56 124 -124s-56 -124 -124 -124z" />
    <glyph glyph-name="Sdotbelow" unicode="&#x1e62;" horiz-adv-x="1227" 
d="M100 424h181c20 -168 162 -284 381 -284c185 0 328 87 328 245c0 130 -77 196 -255 252l-96 30c-239 75 -356 190 -356 385c0 247 205 414 499 414c293 0 507 -159 507 -418h-180c-7 150 -128 255 -329 255c-207 0 -311 -116 -311 -237c0 -111 77 -180 252 -235l96 -30
c240 -75 362 -195 362 -378c0 -226 -177 -446 -519 -446c-300 0 -550 167 -560 447zM571 -433c-68 0 -124 56 -124 124s56 124 124 124s124 -56 124 -124s-56 -124 -124 -124z" />
    <glyph glyph-name="Scommaaccent" unicode="&#x218;" horiz-adv-x="1227" 
d="M100 424h181c20 -168 162 -284 381 -284c185 0 328 87 328 245c0 130 -77 196 -255 252l-96 30c-239 75 -356 190 -356 385c0 247 205 414 499 414c293 0 507 -159 507 -418h-180c-7 150 -128 255 -329 255c-207 0 -311 -116 -311 -237c0 -111 77 -180 252 -235l96 -30
c240 -75 362 -195 362 -378c0 -226 -177 -446 -519 -446c-300 0 -550 167 -560 447zM491 -476h-134l182 359h164z" />
    <glyph glyph-name="Sdotbelowdotaccent" unicode="&#x1e68;" horiz-adv-x="1227" 
d="M100 424h181c20 -168 162 -284 381 -284c185 0 328 87 328 245c0 130 -77 196 -255 252l-96 30c-239 75 -356 190 -356 385c0 247 205 414 499 414c293 0 507 -159 507 -418h-180c-7 150 -128 255 -329 255c-207 0 -311 -116 -311 -237c0 -111 77 -180 252 -235l96 -30
c240 -75 362 -195 362 -378c0 -226 -177 -446 -519 -446c-300 0 -550 167 -560 447zM571 -433c-68 0 -124 56 -124 124s56 124 124 124s124 -56 124 -124s-56 -124 -124 -124zM895 1611c-68 0 -124 56 -124 124s56 124 124 124s124 -56 124 -124s-56 -124 -124 -124z" />
    <glyph glyph-name="Scarondotaccent" unicode="&#x1e66;" horiz-adv-x="1227" 
d="M100 424h181c20 -168 162 -284 381 -284c185 0 328 87 328 245c0 130 -77 196 -255 252l-96 30c-239 75 -356 190 -356 385c0 247 205 414 499 414c293 0 507 -159 507 -418h-180c-7 150 -128 255 -329 255c-207 0 -311 -116 -311 -237c0 -111 77 -180 252 -235l96 -30
c240 -75 362 -195 362 -378c0 -226 -177 -446 -519 -446c-300 0 -550 167 -560 447zM776 1540l-227 258h161l145 -168h6l217 168h187l-337 -258h-152zM912 1834c-61 0 -109 49 -109 110s48 109 109 109s109 -48 109 -109s-48 -110 -109 -110z" />
    <glyph glyph-name="Scircumflex" unicode="&#x15c;" horiz-adv-x="1227" 
d="M100 424h181c20 -168 162 -284 381 -284c185 0 328 87 328 245c0 130 -77 196 -255 252l-96 30c-239 75 -356 190 -356 385c0 247 205 414 499 414c293 0 507 -159 507 -418h-180c-7 150 -128 255 -329 255c-207 0 -311 -116 -311 -237c0 -111 77 -180 252 -235l96 -30
c240 -75 362 -195 362 -378c0 -226 -177 -446 -519 -446c-300 0 -550 167 -560 447zM980 1858l220 -298h-154l-140 192h-6l-222 -192h-178l346 298h134z" />
    <glyph glyph-name="Sacutedotaccent" unicode="&#x1e64;" horiz-adv-x="1227" 
d="M100 424h181c20 -168 162 -284 381 -284c185 0 328 87 328 245c0 130 -77 196 -255 252l-96 30c-239 75 -356 190 -356 385c0 247 205 414 499 414c293 0 507 -159 507 -418h-180c-7 150 -128 255 -329 255c-207 0 -311 -116 -311 -237c0 -111 77 -180 252 -235l96 -30
c240 -75 362 -195 362 -378c0 -226 -177 -446 -519 -446c-300 0 -550 167 -560 447zM1057 1560h-162l281 289h202zM729 1569c-68 0 -124 56 -124 124s56 124 124 124s124 -56 124 -124s-56 -124 -124 -124z" />
    <glyph glyph-name="Sacute" unicode="&#x15a;" horiz-adv-x="1227" 
d="M100 424h181c20 -168 162 -284 381 -284c185 0 328 87 328 245c0 130 -77 196 -255 252l-96 30c-239 75 -356 190 -356 385c0 247 205 414 499 414c293 0 507 -159 507 -418h-180c-7 150 -128 255 -329 255c-207 0 -311 -116 -311 -237c0 -111 77 -180 252 -235l96 -30
c240 -75 362 -195 362 -378c0 -226 -177 -446 -519 -446c-300 0 -550 167 -560 447zM944 1560h-162l281 289h202z" />
    <glyph glyph-name="germandbls.uc" unicode="&#x1e9e;" horiz-adv-x="2453" 
d="M100 424h181c20 -168 162 -284 381 -284c185 0 328 87 328 245c0 130 -77 196 -255 252l-96 30c-239 75 -356 190 -356 385c0 247 205 414 499 414c293 0 507 -159 507 -418h-180c-7 150 -128 255 -329 255c-207 0 -311 -116 -311 -237c0 -111 77 -180 252 -235l96 -30
c240 -75 362 -195 362 -378c0 -226 -177 -446 -519 -446c-300 0 -550 167 -560 447zM1327 424h181c20 -168 162 -284 381 -284c185 0 328 87 328 245c0 130 -77 196 -255 252l-96 30c-239 75 -356 190 -356 385c0 247 205 414 499 414c293 0 507 -159 507 -418h-180
c-7 150 -128 255 -329 255c-207 0 -311 -116 -311 -237c0 -111 77 -180 252 -235l96 -30c240 -75 362 -195 362 -378c0 -226 -177 -446 -519 -446c-300 0 -550 167 -560 447z" />
    <glyph glyph-name="T" unicode="T" horiz-adv-x="1211" 
d="M638 0h-184l272 1281h-463l34 162h1110l-34 -162h-463z" />
    <glyph glyph-name="Tcircumflexbelow" unicode="&#x1e70;" horiz-adv-x="1211" 
d="M638 0h-184l272 1281h-463l34 162h1110l-34 -162h-463zM570 -165l220 -298h-154l-140 192h-6l-222 -192h-178l346 298h134z" />
    <glyph glyph-name="Tdotbelow" unicode="&#x1e6c;" horiz-adv-x="1211" 
d="M638 0h-184l272 1281h-463l34 162h1110l-34 -162h-463zM481 -433c-68 0 -124 56 -124 124s56 124 124 124s124 -56 124 -124s-56 -124 -124 -124z" />
    <glyph glyph-name="Tcommaaccent" unicode="&#x21a;" horiz-adv-x="1211" 
d="M638 0h-184l272 1281h-463l34 162h1110l-34 -162h-463zM401 -476h-134l182 359h164z" />
    <glyph glyph-name="Tdotaccent" unicode="&#x1e6a;" horiz-adv-x="1211" 
d="M638 0h-184l272 1281h-463l34 162h1110l-34 -162h-463zM914 1611c-68 0 -124 56 -124 124s56 124 124 124s124 -56 124 -124s-56 -124 -124 -124z" />
    <glyph glyph-name="Tcedilla" unicode="&#x162;" horiz-adv-x="1211" 
d="M297 1443h1110l-34 -162h-463l-272 -1281l-80 -140c119 4 189 -50 189 -145c0 -119 -98 -198 -246 -198c-59 0 -132 12 -177 29l24 114c43 -16 91 -25 139 -25c79 0 125 25 125 69c0 45 -47 65 -155 65h-59l16 72l87 159h-47l272 1281h-463z" />
    <glyph glyph-name="Tlinebelow" unicode="&#x1e6e;" horiz-adv-x="1211" 
d="M638 0h-184l272 1281h-463l34 162h1110l-34 -162h-463zM815 -251l-25 -116h-634l25 116h634z" />
    <glyph glyph-name="Tcaron" unicode="&#x164;" horiz-adv-x="1211" 
d="M638 0h-184l272 1281h-463l34 162h1110l-34 -162h-463zM819 1560l-220 298h154l141 -192h6l221 192h178l-346 -298h-134z" />
    <glyph glyph-name="Tbar" unicode="&#x166;" horiz-adv-x="1211" 
d="M1373 1281h-463l-101 -477h367l-34 -162h-368l-136 -642h-184l136 642h-336l34 162h337l101 477h-463l34 162h1110z" />
    <glyph glyph-name="U" unicode="U" horiz-adv-x="1430" 
d="M691 -23c-327 0 -501 198 -503 448c-1 42 4 86 13 130l186 888h184l-184 -876c-10 -47 -14 -92 -13 -133c7 -177 119 -291 349 -291c214 0 381 134 429 359l201 941h184l-208 -976c-66 -308 -277 -490 -638 -490z" />
    <glyph glyph-name="Ugrave" unicode="&#xd9;" horiz-adv-x="1430" 
d="M691 -23c-327 0 -501 198 -503 448c-1 42 4 86 13 130l186 888h184l-184 -876c-10 -47 -14 -92 -13 -133c7 -177 119 -291 349 -291c214 0 381 134 429 359l201 941h184l-208 -976c-66 -308 -277 -490 -638 -490zM886 1560l-199 289h182l159 -289h-142z" />
    <glyph glyph-name="Udblgrave" unicode="&#x214;" horiz-adv-x="1430" 
d="M691 -23c-327 0 -501 198 -503 448c-1 42 4 86 13 130l186 888h184l-184 -876c-10 -47 -14 -92 -13 -133c7 -177 119 -291 349 -291c214 0 381 134 429 359l201 941h184l-208 -976c-66 -308 -277 -490 -638 -490zM756 1560l-199 289h182l159 -289h-142zM1076 1560
l-199 289h182l159 -289h-142z" />
    <glyph glyph-name="Uacute" unicode="&#xda;" horiz-adv-x="1430" 
d="M691 -23c-327 0 -501 198 -503 448c-1 42 4 86 13 130l186 888h184l-184 -876c-10 -47 -14 -92 -13 -133c7 -177 119 -291 349 -291c214 0 381 134 429 359l201 941h184l-208 -976c-66 -308 -277 -490 -638 -490zM1054 1560h-162l281 289h202z" />
    <glyph glyph-name="Uhungarumlaut" unicode="&#x170;" horiz-adv-x="1430" 
d="M691 -23c-327 0 -501 198 -503 448c-1 42 4 86 13 130l186 888h184l-184 -876c-10 -47 -14 -92 -13 -133c7 -177 119 -291 349 -291c214 0 381 134 429 359l201 941h184l-208 -976c-66 -308 -277 -490 -638 -490zM1212 1560h-154l281 289h194zM892 1560h-154l281 289h194
z" />
    <glyph glyph-name="Ucircumflex" unicode="&#xdb;" horiz-adv-x="1430" 
d="M691 -23c-327 0 -501 198 -503 448c-1 42 4 86 13 130l186 888h184l-184 -876c-10 -47 -14 -92 -13 -133c7 -177 119 -291 349 -291c214 0 381 134 429 359l201 941h184l-208 -976c-66 -308 -277 -490 -638 -490zM1090 1858l220 -298h-154l-140 192h-6l-222 -192h-178
l346 298h134z" />
    <glyph glyph-name="Ucaron" unicode="&#x1d3;" horiz-adv-x="1430" 
d="M691 -23c-327 0 -501 198 -503 448c-1 42 4 86 13 130l186 888h184l-184 -876c-10 -47 -14 -92 -13 -133c7 -177 119 -291 349 -291c214 0 381 134 429 359l201 941h184l-208 -976c-66 -308 -277 -490 -638 -490zM910 1560l-220 298h154l141 -192h6l221 192h178
l-346 -298h-134z" />
    <glyph glyph-name="Ucircumflexbelow" unicode="&#x1e76;" horiz-adv-x="1430" 
d="M691 -23c-327 0 -501 198 -503 448c-1 42 4 86 13 130l186 888h184l-184 -876c-10 -47 -14 -92 -13 -133c7 -177 119 -291 349 -291c214 0 381 134 429 359l201 941h184l-208 -976c-66 -308 -277 -490 -638 -490zM675 -165l220 -298h-154l-140 192h-6l-222 -192h-178
l346 298h134z" />
    <glyph glyph-name="Udieresis" unicode="&#xdc;" horiz-adv-x="1430" 
d="M691 -23c-327 0 -501 198 -503 448c-1 42 4 86 13 130l186 888h184l-184 -876c-10 -47 -14 -92 -13 -133c7 -177 119 -291 349 -291c214 0 381 134 429 359l201 941h184l-208 -976c-66 -308 -277 -490 -638 -490zM817 1618c-60 0 -110 49 -110 110s50 110 110 110
s110 -49 110 -110s-50 -110 -110 -110zM1189 1618c-60 0 -110 49 -110 110s50 110 110 110s110 -49 110 -110s-50 -110 -110 -110z" />
    <glyph glyph-name="Udieresisgrave" unicode="&#x1db;" horiz-adv-x="1430" 
d="M691 -23c-327 0 -501 198 -503 448c-1 42 4 86 13 130l186 888h184l-184 -876c-10 -47 -14 -92 -13 -133c7 -177 119 -291 349 -291c214 0 381 134 429 359l201 941h184l-208 -976c-66 -308 -277 -490 -638 -490zM1116 1830h-134l-146 216h158zM817 1554
c-58 0 -105 47 -105 106s47 106 105 106c57 0 104 -47 104 -106s-47 -106 -104 -106zM1171 1554c-57 0 -104 47 -104 106s47 106 104 106c58 0 105 -47 105 -106s-47 -106 -105 -106z" />
    <glyph glyph-name="Udieresisacute" unicode="&#x1d7;" horiz-adv-x="1430" 
d="M691 -23c-327 0 -501 198 -503 448c-1 42 4 86 13 130l186 888h184l-184 -876c-10 -47 -14 -92 -13 -133c7 -177 119 -291 349 -291c214 0 381 134 429 359l201 941h184l-208 -976c-66 -308 -277 -490 -638 -490zM934 1830l214 216h178l-238 -216h-154zM817 1554
c-58 0 -105 47 -105 106s47 106 105 106c57 0 104 -47 104 -106s-47 -106 -104 -106zM1171 1554c-57 0 -104 47 -104 106s47 106 104 106c58 0 105 -47 105 -106s-47 -106 -105 -106z" />
    <glyph glyph-name="Udieresismacron" unicode="&#x1d5;" horiz-adv-x="1430" 
d="M691 -23c-327 0 -501 198 -503 448c-1 42 4 86 13 130l186 888h184l-184 -876c-10 -47 -14 -92 -13 -133c7 -177 119 -291 349 -291c214 0 381 134 429 359l201 941h184l-208 -976c-66 -308 -277 -490 -638 -490zM817 1766c57 0 104 -47 104 -106s-47 -106 -104 -106
c-58 0 -105 47 -105 106s47 106 105 106zM1388 2025l-25 -116h-634l25 116h634zM1171 1766c58 0 105 -47 105 -106s-47 -106 -105 -106c-57 0 -104 47 -104 106s47 106 104 106z" />
    <glyph glyph-name="Udieresiscaron" unicode="&#x1d9;" horiz-adv-x="1430" 
d="M691 -23c-327 0 -501 198 -503 448c-1 42 4 86 13 130l186 888h184l-184 -876c-10 -47 -14 -92 -13 -133c7 -177 119 -291 349 -291c214 0 381 134 429 359l201 941h184l-208 -976c-66 -308 -277 -490 -638 -490zM948 1816l-215 232h162l133 -144h6l193 144h186
l-313 -232h-152zM817 1766c57 0 104 -47 104 -106s-47 -106 -104 -106c-58 0 -105 47 -105 106s47 106 105 106zM1171 1766c58 0 105 -47 105 -106s-47 -106 -105 -106c-57 0 -104 47 -104 106s47 106 104 106z" />
    <glyph glyph-name="Udieresisbelow" unicode="&#x1e72;" horiz-adv-x="1430" 
d="M691 -23c-327 0 -501 198 -503 448c-1 42 4 86 13 130l186 888h184l-184 -876c-10 -47 -14 -92 -13 -133c7 -177 119 -291 349 -291c214 0 381 134 429 359l201 941h184l-208 -976c-66 -308 -277 -490 -638 -490zM403 -419c-60 0 -110 49 -110 110s50 110 110 110
s110 -49 110 -110s-50 -110 -110 -110zM775 -419c-60 0 -110 49 -110 110s50 110 110 110s110 -49 110 -110s-50 -110 -110 -110z" />
    <glyph glyph-name="Utildebelow" unicode="&#x1e74;" horiz-adv-x="1430" 
d="M691 -23c-327 0 -501 198 -503 448c-1 42 4 86 13 130l186 888h184l-184 -876c-10 -47 -14 -92 -13 -133c7 -177 119 -291 349 -291c214 0 381 134 429 359l201 941h184l-208 -976c-66 -308 -277 -490 -638 -490zM709 -442c-132 0 -158 152 -237 152
c-46 0 -89 -49 -105 -142h-118c29 160 118 255 232 255c141 0 162 -152 237 -152c42 0 83 47 103 143h118c-32 -156 -121 -256 -230 -256z" />
    <glyph glyph-name="Uhookabove" unicode="&#x1ee6;" horiz-adv-x="1430" 
d="M691 -23c-327 0 -501 198 -503 448c-1 42 4 86 13 130l186 888h184l-184 -876c-10 -47 -14 -92 -13 -133c7 -177 119 -291 349 -291c214 0 381 134 429 359l201 941h184l-208 -976c-66 -308 -277 -490 -638 -490zM830 1763l24 96c19 7 61 12 89 12
c122 0 198 -59 198 -151c0 -95 -74 -166 -203 -193l-42 83c67 12 112 48 112 96c0 41 -35 66 -93 66c-31 0 -58 -3 -85 -9z" />
    <glyph glyph-name="Ubreve" unicode="&#x16c;" horiz-adv-x="1430" 
d="M691 -23c-327 0 -501 198 -503 448c-1 42 4 86 13 130l186 888h184l-184 -876c-10 -47 -14 -92 -13 -133c7 -177 119 -291 349 -291c214 0 381 134 429 359l201 941h184l-208 -976c-66 -308 -277 -490 -638 -490zM712 1848h126c-4 -14 -8 -33 -8 -52
c0 -93 62 -146 159 -146c114 0 212 72 239 198h126c-41 -194 -180 -306 -384 -306c-150 0 -268 91 -268 232c0 28 4 53 10 74z" />
    <glyph glyph-name="Uinvertedbreve" unicode="&#x216;" horiz-adv-x="1430" 
d="M691 -23c-327 0 -501 198 -503 448c-1 42 4 86 13 130l186 888h184l-184 -876c-10 -47 -14 -92 -13 -133c7 -177 119 -291 349 -291c214 0 381 134 429 359l201 941h184l-208 -976c-66 -308 -277 -490 -638 -490zM1289 1542h-126c4 10 8 29 8 48c0 93 -62 150 -159 150
c-114 0 -212 -76 -239 -198h-126c41 190 180 306 384 306c150 0 268 -95 268 -236c0 -28 -4 -53 -10 -70z" />
    <glyph glyph-name="Utildeacute" unicode="&#x1e78;" horiz-adv-x="1430" 
d="M691 -23c-327 0 -501 198 -503 448c-1 42 4 86 13 130l186 888h184l-184 -876c-10 -47 -14 -92 -13 -133c7 -177 119 -291 349 -291c214 0 381 134 429 359l201 941h184l-208 -976c-66 -308 -277 -490 -638 -490zM963 1850l210 196h178l-234 -196h-154zM1109 1541
c-135 0 -164 149 -241 149c-46 0 -86 -48 -99 -130h-116c28 154 115 240 229 240c133 0 161 -149 240 -149c44 0 80 46 98 131h116c-27 -150 -118 -241 -227 -241z" />
    <glyph glyph-name="Udotbelow" unicode="&#x1ee4;" horiz-adv-x="1430" 
d="M691 -23c-327 0 -501 198 -503 448c-1 42 4 86 13 130l186 888h184l-184 -876c-10 -47 -14 -92 -13 -133c7 -177 119 -291 349 -291c214 0 381 134 429 359l201 941h184l-208 -976c-66 -308 -277 -490 -638 -490zM586 -433c-68 0 -124 56 -124 124s56 124 124 124
s124 -56 124 -124s-56 -124 -124 -124z" />
    <glyph glyph-name="Utilde" unicode="&#x168;" horiz-adv-x="1430" 
d="M691 -23c-327 0 -501 198 -503 448c-1 42 4 86 13 130l186 888h184l-184 -876c-10 -47 -14 -92 -13 -133c7 -177 119 -291 349 -291c214 0 381 134 429 359l201 941h184l-208 -976c-66 -308 -277 -490 -638 -490zM1116 1546c-132 0 -158 152 -237 152
c-46 0 -89 -49 -105 -142h-118c29 160 118 255 232 255c141 0 162 -152 237 -152c42 0 83 47 103 143h118c-32 -156 -121 -256 -230 -256z" />
    <glyph glyph-name="Umacron" unicode="&#x16a;" horiz-adv-x="1430" 
d="M691 -23c-327 0 -501 198 -503 448c-1 42 4 86 13 130l186 888h184l-184 -876c-10 -47 -14 -92 -13 -133c7 -177 119 -291 349 -291c214 0 381 134 429 359l201 941h184l-208 -976c-66 -308 -277 -490 -638 -490zM1330 1750l-25 -116h-634l25 116h634z" />
    <glyph glyph-name="Umacrondieresis" unicode="&#x1e7a;" horiz-adv-x="1430" 
d="M691 -23c-327 0 -501 198 -503 448c-1 42 4 86 13 130l186 888h184l-184 -876c-10 -47 -14 -92 -13 -133c7 -177 119 -291 349 -291c214 0 381 134 429 359l201 941h184l-208 -976c-66 -308 -277 -490 -638 -490zM1296 1592h-634l25 116h634zM870 1834
c-58 0 -105 47 -105 106s47 106 105 106c57 0 104 -47 104 -106s-47 -106 -104 -106zM1224 1834c-57 0 -104 47 -104 106s47 106 104 106c58 0 105 -47 105 -106s-47 -106 -105 -106z" />
    <glyph glyph-name="Uring" unicode="&#x16e;" horiz-adv-x="1430" 
d="M691 -23c-327 0 -501 198 -503 448c-1 42 4 86 13 130l186 888h184l-184 -876c-10 -47 -14 -92 -13 -133c7 -177 119 -291 349 -291c214 0 381 134 429 359l201 941h184l-208 -976c-66 -308 -277 -490 -638 -490zM1002 1555c-102 0 -187 68 -187 182
c0 118 85 200 195 200c104 0 189 -68 188 -182c-1 -118 -84 -200 -196 -200zM1002 1641c64 0 107 42 106 111c-1 61 -40 99 -98 99c-62 0 -105 -42 -105 -111c0 -61 41 -99 97 -99z" />
    <glyph glyph-name="Uogonek" unicode="&#x172;" horiz-adv-x="1430" 
d="M876 -406c-17 -12 -64 -21 -111 -21c-113 0 -188 60 -188 150s57 172 191 254v3c-11 -2 -47 -4 -77 -4c-327 0 -501 198 -503 448c-1 42 4 86 13 130l186 889h184l-184 -877c-10 -47 -14 -92 -13 -133c7 -177 119 -291 349 -291c214 0 381 134 429 359l201 942h184
l-208 -977c-44 -207 -159 -346 -331 -433c-174 -88 -265 -191 -265 -260c0 -47 35 -74 95 -74c28 0 53 4 73 13z" />
    <glyph glyph-name="Uhorn" unicode="&#x1af;" horiz-adv-x="1578" 
d="M691 -24c-327 0 -501 198 -503 448c-1 42 4 86 13 130l186 889h184l-184 -877c-10 -47 -14 -92 -13 -133c7 -177 119 -291 349 -291c214 0 381 134 429 359l201 942h187c63 0 97 28 110 88l33 159h159l-40 -189c-25 -116 -115 -186 -241 -186l-51 1l-181 -850
c-66 -308 -277 -490 -638 -490z" />
    <glyph glyph-name="Uhorngrave" unicode="&#x1eea;" horiz-adv-x="1578" 
d="M691 -24c-327 0 -501 198 -503 448c-1 42 4 86 13 130l186 889h184l-184 -877c-10 -47 -14 -92 -13 -133c7 -177 119 -291 349 -291c214 0 381 134 429 359l201 942h187c63 0 97 28 110 88l33 159h159l-40 -189c-25 -116 -115 -186 -241 -186l-51 1l-181 -850
c-66 -308 -277 -490 -638 -490zM901 1560l-199 289h182l159 -289h-142z" />
    <glyph glyph-name="Uhornacute" unicode="&#x1ee8;" horiz-adv-x="1578" 
d="M691 -24c-327 0 -501 198 -503 448c-1 42 4 86 13 130l186 889h184l-184 -877c-10 -47 -14 -92 -13 -133c7 -177 119 -291 349 -291c214 0 381 134 429 359l201 942h187c63 0 97 28 110 88l33 159h159l-40 -189c-25 -116 -115 -186 -241 -186l-51 1l-181 -850
c-66 -308 -277 -490 -638 -490zM1069 1560h-162l281 289h202z" />
    <glyph glyph-name="Uhorndotbelow" unicode="&#x1ef0;" horiz-adv-x="1578" 
d="M691 -24c-327 0 -501 198 -503 448c-1 42 4 86 13 130l186 889h184l-184 -877c-10 -47 -14 -92 -13 -133c7 -177 119 -291 349 -291c214 0 381 134 429 359l201 942h187c63 0 97 28 110 88l33 159h159l-40 -189c-25 -116 -115 -186 -241 -186l-51 1l-181 -850
c-66 -308 -277 -490 -638 -490zM584 -433c-68 0 -124 56 -124 124s56 124 124 124s124 -56 124 -124s-56 -124 -124 -124z" />
    <glyph glyph-name="Uhornhookabove" unicode="&#x1eec;" horiz-adv-x="1578" 
d="M691 -24c-327 0 -501 198 -503 448c-1 42 4 86 13 130l186 889h184l-184 -877c-10 -47 -14 -92 -13 -133c7 -177 119 -291 349 -291c214 0 381 134 429 359l201 942h187c63 0 97 28 110 88l33 159h159l-40 -189c-25 -116 -115 -186 -241 -186l-51 1l-181 -850
c-66 -308 -277 -490 -638 -490zM845 1763l24 96c19 7 61 12 89 12c122 0 198 -59 198 -151c0 -95 -74 -166 -203 -193l-42 83c67 12 112 48 112 96c0 41 -35 66 -93 66c-31 0 -58 -3 -85 -9z" />
    <glyph glyph-name="Uhorntilde" unicode="&#x1eee;" horiz-adv-x="1578" 
d="M691 -24c-327 0 -501 198 -503 448c-1 42 4 86 13 130l186 889h184l-184 -877c-10 -47 -14 -92 -13 -133c7 -177 119 -291 349 -291c214 0 381 134 429 359l201 942h187c63 0 97 28 110 88l33 159h159l-40 -189c-25 -116 -115 -186 -241 -186l-51 1l-181 -850
c-66 -308 -277 -490 -638 -490zM1131 1546c-132 0 -158 152 -237 152c-46 0 -89 -49 -105 -142h-118c29 160 118 255 232 255c141 0 162 -152 237 -152c42 0 83 47 103 143h118c-32 -156 -121 -256 -230 -256z" />
    <glyph glyph-name="V" unicode="V" horiz-adv-x="1293" 
d="M678 0h-182l-223 1443h174l182 -1206h4l679 1206h202z" />
    <glyph glyph-name="Vtilde" unicode="&#x1e7c;" horiz-adv-x="1293" 
d="M678 0h-182l-223 1443h174l182 -1206h4l679 1206h202zM1059 1546c-132 0 -158 152 -237 152c-46 0 -89 -49 -105 -142h-118c29 160 118 255 232 255c141 0 162 -152 237 -152c42 0 83 47 103 143h118c-32 -156 -121 -256 -230 -256z" />
    <glyph glyph-name="Vdotbelow" unicode="&#x1e7e;" horiz-adv-x="1293" 
d="M678 0h-182l-223 1443h174l182 -1206h4l679 1206h202zM523 -433c-68 0 -124 56 -124 124s56 124 124 124s124 -56 124 -124s-56 -124 -124 -124z" />
    <glyph glyph-name="W" unicode="W" horiz-adv-x="1896" 
d="M1125 1147l-567 -1147h-177l-87 1443h169l58 -1167h4l572 1167h170l96 -1165h4l539 1165h190l-690 -1443h-177l-100 1147h-4z" />
    <glyph glyph-name="Wgrave" unicode="&#x1e80;" horiz-adv-x="1896" 
d="M1125 1147l-567 -1147h-177l-87 1443h169l58 -1167h4l572 1167h170l96 -1165h4l539 1165h190l-690 -1443h-177l-100 1147h-4zM1121 1560l-199 289h182l159 -289h-142z" />
    <glyph glyph-name="Wacute" unicode="&#x1e82;" horiz-adv-x="1896" 
d="M1125 1147l-567 -1147h-177l-87 1443h169l58 -1167h4l572 1167h170l96 -1165h4l539 1165h190l-690 -1443h-177l-100 1147h-4zM1289 1560h-162l281 289h202z" />
    <glyph glyph-name="Wdotaccent" unicode="&#x1e86;" horiz-adv-x="1896" 
d="M1125 1147l-567 -1147h-177l-87 1443h169l58 -1167h4l572 1167h170l96 -1165h4l539 1165h190l-690 -1443h-177l-100 1147h-4zM1240 1611c-68 0 -124 56 -124 124s56 124 124 124s124 -56 124 -124s-56 -124 -124 -124z" />
    <glyph glyph-name="Wdotbelow" unicode="&#x1e88;" horiz-adv-x="1896" 
d="M1125 1147l-567 -1147h-177l-87 1443h169l58 -1167h4l572 1167h170l96 -1165h4l539 1165h190l-690 -1443h-177l-100 1147h-4zM819 -433c-68 0 -124 56 -124 124s56 124 124 124s124 -56 124 -124s-56 -124 -124 -124z" />
    <glyph glyph-name="Wdieresis" unicode="&#x1e84;" horiz-adv-x="1896" 
d="M1125 1147l-567 -1147h-177l-87 1443h169l58 -1167h4l572 1167h170l96 -1165h4l539 1165h190l-690 -1443h-177l-100 1147h-4zM1052 1618c-60 0 -110 49 -110 110s50 110 110 110s110 -49 110 -110s-50 -110 -110 -110zM1424 1618c-60 0 -110 49 -110 110s50 110 110 110
s110 -49 110 -110s-50 -110 -110 -110z" />
    <glyph glyph-name="Wcircumflex" unicode="&#x174;" horiz-adv-x="1896" 
d="M1125 1147l-567 -1147h-177l-87 1443h169l58 -1167h4l572 1167h170l96 -1165h4l539 1165h190l-690 -1443h-177l-100 1147h-4zM1325 1858l220 -298h-154l-140 192h-6l-222 -192h-178l346 298h134z" />
    <glyph glyph-name="X" unicode="X" horiz-adv-x="1304" 
d="M-20 0l652 734l-333 709h206l262 -581h8l504 581h232l-651 -734l332 -709h-206l-262 582h-8l-504 -582h-232z" />
    <glyph glyph-name="Xdotaccent" unicode="&#x1e8a;" horiz-adv-x="1304" 
d="M-20 0l652 734l-333 709h206l262 -581h8l504 581h232l-651 -734l332 -709h-206l-262 582h-8l-504 -582h-232zM952 1611c-68 0 -124 56 -124 124s56 124 124 124s124 -56 124 -124s-56 -124 -124 -124z" />
    <glyph glyph-name="Xdieresis" unicode="&#x1e8c;" horiz-adv-x="1304" 
d="M-20 0l652 734l-333 709h206l262 -581h8l504 581h232l-651 -734l332 -709h-206l-262 582h-8l-504 -582h-232zM764 1618c-60 0 -110 49 -110 110s50 110 110 110s110 -49 110 -110s-50 -110 -110 -110zM1136 1618c-60 0 -110 49 -110 110s50 110 110 110s110 -49 110 -110
s-50 -110 -110 -110z" />
    <glyph glyph-name="Y" unicode="Y" horiz-adv-x="1256" 
d="M662 0h-185l132 630l-336 813h190l266 -658h4l536 658h208l-689 -839z" />
    <glyph glyph-name="Ygrave" unicode="&#x1ef2;" horiz-adv-x="1256" 
d="M662 0h-185l132 630l-336 813h190l266 -658h4l536 658h208l-689 -839zM813 1560l-199 289h182l159 -289h-142z" />
    <glyph glyph-name="Yacute" unicode="&#xdd;" horiz-adv-x="1256" 
d="M662 0h-185l132 630l-336 813h190l266 -658h4l536 658h208l-689 -839zM981 1560h-162l281 289h202z" />
    <glyph glyph-name="Ydotaccent" unicode="&#x1e8e;" horiz-adv-x="1256" 
d="M662 0h-185l132 630l-336 813h190l266 -658h4l536 658h208l-689 -839zM932 1611c-68 0 -124 56 -124 124s56 124 124 124s124 -56 124 -124s-56 -124 -124 -124z" />
    <glyph glyph-name="Ydotbelow" unicode="&#x1ef4;" horiz-adv-x="1256" 
d="M662 0h-185l132 630l-336 813h190l266 -658h4l536 658h208l-689 -839zM498 -433c-68 0 -124 56 -124 124s56 124 124 124s124 -56 124 -124s-56 -124 -124 -124z" />
    <glyph glyph-name="Ydieresis" unicode="&#x178;" horiz-adv-x="1256" 
d="M662 0h-185l132 630l-336 813h190l266 -658h4l536 658h208l-689 -839zM744 1618c-60 0 -110 49 -110 110s50 110 110 110s110 -49 110 -110s-50 -110 -110 -110zM1116 1618c-60 0 -110 49 -110 110s50 110 110 110s110 -49 110 -110s-50 -110 -110 -110z" />
    <glyph glyph-name="Ytilde" unicode="&#x1ef8;" horiz-adv-x="1256" 
d="M662 0h-185l132 630l-336 813h190l266 -658h4l536 658h208l-689 -839zM1043 1546c-132 0 -158 152 -237 152c-46 0 -89 -49 -105 -142h-118c29 160 118 255 232 255c141 0 162 -152 237 -152c42 0 83 47 103 143h118c-32 -156 -121 -256 -230 -256z" />
    <glyph glyph-name="Ycircumflex" unicode="&#x176;" horiz-adv-x="1256" 
d="M662 0h-185l132 630l-336 813h190l266 -658h4l536 658h208l-689 -839zM1017 1858l220 -298h-154l-140 192h-6l-222 -192h-178l346 298h134z" />
    <glyph glyph-name="Ymacron" unicode="&#x232;" horiz-adv-x="1256" 
d="M662 0h-185l132 630l-336 813h190l266 -658h4l536 658h208l-689 -839zM1257 1750l-25 -116h-634l25 116h634z" />
    <glyph glyph-name="Yhookabove" unicode="&#x1ef6;" horiz-adv-x="1256" 
d="M662 0h-185l132 630l-336 813h190l266 -658h4l536 658h208l-689 -839zM757 1763l24 96c19 7 61 12 89 12c122 0 198 -59 198 -151c0 -95 -74 -166 -203 -193l-42 83c67 12 112 48 112 96c0 41 -35 66 -93 66c-31 0 -58 -3 -85 -9z" />
    <glyph glyph-name="Z" unicode="Z" horiz-adv-x="1263" 
d="M38 0l27 128l1051 1149l1 4h-779l35 162h1021l-27 -128l-1049 -1149l-1 -4h822l-34 -162h-1067z" />
    <glyph glyph-name="Zacute" unicode="&#x179;" horiz-adv-x="1263" 
d="M38 0l27 128l1051 1149l1 4h-779l35 162h1021l-27 -128l-1049 -1149l-1 -4h822l-34 -162h-1067zM979 1560h-162l281 289h202z" />
    <glyph glyph-name="Zcaron" unicode="&#x17d;" horiz-adv-x="1263" 
d="M38 0l27 128l1051 1149l1 4h-779l35 162h1021l-27 -128l-1049 -1149l-1 -4h822l-34 -162h-1067zM835 1560l-220 298h154l141 -192h6l221 192h178l-346 -298h-134z" />
    <glyph glyph-name="Zcircumflex" unicode="&#x1e90;" horiz-adv-x="1263" 
d="M38 0l27 128l1051 1149l1 4h-779l35 162h1021l-27 -128l-1049 -1149l-1 -4h822l-34 -162h-1067zM1015 1858l220 -298h-154l-140 192h-6l-222 -192h-178l346 298h134z" />
    <glyph glyph-name="Zlinebelow" unicode="&#x1e94;" horiz-adv-x="1263" 
d="M38 0l27 128l1051 1149l1 4h-779l35 162h1021l-27 -128l-1049 -1149l-1 -4h822l-34 -162h-1067zM885 -251l-25 -116h-634l25 116h634z" />
    <glyph glyph-name="Zdotbelow" unicode="&#x1e92;" horiz-adv-x="1263" 
d="M38 0l27 128l1051 1149l1 4h-779l35 162h1021l-27 -128l-1049 -1149l-1 -4h822l-34 -162h-1067zM551 -433c-68 0 -124 56 -124 124s56 124 124 124s124 -56 124 -124s-56 -124 -124 -124z" />
    <glyph glyph-name="Zdotaccent" unicode="&#x17b;" horiz-adv-x="1263" 
d="M38 0l27 128l1051 1149l1 4h-779l35 162h1021l-27 -128l-1049 -1149l-1 -4h822l-34 -162h-1067zM930 1611c-68 0 -124 56 -124 124s56 124 124 124s124 -56 124 -124s-56 -124 -124 -124z" />
    <glyph glyph-name="AE" unicode="&#xc6;" horiz-adv-x="1869" 
d="M1148 1292h-146l-454 -680h455zM873 0l98 459h-523l-304 -459h-194l958 1443h1110l-35 -162h-654l-100 -473h617l-34 -160h-617l-104 -486h654l-34 -162h-838z" />
    <glyph glyph-name="AEmacron" unicode="&#x1e2;" horiz-adv-x="1869" 
d="M1148 1292h-146l-454 -680h455zM873 0l98 459h-523l-304 -459h-194l958 1443h1110l-35 -162h-654l-100 -473h617l-34 -160h-617l-104 -486h654l-34 -162h-838zM1710 1750l-25 -116h-634l25 116h634z" />
    <glyph glyph-name="AEacute" unicode="&#x1fc;" horiz-adv-x="1869" 
d="M1148 1292h-146l-454 -680h455zM873 0l98 459h-523l-304 -459h-194l958 1443h1110l-35 -162h-654l-100 -473h617l-34 -160h-617l-104 -486h654l-34 -162h-838zM1434 1560h-162l281 289h202z" />
    <glyph glyph-name="OE" unicode="&#x152;" horiz-adv-x="2246" 
d="M1192 0l33 153h-3c-122 -117 -277 -176 -445 -176c-362 0 -600 249 -600 629c0 472 315 860 751 860c233 0 412 -103 512 -287h3l56 264h896l-35 -162h-712l-100 -463h676l-34 -160h-675l-106 -496h713l-34 -162h-896zM1343 831c0 287 -162 470 -415 470
c-336 0 -566 -309 -566 -689c0 -287 162 -470 415 -470c336 0 566 309 566 689z" />
    <glyph glyph-name="Eth" unicode="&#xd0;" horiz-adv-x="1413" 
d="M298 160h330c352 0 605 281 605 673c0 297 -156 450 -457 450h-239l-99 -465h326l-34 -162h-326zM387 1443h420c384 0 612 -219 612 -588c0 -506 -317 -855 -777 -855h-560l139 656h-142l35 162h141z" />
    <glyph glyph-name="Thorn" unicode="&#xde;" horiz-adv-x="1193" 
d="M80 0l307 1443h179l-57 -266h332c227 0 386 -145 386 -356c0 -282 -222 -472 -553 -472h-340l-74 -349h-180zM476 1017l-108 -508h295c237 0 376 109 376 296c0 130 -88 212 -259 212h-304z" />
    <glyph glyph-name="Alphagreek" unicode="&#x391;" horiz-adv-x="1291" 
d="M850 1224l-368 -658h471l-99 658h-4zM1035 0l-59 413h-579l-234 -413h-198l836 1443h181l224 -1443h-171z" />
    <glyph glyph-name="Betagreek" unicode="&#x392;" horiz-adv-x="1300" 
d="M680 0h-600l307 1443h511c232 0 396 -125 396 -318c0 -182 -133 -325 -313 -374l-1 -4c159 -25 247 -146 247 -289c0 -267 -220 -458 -547 -458zM537 1284l-98 -463h297c220 0 371 109 371 267c0 132 -98 196 -278 196h-292zM298 159h376c214 0 362 122 362 284
c0 148 -100 223 -296 223h-334z" />
    <glyph glyph-name="Gammagreek" unicode="&#x393;" horiz-adv-x="1064" 
d="M265 0h-185l307 1443h858l-35 -162h-673z" />
    <glyph glyph-name="Deltagreek" unicode="&#x394;" horiz-adv-x="1313" 
d="M1191 0h-1189l27 126l783 1317h181l225 -1317zM861 1224l-613 -1058l-1 -4h795l1 2l-178 1060h-4z" />
    <glyph glyph-name="Deltagreek" unicode="&#x2206;" horiz-adv-x="1313" 
d="M1191 0h-1189l27 126l783 1317h181l225 -1317zM861 1224l-613 -1058l-1 -4h795l1 2l-178 1060h-4z" />
    <glyph glyph-name="Epsilongreek" unicode="&#x395;" horiz-adv-x="1134" 
d="M1010 162l-34 -162h-896l307 1443h896l-35 -162h-711l-99 -463h674l-34 -160h-674l-105 -496h711z" />
    <glyph glyph-name="Zetagreek" unicode="&#x396;" horiz-adv-x="1263" 
d="M38 0l27 128l1051 1149l1 4h-779l35 162h1021l-27 -128l-1049 -1149l-1 -4h822l-34 -162h-1067z" />
    <glyph glyph-name="Etagreek" unicode="&#x397;" horiz-adv-x="1436" 
d="M1236 0h-184l140 657h-788l-140 -657h-184l307 1443h184l-133 -624h788l133 624h184z" />
    <glyph glyph-name="Thetagreek" unicode="&#x398;" horiz-adv-x="1528" 
d="M1145 638h-611l34 160h611zM782 -23c-362 0 -605 249 -605 629c0 472 320 860 756 860c362 0 605 -249 605 -629c0 -472 -320 -860 -756 -860zM1353 831c0 287 -167 470 -420 470c-336 0 -571 -309 -571 -689c0 -287 167 -470 420 -470c336 0 571 309 571 689z" />
    <glyph glyph-name="Iotagreek" unicode="&#x399;" horiz-adv-x="464" 
d="M264 0h-184l307 1443h184z" />
    <glyph glyph-name="Iotagreek.1" horiz-adv-x="904" 
d="M1032 1289h-274l-241 -1135h274l-33 -154h-274h-184h-274l33 154h274l241 1135h-274l33 154h274h184h274z" />
    <glyph glyph-name="Kappagreek" unicode="&#x39a;" horiz-adv-x="1259" 
d="M264 0h-184l307 1443h184l-149 -701h4l776 701h238l-714 -648l460 -795h-210l-392 683l-215 -189z" />
    <glyph glyph-name="Lambdagreek" unicode="&#x39b;" horiz-adv-x="1271" 
d="M840 1224l-667 -1224h-198l816 1443h181l204 -1443h-171l-161 1224h-4z" />
    <glyph glyph-name="Mugreek" unicode="&#x39c;" horiz-adv-x="1706" 
d="M250 0h-170l307 1443h200l243 -1216h4l754 1216h225l-307 -1443h-170l239 1124h-7l-699 -1114h-153l-223 1114h-6z" />
    <glyph glyph-name="Nugreek" unicode="&#x39d;" horiz-adv-x="1434" 
d="M264 0h-184l307 1443h184l533 -1173h4l249 1173h184l-307 -1443h-184l-533 1173h-4z" />
    <glyph glyph-name="Xigreek" unicode="&#x39e;" horiz-adv-x="1257" 
d="M346 1443h1059l-35 -167h-1059zM1150 653h-885l36 165h885zM75 167h1059l-35 -167h-1059z" />
    <glyph glyph-name="Omicrongreek" unicode="&#x39f;" horiz-adv-x="1518" 
d="M928 1301c-336 0 -566 -309 -566 -689c0 -287 162 -470 415 -470c336 0 566 309 566 689c0 287 -162 470 -415 470zM777 -23c-362 0 -600 249 -600 629c0 472 315 860 751 860c362 0 600 -249 600 -629c0 -472 -315 -860 -751 -860z" />
    <glyph glyph-name="Pigreek" unicode="&#x3a0;" horiz-adv-x="1416" 
d="M1216 0h-185l274 1281h-769l-273 -1281h-183l307 1443h1136z" />
    <glyph glyph-name="Rhogreek" unicode="&#x3a1;" horiz-adv-x="1224" 
d="M387 1443h507c230 0 414 -151 414 -390c0 -337 -254 -538 -585 -538h-349l-109 -515h-185zM537 1283l-129 -608h304c248 0 408 130 408 362c0 156 -112 246 -288 246h-295z" />
    <glyph glyph-name="Sigmagreek" unicode="&#x3a3;" horiz-adv-x="1262" 
d="M308 166l-1 -4h831l-34 -162h-1067l27 128l541 620l-260 561l28 134h1019l-34 -162h-797l-1 -4l239 -525l-5 -18z" />
    <glyph glyph-name="Taugreek" unicode="&#x3a4;" horiz-adv-x="1211" 
d="M638 0h-184l272 1281h-463l34 162h1110l-34 -162h-463z" />
    <glyph glyph-name="Upsilongreek" unicode="&#x3a5;" horiz-adv-x="1256" 
d="M662 0h-185l132 630l-336 813h190l266 -658h4l536 658h208l-689 -839z" />
    <glyph glyph-name="Phigreek" unicode="&#x3a6;" horiz-adv-x="1629" 
d="M650 -58l30 143c-332 32 -521 223 -521 526c0 426 325 730 790 740l31 146h184l-31 -146c333 -33 521 -223 521 -528c0 -424 -326 -728 -790 -738l-30 -143h-184zM715 246l199 943c-339 0 -570 -229 -570 -559c0 -230 134 -367 371 -384zM899 247c340 0 570 225 570 560
c0 229 -134 366 -370 382z" />
    <glyph glyph-name="Chigreek" unicode="&#x3a7;" horiz-adv-x="1304" 
d="M-20 0l652 734l-333 709h206l262 -581h8l504 581h232l-651 -734l332 -709h-206l-262 582h-8l-504 -582h-232z" />
    <glyph glyph-name="Psigreek" unicode="&#x3a8;" horiz-adv-x="1583" 
d="M824 0h-185l72 339c-317 34 -472 175 -472 430c0 39 5 82 14 129l114 545h184l-113 -539c-11 -50 -16 -95 -16 -136c0 -171 113 -249 324 -263l200 938h185l-200 -938c285 0 428 158 479 399l115 539h184l-116 -545c-75 -351 -255 -537 -697 -559z" />
    <glyph glyph-name="Omegagreek" unicode="&#x3a9;" horiz-adv-x="1515" 
d="M872 0l41 194c281 162 430 389 430 684c0 252 -160 424 -427 424c-335 0 -554 -251 -554 -625c0 -207 99 -378 281 -483l-41 -194h-530l34 162h315v7c-152 111 -244 284 -244 505c0 465 306 793 763 793c364 0 588 -235 588 -577c0 -294 -160 -572 -404 -720v-8h313
l-34 -162h-531z" />
    <glyph glyph-name="Omegagreek" unicode="&#x2126;" horiz-adv-x="1515" 
d="M872 0l41 194c281 162 430 389 430 684c0 252 -160 424 -427 424c-335 0 -554 -251 -554 -625c0 -207 99 -378 281 -483l-41 -194h-530l34 162h315v7c-152 111 -244 284 -244 505c0 465 306 793 763 793c364 0 588 -235 588 -577c0 -294 -160 -572 -404 -720v-8h313
l-34 -162h-531z" />
    <glyph glyph-name="Alphatonosgreek" unicode="&#x386;" horiz-adv-x="1291" 
d="M850 1224l-368 -658h471l-99 658h-4zM1035 0l-59 413h-579l-234 -413h-198l836 1443h181l224 -1443h-171zM292 1144l138 299h221l-216 -299h-143z" />
    <glyph glyph-name="Epsilontonosgreek" unicode="&#x388;" horiz-adv-x="1398" 
d="M183 1144l138 299h221l-216 -299h-143zM1274 162l-34 -162h-896l307 1443h896l-35 -162h-711l-99 -463h674l-34 -160h-674l-105 -496h711z" />
    <glyph glyph-name="Etatonosgreek" unicode="&#x389;" horiz-adv-x="1700" 
d="M183 1144l138 299h221l-216 -299h-143zM1500 0h-184l140 657h-788l-140 -657h-184l307 1443h184l-133 -624h788l133 624h184z" />
    <glyph glyph-name="Iotatonosgreek" unicode="&#x38a;" horiz-adv-x="728" 
d="M183 1144l138 299h221l-216 -299h-143zM528 0h-184l307 1443h184z" />
    <glyph glyph-name="Iotadieresisgreek" unicode="&#x3aa;" horiz-adv-x="464" 
d="M264 0h-184l307 1443h184zM350 1618c-60 0 -110 49 -110 110s50 110 110 110s110 -49 110 -110s-50 -110 -110 -110zM722 1618c-60 0 -110 49 -110 110s50 110 110 110s110 -49 110 -110s-50 -110 -110 -110z" />
    <glyph glyph-name="Iotatonosgreek.1" horiz-adv-x="1203" 
d="M542 1443l-216 -299h-143l138 299h221zM1331 1289h-274l-241 -1135h274l-33 -154h-274h-184h-274l33 154h274l241 1135h-274l33 154h274h184h274z" />
    <glyph glyph-name="Iotadieresisgreek.1" horiz-adv-x="904" 
d="M940 1618c-60 0 -110 49 -110 110s50 110 110 110s110 -49 110 -110s-50 -110 -110 -110zM568 1618c-60 0 -110 49 -110 110s50 110 110 110s110 -49 110 -110s-50 -110 -110 -110zM1032 1289h-274l-241 -1135h274l-33 -154h-274h-184h-274l33 154h274l241 1135h-274
l33 154h274h184h274z" />
    <glyph glyph-name="Omicrontonosgreek" unicode="&#x38c;" horiz-adv-x="1703" 
d="M183 1144l138 299h221l-216 -299h-143zM1113 1301c-336 0 -566 -309 -566 -689c0 -287 162 -470 415 -470c336 0 566 309 566 689c0 287 -162 470 -415 470zM962 -23c-362 0 -600 249 -600 629c0 472 315 860 751 860c362 0 600 -249 600 -629
c0 -472 -315 -860 -751 -860z" />
    <glyph glyph-name="Upsilontonosgreek" unicode="&#x38e;" horiz-adv-x="1687" 
d="M285 1144l138 299h221l-216 -299h-143zM1093 0h-185l132 630l-336 813h190l266 -658h4l536 658h208l-689 -839z" />
    <glyph glyph-name="Upsilondieresisgreek" unicode="&#x3ab;" horiz-adv-x="1256" 
d="M662 0h-185l132 630l-336 813h190l266 -658h4l536 658h208l-689 -839zM744 1618c-60 0 -110 49 -110 110s50 110 110 110s110 -49 110 -110s-50 -110 -110 -110zM1116 1618c-60 0 -110 49 -110 110s50 110 110 110s110 -49 110 -110s-50 -110 -110 -110z" />
    <glyph glyph-name="Omegatonosgreek" unicode="&#x38f;" horiz-adv-x="1755" 
d="M183 1144l138 299h221l-216 -299h-143zM1112 0l41 194c281 162 430 389 430 684c0 252 -160 424 -427 424c-335 0 -554 -251 -554 -625c0 -207 99 -378 281 -483l-41 -194h-530l34 162h315v7c-152 111 -244 284 -244 505c0 465 306 793 763 793c364 0 588 -235 588 -577
c0 -294 -160 -572 -404 -720v-8h313l-34 -162h-531z" />
    <glyph glyph-name="Acyrillic" unicode="&#x410;" horiz-adv-x="1301" 
d="M855 1224l-368 -658h471l-99 658h-4zM1040 0l-59 413h-579l-234 -413h-198l836 1443h181l224 -1443h-171z" />
    <glyph glyph-name="uni04D0" unicode="&#x4d0;" horiz-adv-x="1301" 
d="M855 1224l-368 -658h471l-99 658h-4zM1040 0l-59 413h-579l-234 -413h-198l836 1443h181l224 -1443h-171zM626 1840h156c-23 -109 42 -180 148 -180c108 0 203 71 226 180h156c-39 -186 -192 -298 -394 -298c-206 0 -332 112 -292 298z" />
    <glyph glyph-name="uni04D2" unicode="&#x4d2;" horiz-adv-x="1301" 
d="M855 1224l-368 -658h471l-99 658h-4zM1040 0l-59 413h-579l-234 -413h-198l836 1443h181l224 -1443h-171zM762 1618c-60 0 -110 49 -110 110s50 110 110 110s110 -49 110 -110s-50 -110 -110 -110zM1134 1618c-60 0 -110 49 -110 110s50 110 110 110s110 -49 110 -110
s-50 -110 -110 -110z" />
    <glyph glyph-name="uniF50E" horiz-adv-x="1301" 
d="M855 1224l-368 -658h471l-99 658h-4zM1040 0l-59 413h-579l-234 -413h-198l836 1443h181l224 -1443h-171zM1275 1750l-25 -116h-634l25 116h634z" />
    <glyph glyph-name="uniF460" horiz-adv-x="1301" 
d="M855 1224l-368 -658h471l-99 658h-4zM1040 0l-59 413h-579l-234 -413h-198l836 1443h181l224 -1443h-171zM999 1560h-162l281 289h202z" />
    <glyph glyph-name="Becyrillic" unicode="&#x411;" horiz-adv-x="1241" 
d="M655 0h-570l307 1443h855l-35 -162h-670l-88 -413h290c270 0 461 -148 461 -381c0 -245 -223 -487 -550 -487zM303 160h333c215 0 381 135 381 300c0 171 -127 248 -310 248h-287z" />
    <glyph glyph-name="Vecyrillic" unicode="&#x412;" horiz-adv-x="1310" 
d="M685 0h-600l307 1443h511c232 0 396 -125 396 -318c0 -182 -133 -325 -313 -374l-1 -4c159 -25 247 -146 247 -289c0 -267 -220 -458 -547 -458zM542 1284l-98 -463h297c220 0 371 109 371 267c0 132 -98 196 -278 196h-292zM303 159h376c214 0 362 122 362 284
c0 148 -100 223 -296 223h-334z" />
    <glyph glyph-name="Gecyrillic" unicode="&#x413;" horiz-adv-x="1073" 
d="M269 0h-184l307 1443h868l-35 -162h-684z" />
    <glyph glyph-name="Gjecyrillic" unicode="&#x403;" horiz-adv-x="1073" 
d="M269 0h-184l307 1443h868l-35 -162h-684zM914 1560h-162l281 289h202z" />
    <glyph glyph-name="Geupturncyrillic" unicode="&#x490;" horiz-adv-x="1073" 
d="M542 1281l-272 -1281h-185l307 1443h701l60 285h167l-95 -447h-683z" />
    <glyph glyph-name="uni04F6" unicode="&#x4f6;" horiz-adv-x="1073" 
d="M392 1443h868l-35 -162h-684l-238 -1119h179l-95 -447h-167l61 285h-12h-184z" />
    <glyph glyph-name="uni0492" unicode="&#x492;" horiz-adv-x="1073" 
d="M1225 1281h-684l-107 -506h504l-30 -144h-505l-134 -631h-184l134 631h-145l31 144h145l142 668h868z" />
    <glyph glyph-name="uniF53C" horiz-adv-x="1094" 
d="M269 0h-184l307 1443h878l-35 -162h-693l-106 -496h636l-34 -160h-636z" />
    <glyph glyph-name="uni04FA" unicode="&#x4fa;" horiz-adv-x="1073" 
d="M1225 1281h-684l-107 -506h504l-30 -144h-505l-134 -631l-11 -53c-49 -235 -159 -322 -407 -322h-30l33 152h26c117 0 168 42 196 179l9 44l134 631h-145l31 144h145l142 668h868z" />
    <glyph glyph-name="Decyrillic" unicode="&#x414;" horiz-adv-x="1427" 
d="M484 531c-45 -163 -88 -272 -177 -357l-3 -12h703l238 1119h-555zM104 0l-61 -285h-167l95 447h107c117 56 184 184 235 373l248 908h903l-273 -1281h180l-95 -447h-167l61 285h-1066z" />
    <glyph glyph-name="uni0414.BUL" horiz-adv-x="1490" 
d="M147 0l-61 -285h-167l95 447h143l746 1281h178l200 -1281h143l-95 -447h-167l61 285h-1076zM934 1196l-585 -1034h747l-146 1034h-16z" />
    <glyph glyph-name="Iecyrillic" unicode="&#x415;" horiz-adv-x="1144" 
d="M1015 162l-34 -162h-896l307 1443h896l-35 -162h-711l-99 -463h674l-34 -160h-674l-105 -496h711z" />
    <glyph glyph-name="Iocyrillic" unicode="&#x401;" horiz-adv-x="1144" 
d="M1015 162l-34 -162h-896l307 1443h896l-35 -162h-711l-99 -463h674l-34 -160h-674l-105 -496h711zM710 1618c-60 0 -110 49 -110 110s50 110 110 110s110 -49 110 -110s-50 -110 -110 -110zM1082 1618c-60 0 -110 49 -110 110s50 110 110 110s110 -49 110 -110
s-50 -110 -110 -110z" />
    <glyph glyph-name="uni04D6" unicode="&#x4d6;" horiz-adv-x="1144" 
d="M1015 162l-34 -162h-896l307 1443h896l-35 -162h-711l-99 -463h674l-34 -160h-674l-105 -496h711zM574 1840h156c-23 -109 42 -180 148 -180c108 0 203 71 226 180h156c-39 -186 -192 -298 -394 -298c-206 0 -332 112 -292 298z" />
    <glyph glyph-name="uniF510" horiz-adv-x="1144" 
d="M1015 162l-34 -162h-896l307 1443h896l-35 -162h-711l-99 -463h674l-34 -160h-674l-105 -496h711zM1223 1750l-25 -116h-634l25 116h634z" />
    <glyph glyph-name="uniF512" horiz-adv-x="1144" 
d="M1015 162l-34 -162h-896l307 1443h896l-35 -162h-711l-99 -463h674l-34 -160h-674l-105 -496h711zM705 1766c57 0 104 -47 104 -106s-47 -106 -104 -106c-58 0 -105 47 -105 106s47 106 105 106zM1276 2025l-25 -116h-634l25 116h634zM1059 1766c58 0 105 -47 105 -106
s-47 -106 -105 -106c-57 0 -104 47 -104 106s47 106 104 106z" />
    <glyph glyph-name="uni0400" unicode="&#x400;" horiz-adv-x="1144" 
d="M1015 162l-34 -162h-896l307 1443h896l-35 -162h-711l-99 -463h674l-34 -160h-674l-105 -496h711zM779 1560l-199 289h182l159 -289h-142z" />
    <glyph glyph-name="uniF461" horiz-adv-x="1144" 
d="M1015 162l-34 -162h-896l307 1443h896l-35 -162h-711l-99 -463h674l-34 -160h-674l-105 -496h711zM947 1560h-162l281 289h202z" />
    <glyph glyph-name="uniF469" horiz-adv-x="1144" 
d="M1015 162l-34 -162h-896l307 1443h896l-35 -162h-711l-99 -463h674l-34 -160h-674l-105 -496h711zM917 1611h-134l97 310h211zM1196 1622c-61 0 -112 51 -112 112c-1 62 50 112 111 112c62 0 112 -50 113 -112c0 -61 -50 -112 -112 -112zM636 1622
c-61 0 -112 51 -112 112c-1 62 50 112 111 112c62 0 112 -50 113 -112c0 -61 -50 -112 -112 -112z" />
    <glyph glyph-name="uniF514" horiz-adv-x="1144" 
d="M668 2054h139c-2 -9 -3 -18 -3 -27c0 -60 49 -98 134 -98c97 0 169 49 185 125h139c-30 -142 -164 -236 -347 -236c-160 0 -253 72 -253 186c0 16 2 33 6 50zM562 1555c30 142 164 236 347 236c160 0 253 -72 253 -186c0 -16 -2 -33 -6 -50h-139c2 9 3 18 3 27
c0 60 -50 98 -135 98c-97 0 -168 -49 -184 -125h-139zM1015 162l-34 -162h-896l307 1443h896l-35 -162h-711l-99 -463h674l-34 -160h-674l-105 -496h711z" />
    <glyph glyph-name="Zhecyrillic" unicode="&#x416;" horiz-adv-x="1996" 
d="M1004 703l-793 -703h-244l871 769l-476 674h202l457 -661h10l141 661h180l-142 -663h11l739 663h232l-802 -715l515 -728h-206l-494 701h-11l-149 -701h-180l149 703h-10z" />
    <glyph glyph-name="uni04C1" unicode="&#x4c1;" horiz-adv-x="1996" 
d="M1004 703l-793 -703h-244l871 769l-476 674h202l457 -661h10l141 661h180l-142 -663h11l739 663h232l-802 -715l515 -728h-206l-494 701h-11l-149 -701h-180l149 703h-10zM1027 1848h126c-4 -14 -8 -33 -8 -52c0 -93 62 -146 159 -146c114 0 212 72 239 198h126
c-41 -194 -180 -306 -384 -306c-150 0 -268 91 -268 232c0 28 4 53 10 74z" />
    <glyph glyph-name="uni04DC" unicode="&#x4dc;" horiz-adv-x="1996" 
d="M1004 703l-793 -703h-244l871 769l-476 674h202l457 -661h10l141 661h180l-142 -663h11l739 663h232l-802 -715l515 -728h-206l-494 701h-11l-149 -701h-180l149 703h-10zM1132 1618c-60 0 -110 49 -110 110s50 110 110 110s110 -49 110 -110s-50 -110 -110 -110z
M1504 1618c-60 0 -110 49 -110 110s50 110 110 110s110 -49 110 -110s-50 -110 -110 -110z" />
    <glyph glyph-name="uni0496" unicode="&#x496;" horiz-adv-x="2071" 
d="M1390 728l400 -566h206l-95 -447h-167l61 285h-96l-494 701h-11l-149 -701h-180l149 703h-10l-793 -703h-244l871 769l-476 674h202l457 -661h10l141 661h180l-142 -663h11l739 663h232z" />
    <glyph glyph-name="uni0416.BUL" horiz-adv-x="2007" 
d="M2203 1443l-678 -646l424 -797h-204l-361 685l-215 -190l-105 -495h-176l105 495l-133 190l-653 -685h-240l801 837l-394 606h209l445 -701h18l149 701h176l-149 -701h18l733 701h230z" />
    <glyph glyph-name="Zecyrillic" unicode="&#x417;" horiz-adv-x="1181" 
d="M445 662l34 162h203c206 0 348 104 348 256c0 136 -115 232 -279 232c-162 0 -293 -96 -315 -231h-174c30 229 234 385 505 385c257 0 445 -155 445 -366c0 -179 -144 -333 -337 -359l-1 -4c159 -38 253 -154 253 -311c0 -260 -233 -450 -551 -450
c-309 0 -517 176 -500 423h174c0 -162 133 -266 340 -266c204 0 352 117 352 279c0 157 -110 250 -296 250h-201z" />
    <glyph glyph-name="uni04DE" unicode="&#x4de;" horiz-adv-x="1181" 
d="M445 662l34 162h203c206 0 348 104 348 256c0 136 -115 232 -279 232c-162 0 -293 -96 -315 -231h-174c30 229 234 385 505 385c257 0 445 -155 445 -366c0 -179 -144 -333 -337 -359l-1 -4c159 -38 253 -154 253 -311c0 -260 -233 -450 -551 -450
c-309 0 -517 176 -500 423h174c0 -162 133 -266 340 -266c204 0 352 117 352 279c0 157 -110 250 -296 250h-201zM697 1618c-60 0 -110 49 -110 110s50 110 110 110s110 -49 110 -110s-50 -110 -110 -110zM1069 1618c-60 0 -110 49 -110 110s50 110 110 110
s110 -49 110 -110s-50 -110 -110 -110z" />
    <glyph glyph-name="uni0498" unicode="&#x498;" horiz-adv-x="1181" 
d="M875 741l-1 -4c159 -38 253 -154 253 -311c0 -234 -188 -411 -457 -444l-57 -267h-162l56 264c-270 24 -447 192 -431 420h174c0 -162 133 -266 340 -266c204 0 352 117 352 279c0 157 -110 250 -296 250h-201l34 162h203c206 0 348 104 348 256c0 136 -115 232 -279 232
c-162 0 -293 -96 -315 -231h-174c30 229 234 385 505 385c257 0 445 -155 445 -366c0 -179 -144 -333 -337 -359z" />
    <glyph glyph-name="uniF50A" horiz-adv-x="1181" 
d="M875 741l-1 -4c159 -38 253 -154 253 -311c0 -244 -205 -426 -492 -448l-68 -118c119 4 189 -50 189 -145c0 -119 -98 -198 -246 -198c-59 0 -132 12 -177 29l24 114c43 -16 91 -25 139 -25c79 0 125 25 125 69c0 45 -47 65 -155 65h-59l16 72l76 139
c-266 27 -439 193 -423 419h174c0 -162 133 -266 340 -266c204 0 352 117 352 279c0 157 -110 250 -296 250h-201l34 162h203c206 0 348 104 348 256c0 136 -115 232 -279 232c-162 0 -293 -96 -315 -231h-174c30 229 234 385 505 385c257 0 445 -155 445 -366
c0 -179 -144 -333 -337 -359z" />
    <glyph glyph-name="uniF516" horiz-adv-x="1181" 
d="M445 662l34 162h203c206 0 348 104 348 256c0 136 -115 232 -279 232c-162 0 -293 -96 -315 -231h-174c30 229 234 385 505 385c257 0 445 -155 445 -366c0 -179 -144 -333 -337 -359l-1 -4c159 -38 253 -154 253 -311c0 -260 -233 -450 -551 -450
c-309 0 -517 176 -500 423h174c0 -162 133 -266 340 -266c204 0 352 117 352 279c0 157 -110 250 -296 250h-201zM790 1560l-220 298h154l141 -192h6l221 192h178l-346 -298h-134z" />
    <glyph glyph-name="Iicyrillic" unicode="&#x418;" horiz-adv-x="1442" 
d="M1055 0l241 1132h-16l-1013 -1132h-182l307 1443h182l-242 -1136h16l1014 1136h182l-307 -1443h-182z" />
    <glyph glyph-name="Iishortcyrillic" unicode="&#x419;" horiz-adv-x="1442" 
d="M1055 0l241 1132h-16l-1013 -1132h-182l307 1443h182l-242 -1136h16l1014 1136h182l-307 -1443h-182zM701 1840h156c-23 -109 42 -180 148 -180c108 0 203 71 226 180h156c-39 -186 -192 -298 -394 -298c-206 0 -332 112 -292 298z" />
    <glyph glyph-name="uni040D" unicode="&#x40d;" horiz-adv-x="1442" 
d="M1055 0l241 1132h-16l-1013 -1132h-182l307 1443h182l-242 -1136h16l1014 1136h182l-307 -1443h-182zM906 1560l-199 289h182l159 -289h-142z" />
    <glyph glyph-name="uni04E2" unicode="&#x4e2;" horiz-adv-x="1442" 
d="M1055 0l241 1132h-16l-1013 -1132h-182l307 1443h182l-242 -1136h16l1014 1136h182l-307 -1443h-182zM1350 1750l-25 -116h-634l25 116h634z" />
    <glyph glyph-name="uni04E4" unicode="&#x4e4;" horiz-adv-x="1442" 
d="M1055 0l241 1132h-16l-1013 -1132h-182l307 1443h182l-242 -1136h16l1014 1136h182l-307 -1443h-182zM837 1618c-60 0 -110 49 -110 110s50 110 110 110s110 -49 110 -110s-50 -110 -110 -110zM1209 1618c-60 0 -110 49 -110 110s50 110 110 110s110 -49 110 -110
s-50 -110 -110 -110z" />
    <glyph glyph-name="uni048A" unicode="&#x48a;" horiz-adv-x="1514" 
d="M1231 1840h156c-39 -186 -192 -298 -394 -298c-206 0 -332 112 -292 298h156c-23 -109 42 -180 148 -180c108 0 203 71 226 180zM1544 1443l-273 -1281h178l-11 -52l-190 -395h-167l139 285h-165l34 162v0l207 970h-16l-1013 -1132h-182l307 1443h182l-242 -1136h16
l1014 1136h182z" />
    <glyph glyph-name="uniF462" horiz-adv-x="1442" 
d="M1055 0l241 1132h-16l-1013 -1132h-182l307 1443h182l-242 -1136h16l1014 1136h182l-307 -1443h-182zM1074 1560h-162l281 289h202z" />
    <glyph glyph-name="uniF532" horiz-adv-x="1442" 
d="M1231 1840h156c-39 -186 -192 -298 -394 -298c-206 0 -332 112 -292 298h156c-23 -109 42 -180 148 -180c108 0 203 71 226 180zM1362 1443h182l-307 -1443l-11 -53c-49 -235 -159 -322 -407 -322h-30l33 152h26c117 0 170 42 198 179l9 44l241 1132h-16l-1013 -1132
h-182l307 1443h182l-242 -1136h16z" />
    <glyph glyph-name="Kacyrillic" unicode="&#x41a;" horiz-adv-x="1270" 
d="M1459 1443l-835 -710l559 -733h-220l-535 700h-10l-149 -700h-184l307 1443h184l-140 -664h10l768 664h245z" />
    <glyph glyph-name="Kjecyrillic" unicode="&#x40c;" horiz-adv-x="1270" 
d="M1280 1849l-321 -289h-162l281 289h202zM1459 1443l-835 -710l559 -733h-220l-535 700h-10l-149 -700h-184l307 1443h184l-140 -664h10l768 664h245z" />
    <glyph glyph-name="uni049A" unicode="&#x49a;" horiz-adv-x="1335" 
d="M624 733l435 -571h201l-95 -447h-167l61 285h-96l-535 700h-10l-149 -700h-184l307 1443h184l-140 -664h10l768 664h245z" />
    <glyph glyph-name="uni049C" unicode="&#x49c;" horiz-adv-x="1400" 
d="M1575 1443l-688 -724l402 -719h-210l-371 665h-42l-70 -332h-145l70 332h-115l-141 -665h-180l307 1443h180l-135 -634h115l66 312h145l-66 -312h42l601 634h235z" />
    <glyph glyph-name="uni049E" unicode="&#x49e;" horiz-adv-x="1270" 
d="M1459 1443l-835 -710l559 -733h-220l-535 700h-10l-149 -700h-184l247 1159h-154l31 144h153l30 140h184l-30 -140h247l-30 -144h-247l-80 -380h10l768 664h245z" />
    <glyph glyph-name="uni04A0" unicode="&#x4a0;" horiz-adv-x="1825" 
d="M2014 1443l-835 -710l559 -733h-220l-535 700h-10l-149 -700h-184l273 1281h-650l34 162h650h184l-140 -664h10l768 664h245z" />
    <glyph glyph-name="uni04C3" unicode="&#x4c3;" horiz-adv-x="1251" 
d="M442 -411c-26 0 -54 2 -70 5l33 158c21 -2 41 -3 71 -3c295 0 479 251 479 505c0 251 -188 394 -515 394h-32l-138 -648h-180l307 1443h180l-135 -634h14l769 634h245l-800 -652c286 -49 473 -245 473 -537c0 -347 -280 -665 -701 -665z" />
    <glyph glyph-name="uni041A.BUL" horiz-adv-x="1259" 
d="M264 0h-184l307 1443h184l-149 -701h4l776 701h238l-714 -648l460 -795h-210l-392 683l-215 -189z" />
    <glyph glyph-name="Elcyrillic" unicode="&#x41b;" horiz-adv-x="1343" 
d="M1138 0h-184l272 1281h-530l-203 -741c-94 -343 -210 -549 -488 -549c-27 0 -52 4 -68 10l34 161c11 -3 37 -6 53 -6c162 0 236 165 297 391l243 896h881z" />
    <glyph glyph-name="uni04C5" unicode="&#x4c5;" horiz-adv-x="1413" 
d="M1445 1443l-273 -1281h176l-11 -52l-190 -395h-167l139 285h-165l34 162v0l238 1119h-530l-203 -741c-94 -343 -210 -549 -488 -549c-27 0 -52 4 -68 10l34 161c11 -3 37 -6 53 -6c162 0 236 165 297 391l243 896h881z" />
    <glyph glyph-name="uniF530" horiz-adv-x="1441" 
d="M1445 1443l-273 -1281h179l-95 -447h-167l61 285h-12h-184l272 1281h-530l-203 -741c-94 -343 -210 -549 -488 -549c-27 0 -52 4 -68 10l34 161c11 -3 37 -6 53 -6c162 0 236 165 297 391l243 896h881z" />
    <glyph glyph-name="uni052E" unicode="&#x52e;" horiz-adv-x="1441" 
d="M1445 1443l-273 -1281h179l-95 -447h-167l61 285h-12h-184l272 1281h-530l-203 -741c-94 -343 -210 -549 -488 -549c-27 0 -52 4 -68 10l34 161c11 -3 37 -6 53 -6c162 0 236 165 297 391l243 896h881z" />
    <glyph glyph-name="uni0512" unicode="&#x512;" horiz-adv-x="1343" 
d="M564 1443h881l-307 -1443l-11 -53c-49 -235 -159 -322 -407 -322h-30l33 152h26c117 0 168 42 196 179l9 44l272 1281h-530l-203 -741c-94 -343 -210 -549 -488 -549c-27 0 -52 4 -68 10l34 161c11 -3 37 -6 53 -6c162 0 236 165 297 391z" />
    <glyph glyph-name="uni041B.BUL" horiz-adv-x="1272" 
d="M-25 0l816 1443h182l203 -1443h-174l-162 1206h-4l-659 -1206h-202z" />
    <glyph glyph-name="Emcyrillic" unicode="&#x41c;" horiz-adv-x="1716" 
d="M255 0h-170l307 1443h200l243 -1216h4l754 1216h225l-307 -1443h-170l239 1124h-7l-699 -1114h-153l-223 1114h-6z" />
    <glyph glyph-name="uni04CD" unicode="&#x4cd;" horiz-adv-x="1800" 
d="M1818 1443l-273 -1281h190l-11 -52l-190 -395h-167l139 285h-165l34 162v0l205 962h-7l-699 -1114h-153l-223 1114h-6l-237 -1124h-170l307 1443h200l243 -1216h4l754 1216h225z" />
    <glyph glyph-name="Encyrillic" unicode="&#x41d;" horiz-adv-x="1446" 
d="M1241 0h-184l140 657h-788l-140 -657h-184l307 1443h184l-133 -624h788l133 624h184z" />
    <glyph glyph-name="uni04C7" unicode="&#x4c7;" horiz-adv-x="1446" 
d="M1364 1443h184l-307 -1443h-4l-11 -53c-49 -235 -159 -322 -407 -322h-30l33 152h26c117 0 168 42 196 179l9 44h4l140 657h-788l-140 -657h-184l307 1443h184l-133 -624h788z" />
    <glyph glyph-name="uni04A2" unicode="&#x4a2;" horiz-adv-x="1544" 
d="M1548 1443l-273 -1281h179l-95 -447h-167l61 285h-12h-184l140 657h-788l-140 -657h-184l307 1443h184l-133 -624h788l133 624h184z" />
    <glyph glyph-name="uni04C9" unicode="&#x4c9;" horiz-adv-x="1516" 
d="M1548 1443l-273 -1281h176l-11 -52l-190 -395h-167l139 285h-165l34 162h1l105 495h-788l-140 -657h-184l307 1443h184l-133 -624h788l133 624h184z" />
    <glyph glyph-name="uni04A4" unicode="&#x4a4;" horiz-adv-x="2011" 
d="M2198 1443l-35 -162h-649l-273 -1281h-184l140 657h-788l-140 -657h-184l307 1443h184l-133 -624h788l133 624h184h650z" />
    <glyph glyph-name="Ocyrillic" unicode="&#x41e;" horiz-adv-x="1528" 
d="M933 1301c-336 0 -566 -309 -566 -689c0 -287 162 -470 415 -470c336 0 566 309 566 689c0 287 -162 470 -415 470zM782 -23c-362 0 -600 249 -600 629c0 472 315 860 751 860c362 0 600 -249 600 -629c0 -472 -315 -860 -751 -860z" />
    <glyph glyph-name="uni04E6" unicode="&#x4e6;" horiz-adv-x="1528" 
d="M933 1301c-336 0 -566 -309 -566 -689c0 -287 162 -470 415 -470c336 0 566 309 566 689c0 287 -162 470 -415 470zM782 -23c-362 0 -600 249 -600 629c0 472 315 860 751 860c362 0 600 -249 600 -629c0 -472 -315 -860 -751 -860zM822 1618c-60 0 -110 49 -110 110
s50 110 110 110s110 -49 110 -110s-50 -110 -110 -110zM1194 1618c-60 0 -110 49 -110 110s50 110 110 110s110 -49 110 -110s-50 -110 -110 -110z" />
    <glyph glyph-name="uniF518" horiz-adv-x="1528" 
d="M933 1301c-336 0 -566 -309 -566 -689c0 -287 162 -470 415 -470c336 0 566 309 566 689c0 287 -162 470 -415 470zM782 -23c-362 0 -600 249 -600 629c0 472 315 860 751 860c362 0 600 -249 600 -629c0 -472 -315 -860 -751 -860zM1335 1750l-25 -116h-634l25 116h634z
" />
    <glyph glyph-name="uniF463" horiz-adv-x="1528" 
d="M933 1301c-336 0 -566 -309 -566 -689c0 -287 162 -470 415 -470c336 0 566 309 566 689c0 287 -162 470 -415 470zM782 -23c-362 0 -600 249 -600 629c0 472 315 860 751 860c362 0 600 -249 600 -629c0 -472 -315 -860 -751 -860zM1059 1560h-162l281 289h202z" />
    <glyph glyph-name="uniF4D2" horiz-adv-x="1528" 
d="M933 1301c-336 0 -566 -309 -566 -689c0 -287 162 -470 415 -470c336 0 566 309 566 689c0 287 -162 470 -415 470zM782 -23c-362 0 -600 249 -600 629c0 472 315 860 751 860c362 0 600 -249 600 -629c0 -472 -315 -860 -751 -860zM891 1560l-199 289h182l159 -289h-142
z" />
    <glyph glyph-name="uniF51A" horiz-adv-x="1528" 
d="M933 1301c-336 0 -566 -309 -566 -689c0 -287 162 -470 415 -470c336 0 566 309 566 689c0 287 -162 470 -415 470zM782 -23c-362 0 -600 249 -600 629c0 472 315 860 751 860c362 0 600 -249 600 -629c0 -472 -315 -860 -751 -860zM686 1840h156
c-23 -109 42 -180 148 -180c108 0 203 71 226 180h156c-39 -186 -192 -298 -394 -298c-206 0 -332 112 -292 298z" />
    <glyph glyph-name="uni04E8" unicode="&#x4e8;" horiz-adv-x="1528" 
d="M1333 667h-964c-1 -18 -2 -36 -2 -55c0 -287 162 -470 415 -470c286 0 495 224 551 525zM389 810h959v21c0 287 -162 470 -415 470c-275 0 -479 -207 -544 -491zM933 1466c362 0 600 -249 600 -629c0 -472 -315 -860 -751 -860c-362 0 -600 249 -600 629
c0 472 315 860 751 860z" />
    <glyph glyph-name="uniF49A" horiz-adv-x="1528" 
d="M1389 1750l-25 -116h-634l25 116h634zM1333 667h-964c-1 -18 -2 -36 -2 -55c0 -287 162 -470 415 -470c286 0 495 224 551 525zM389 810h959v21c0 287 -162 470 -415 470c-275 0 -479 -207 -544 -491zM933 1466c362 0 600 -249 600 -629c0 -472 -315 -860 -751 -860
c-362 0 -600 249 -600 629c0 472 315 860 751 860z" />
    <glyph glyph-name="uniF51C" horiz-adv-x="1528" 
d="M1270 1840h156c-39 -186 -192 -298 -394 -298c-206 0 -332 112 -292 298h156c-23 -109 42 -180 148 -180c108 0 203 71 226 180zM1333 667h-964c-1 -18 -2 -36 -2 -55c0 -287 162 -470 415 -470c286 0 495 224 551 525zM389 810h959v21c0 287 -162 470 -415 470
c-275 0 -479 -207 -544 -491zM933 1466c362 0 600 -249 600 -629c0 -472 -315 -860 -751 -860c-362 0 -600 249 -600 629c0 472 315 860 751 860z" />
    <glyph glyph-name="uniF51E" horiz-adv-x="1528" 
d="M1294 2054h139c-30 -142 -164 -236 -347 -236c-160 0 -253 72 -253 186c0 16 2 33 6 50h139c-2 -9 -3 -18 -3 -27c0 -60 49 -98 134 -98c97 0 169 49 185 125zM1327 1555h-139c2 9 3 18 3 27c0 60 -50 98 -135 98c-97 0 -168 -49 -184 -125h-139c30 142 164 236 347 236
c160 0 253 -72 253 -186c0 -16 -2 -33 -6 -50zM1333 667h-964c-1 -18 -2 -36 -2 -55c0 -287 162 -470 415 -470c286 0 495 224 551 525zM389 810h959v21c0 287 -162 470 -415 470c-275 0 -479 -207 -544 -491zM933 1466c362 0 600 -249 600 -629c0 -472 -315 -860 -751 -860
c-362 0 -600 249 -600 629c0 472 315 860 751 860z" />
    <glyph glyph-name="uni04EA" unicode="&#x4ea;" horiz-adv-x="1528" 
d="M1248 1618c-60 0 -110 49 -110 110s50 110 110 110s110 -49 110 -110s-50 -110 -110 -110zM876 1618c-60 0 -110 49 -110 110s50 110 110 110s110 -49 110 -110s-50 -110 -110 -110zM1333 667h-964c-1 -18 -2 -36 -2 -55c0 -287 162 -470 415 -470c286 0 495 224 551 525
zM389 810h959v21c0 287 -162 470 -415 470c-275 0 -479 -207 -544 -491zM933 1466c362 0 600 -249 600 -629c0 -472 -315 -860 -751 -860c-362 0 -600 249 -600 629c0 472 315 860 751 860z" />
    <glyph glyph-name="uni0472" unicode="&#x472;" horiz-adv-x="1528" 
d="M782 142c288 0 498 227 552 532c-62 -50 -143 -82 -247 -81c-245 1 -329 121 -513 121c-100 0 -162 -25 -206 -60c-1 -14 -1 -28 -1 -42c0 -287 162 -470 415 -470zM933 1301c-279 0 -485 -213 -547 -502c59 39 133 64 223 64c236 0 320 -121 514 -121
c114 0 180 34 225 78v11c0 287 -162 470 -415 470zM933 1466c362 0 600 -249 600 -629c0 -472 -315 -860 -751 -860c-362 0 -600 249 -600 629c0 472 315 860 751 860z" />
    <glyph glyph-name="Pecyrillic" unicode="&#x41f;" horiz-adv-x="1421" 
d="M1216 0h-180l272 1279h-768l-272 -1279h-183l307 1443h1131z" />
    <glyph glyph-name="uni0524" unicode="&#x524;" horiz-adv-x="1523" 
d="M1523 1443l-273 -1281h183l-95 -447h-167l61 285h-16h-180l272 1279h-768l-272 -1279h-183l307 1443h1131z" />
    <glyph glyph-name="Dzhecyrillic" unicode="&#x40f;" horiz-adv-x="1421" 
d="M1216 0h-456l-61 -285h-162l61 285h-513l307 1443h180l-272 -1279h768l272 1279h183z" />
    <glyph glyph-name="Ercyrillic" unicode="&#x420;" horiz-adv-x="1234" 
d="M392 1443h507c230 0 414 -151 414 -390c0 -337 -254 -538 -585 -538h-349l-109 -515h-185zM542 1283l-129 -608h304c248 0 408 130 408 362c0 156 -112 246 -288 246h-295z" />
    <glyph glyph-name="uni048E" unicode="&#x48e;" horiz-adv-x="1234" 
d="M818 962l110 -247c124 55 197 165 197 322c0 156 -112 246 -288 246h-295l-129 -608h304c16 0 31 1 46 2l-93 224zM392 1443h507c230 0 414 -151 414 -390c0 -237 -125 -406 -314 -486l98 -216l-172 -77l-102 247c-31 -4 -63 -6 -95 -6h-349l-109 -515h-185z" />
    <glyph glyph-name="uniF4D4" horiz-adv-x="1234" 
d="M392 1443h507c230 0 414 -151 414 -390c0 -337 -254 -538 -585 -538h-349l-109 -515h-185zM542 1283l-129 -608h304c248 0 408 130 408 362c0 156 -112 246 -288 246h-295zM749 1560l-220 298h154l141 -192h6l221 192h178l-346 -298h-134z" />
    <glyph glyph-name="Escyrillic" unicode="&#x421;" horiz-adv-x="1412" 
d="M1297 978c0 6 -1 16 -2 24c-20 188 -172 299 -374 299c-328 0 -553 -291 -553 -691c0 -290 156 -468 410 -468c193 0 350 104 418 278h182c-79 -270 -315 -443 -602 -443c-363 0 -593 244 -593 627c0 490 310 862 740 862c312 0 536 -177 555 -461c1 -15 1 -19 1 -27
h-182z" />
    <glyph glyph-name="uni04AA" unicode="&#x4aa;" horiz-adv-x="1412" 
d="M1479 978h-182c0 6 -1 16 -2 24c-20 188 -172 299 -374 299c-328 0 -553 -291 -553 -691c0 -290 156 -468 410 -468c193 0 350 104 418 278h182c-75 -258 -294 -427 -564 -442l-67 -118c119 4 189 -50 189 -145c0 -119 -98 -198 -246 -198c-59 0 -132 12 -177 29l24 114
c43 -16 91 -25 139 -25c79 0 125 25 125 69c0 45 -47 65 -155 65h-59l16 72l77 142c-307 40 -497 273 -497 621c0 490 310 862 740 862c312 0 536 -177 555 -461c1 -15 1 -19 1 -27z" />
    <glyph glyph-name="uniF53E" horiz-adv-x="1412" 
d="M1479 978h-182c0 6 -1 16 -2 24c-20 188 -172 299 -374 299c-328 0 -553 -291 -553 -691c0 -290 156 -468 410 -468c193 0 350 104 418 278h182c-74 -252 -285 -420 -547 -441l-56 -264h-162l57 269c-301 44 -487 276 -487 620c0 490 310 862 740 862
c312 0 536 -177 555 -461c1 -15 1 -19 1 -27z" />
    <glyph glyph-name="Tecyrillic" unicode="&#x422;" horiz-adv-x="1221" 
d="M643 0h-184l272 1281h-463l34 162h1110l-34 -162h-463z" />
    <glyph glyph-name="uni04AC" unicode="&#x4ac;" horiz-adv-x="1221" 
d="M302 1443h1110l-34 -162h-463l-238 -1119h179l-95 -447h-167l61 285h-12h-184l272 1281h-463z" />
    <glyph glyph-name="Ucyrillic" unicode="&#x423;" horiz-adv-x="1247" 
d="M227 -10c-40 0 -67 7 -77 13l34 162c11 -3 35 -8 78 -8c110 0 193 44 273 151l-251 1135h189l189 -929h16l574 929h205l-687 -1071c-160 -249 -292 -382 -543 -382z" />
    <glyph glyph-name="Ushortcyrillic" unicode="&#x40e;" horiz-adv-x="1247" 
d="M227 -10c-40 0 -67 7 -77 13l34 162c11 -3 35 -8 78 -8c110 0 193 44 273 151l-251 1135h189l189 -929h16l574 929h205l-687 -1071c-160 -249 -292 -382 -543 -382zM591 1840h156c-23 -109 42 -180 148 -180c108 0 203 71 226 180h156c-39 -186 -192 -298 -394 -298
c-206 0 -332 112 -292 298z" />
    <glyph glyph-name="uni04EE" unicode="&#x4ee;" horiz-adv-x="1247" 
d="M227 -10c-40 0 -67 7 -77 13l34 162c11 -3 35 -8 78 -8c110 0 193 44 273 151l-251 1135h189l189 -929h16l574 929h205l-687 -1071c-160 -249 -292 -382 -543 -382zM1240 1750l-25 -116h-634l25 116h634z" />
    <glyph glyph-name="uni04F0" unicode="&#x4f0;" horiz-adv-x="1247" 
d="M227 -10c-40 0 -67 7 -77 13l34 162c11 -3 35 -8 78 -8c110 0 193 44 273 151l-251 1135h189l189 -929h16l574 929h205l-687 -1071c-160 -249 -292 -382 -543 -382zM727 1618c-60 0 -110 49 -110 110s50 110 110 110s110 -49 110 -110s-50 -110 -110 -110zM1099 1618
c-60 0 -110 49 -110 110s50 110 110 110s110 -49 110 -110s-50 -110 -110 -110z" />
    <glyph glyph-name="uni04F2" unicode="&#x4f2;" horiz-adv-x="1247" 
d="M227 -10c-40 0 -67 7 -77 13l34 162c11 -3 35 -8 78 -8c110 0 193 44 273 151l-251 1135h189l189 -929h16l574 929h205l-687 -1071c-160 -249 -292 -382 -543 -382zM1122 1560h-154l281 289h194zM802 1560h-154l281 289h194z" />
    <glyph glyph-name="uniF4CC" horiz-adv-x="1247" 
d="M227 -10c-40 0 -67 7 -77 13l34 162c11 -3 35 -8 78 -8c110 0 193 44 273 151l-251 1135h189l189 -929h16l574 929h205l-687 -1071c-160 -249 -292 -382 -543 -382zM964 1560h-162l281 289h202z" />
    <glyph glyph-name="uniF464" horiz-adv-x="1247" 
d="M227 -10c-40 0 -67 7 -77 13l34 162c11 -3 35 -8 78 -8c110 0 193 44 273 151l-251 1135h189l189 -929h16l574 929h205l-687 -1071c-160 -249 -292 -382 -543 -382zM964 1560h-162l281 289h202z" />
    <glyph glyph-name="Efcyrillic" unicode="&#x424;" horiz-adv-x="1614" 
d="M832 -20h-178l32 151c-324 14 -523 202 -523 492c0 390 328 686 776 699l30 141h178l-30 -141c324 -14 523 -202 523 -492c0 -390 -328 -686 -776 -699zM346 627c0 -201 141 -328 374 -335l185 869c-322 -13 -559 -239 -559 -534zM1457 826c0 201 -141 328 -374 335
l-185 -869c323 13 559 239 559 534z" />
    <glyph glyph-name="Xacyrillic" unicode="&#x425;" horiz-adv-x="1314" 
d="M-15 0l652 734l-333 709h206l262 -581h8l504 581h232l-651 -734l332 -709h-206l-262 582h-8l-504 -582h-232z" />
    <glyph glyph-name="uni04B2" unicode="&#x4b2;" horiz-adv-x="1367" 
d="M865 709l256 -547h171l-95 -447h-167l61 285h-96h-4l-262 582h-8l-504 -582h-232l652 734l-333 709h206l262 -581h8l504 581h232z" />
    <glyph glyph-name="uni04FE" unicode="&#x4fe;" horiz-adv-x="1314" 
d="M1516 1443l-577 -651h311l-30 -141h-328l305 -651h-206l-262 582h-8l-504 -582h-232l578 651h-322l30 141h339l-306 651h206l262 -581h8l504 581h232z" />
    <glyph glyph-name="uni04FC" unicode="&#x4fc;" horiz-adv-x="1309" 
d="M304 1443h206l262 -581h8l504 581h232l-651 -733l178 -381c37 -79 63 -144 85 -212c20 -61 27 -105 27 -165c0 -202 -149 -341 -366 -341c-42 0 -68 2 -86 6l31 147c12 -3 32 -5 55 -5c107 0 187 76 187 177c0 34 -4 63 -15 98c-17 58 -41 121 -74 194l-158 354h-8
l-504 -582h-231l651 733z" />
    <glyph glyph-name="Tsecyrillic" unicode="&#x426;" horiz-adv-x="1527" 
d="M1342 -285h-167l61 285h-1146l309 1443h184l-272 -1279h760l272 1279h187l-273 -1281h180z" />
    <glyph glyph-name="uni04B4" unicode="&#x4b4;" horiz-adv-x="1871" 
d="M1874 1443l-273 -1281h180l-95 -447h-167l61 285h-1146l274 1281h-440l34 162h441h184h441l-34 -162h-441l-238 -1117h760l272 1279h187z" />
    <glyph glyph-name="Checyrillic" unicode="&#x427;" horiz-adv-x="1327" 
d="M1122 0h-184l138 649h-16c-95 -70 -227 -113 -375 -113c-333 0 -491 235 -426 542l78 365h184l-78 -365c-45 -213 36 -376 275 -376c180 0 324 66 398 136l129 605h184z" />
    <glyph glyph-name="uni04F4" unicode="&#x4f4;" horiz-adv-x="1327" 
d="M1122 0h-184l138 649h-16c-95 -70 -227 -113 -375 -113c-333 0 -491 235 -426 542l78 365h184l-78 -365c-45 -213 36 -376 275 -376c180 0 324 66 398 136l129 605h184zM787 1618c-60 0 -110 49 -110 110s50 110 110 110s110 -49 110 -110s-50 -110 -110 -110zM1159 1618
c-60 0 -110 49 -110 110s50 110 110 110s110 -49 110 -110s-50 -110 -110 -110z" />
    <glyph glyph-name="uni04B6" unicode="&#x4b6;" horiz-adv-x="1425" 
d="M1429 1443l-273 -1281h179l-95 -447h-167l61 285h-12h-184l138 649h-16c-95 -70 -227 -113 -375 -113c-333 0 -491 235 -426 542l78 365h184l-78 -365c-45 -213 36 -376 275 -376c180 0 324 66 398 136l129 605h184z" />
    <glyph glyph-name="uni04CB" unicode="&#x4cb;" horiz-adv-x="1327" 
d="M1245 1443h184l-307 -1443h-184h-12l-66 -285h-167l104 447h175l104 487h-16c-95 -70 -227 -113 -375 -113c-333 0 -491 235 -426 542l78 365h184l-78 -365c-45 -213 36 -376 275 -376c180 0 324 66 398 136z" />
    <glyph glyph-name="uniF4C6" horiz-adv-x="1327" 
d="M1245 1443h184l-307 -1443l-11 -53c-49 -235 -159 -322 -407 -322h-30l33 152h26c117 0 168 42 196 179l9 44l138 649h-16c-95 -70 -227 -113 -375 -113c-333 0 -491 235 -426 542l78 365h184l-78 -365c-45 -213 36 -376 275 -376c180 0 324 66 398 136z" />
    <glyph glyph-name="uni04B8" unicode="&#x4b8;" horiz-adv-x="1327" 
d="M1245 1443h184l-307 -1443h-184l138 648h-16c-74 -55 -171 -92 -281 -106l-62 -292h-145l61 288c-297 23 -436 249 -374 540l78 365h184l-78 -365c-42 -198 25 -352 226 -374l71 334h145l-70 -330c134 19 241 73 301 130z" />
    <glyph glyph-name="uni04BA" unicode="&#x4ba;" horiz-adv-x="1338" 
d="M392 1443h184l-132 -618h16c94 64 224 112 365 112c364 0 501 -235 439 -530l-87 -407h-184l87 408c48 223 -53 363 -290 363c-154 0 -294 -59 -386 -136l-135 -635h-184z" />
    <glyph glyph-name="uniF49E" horiz-adv-x="1338" 
d="M444 825h16c94 64 224 112 365 112c364 0 501 -235 439 -530l-87 -407h-184l87 408c48 223 -53 363 -290 363c-154 0 -294 -59 -386 -136l-135 -635h-184l245 1150h-156l35 162h155l28 131h184l-28 -131h426l-35 -162h-426z" />
    <glyph glyph-name="uni0526" unicode="&#x526;" horiz-adv-x="1480" 
d="M1212 162h178l-95 -447h-167l61 285h-12h-184l87 408c48 223 -53 363 -290 363c-154 0 -294 -59 -386 -136l-135 -635h-184l307 1443h184l-132 -618h16c94 64 224 112 365 112c364 0 501 -235 439 -530z" />
    <glyph glyph-name="Tshecyrillic" unicode="&#x40b;" horiz-adv-x="1678" 
d="M1152 745c-158 0 -312 -92 -395 -210l-114 -535h-184l272 1281h-463l35 162h1110l-35 -162h-463l-110 -518h16c90 76 212 144 366 144c300 0 457 -200 389 -520l-83 -387h-184l84 395c47 222 -41 350 -241 350z" />
    <glyph glyph-name="Shacyrillic" unicode="&#x428;" horiz-adv-x="1878" 
d="M85 0l307 1443h184l-273 -1281h518l273 1281h184l-273 -1281h518l273 1281h184l-307 -1443h-1588z" />
    <glyph glyph-name="Shchacyrillic" unicode="&#x429;" horiz-adv-x="1943" 
d="M1792 -285h-167l61 285h-1601l307 1443h184l-273 -1281h518l273 1281h184l-273 -1281h518l273 1281h184l-273 -1281h180z" />
    <glyph glyph-name="Hardsigncyrillic" unicode="&#x42a;" horiz-adv-x="1426" 
d="M860 0h-570l273 1281h-330l35 162h513l-114 -535h278c270 0 461 -155 461 -406c0 -299 -243 -502 -546 -502zM908 748h-274l-126 -588h333c213 0 377 137 377 331c0 175 -127 257 -310 257z" />
    <glyph glyph-name="Yericyrillic" unicode="&#x42b;" horiz-adv-x="1685" 
d="M703 748h-274l-126 -588h333c213 0 377 137 377 331c0 175 -127 257 -310 257zM85 0l307 1443h184l-114 -535h278c270 0 461 -155 461 -406c0 -299 -243 -502 -546 -502h-570zM1485 0h-184l307 1443h184z" />
    <glyph glyph-name="uni04F8" unicode="&#x4f8;" horiz-adv-x="1685" 
d="M703 748h-274l-126 -588h333c213 0 377 137 377 331c0 175 -127 257 -310 257zM85 0l307 1443h184l-114 -535h278c270 0 461 -155 461 -406c0 -299 -243 -502 -546 -502h-570zM1485 0h-184l307 1443h184zM887 1618c-60 0 -110 49 -110 110s50 110 110 110
s110 -49 110 -110s-50 -110 -110 -110zM1259 1618c-60 0 -110 49 -110 110s50 110 110 110s110 -49 110 -110s-50 -110 -110 -110z" />
    <glyph glyph-name="uniF520" horiz-adv-x="1685" 
d="M703 748h-274l-126 -588h333c213 0 377 137 377 331c0 175 -127 257 -310 257zM85 0l307 1443h184l-114 -535h278c270 0 461 -155 461 -406c0 -299 -243 -502 -546 -502h-570zM1485 0h-184l307 1443h184zM1400 1750l-25 -116h-634l25 116h634z" />
    <glyph glyph-name="uniF536" horiz-adv-x="1685" 
d="M703 748h-274l-126 -588h333c213 0 377 137 377 331c0 175 -127 257 -310 257zM85 0l307 1443h184l-114 -535h278c270 0 461 -155 461 -406c0 -299 -243 -502 -546 -502h-570zM1485 0h-184l307 1443h184zM751 1840h156c-23 -109 42 -180 148 -180c108 0 203 71 226 180
h156c-39 -186 -192 -298 -394 -298c-206 0 -332 112 -292 298z" />
    <glyph glyph-name="uniF465" horiz-adv-x="1685" 
d="M703 748h-274l-126 -588h333c213 0 377 137 377 331c0 175 -127 257 -310 257zM85 0l307 1443h184l-114 -535h278c270 0 461 -155 461 -406c0 -299 -243 -502 -546 -502h-570zM1485 0h-184l307 1443h184zM1124 1560h-162l281 289h202z" />
    <glyph glyph-name="uni048C" unicode="&#x48c;" horiz-adv-x="1411" 
d="M493 160h333c213 0 377 137 377 331c0 175 -127 257 -310 257h-274zM652 908h278c270 0 461 -155 461 -406c0 -299 -243 -502 -546 -502h-570l245 1155h-319l32 152h319l42 199h184l-42 -199h382l-32 -152h-382z" />
    <glyph glyph-name="uni0462" unicode="&#x462;" horiz-adv-x="1411" 
d="M493 160h333c213 0 377 137 377 331c0 175 -127 257 -310 257h-274zM652 908h278c270 0 461 -155 461 -406c0 -299 -243 -502 -546 -502h-570l245 1155h-319l32 152h319l42 199h184l-42 -199h382l-32 -152h-382z" />
    <glyph glyph-name="Softsigncyrillic" unicode="&#x42c;" horiz-adv-x="1221" 
d="M703 748h-274l-126 -588h333c213 0 377 137 377 331c0 175 -127 257 -310 257zM85 0l307 1443h184l-114 -535h278c270 0 461 -155 461 -406c0 -299 -243 -502 -546 -502h-570z" />
    <glyph glyph-name="Ljecyrillic" unicode="&#x409;" horiz-adv-x="2084" 
d="M493 540c-94 -343 -210 -549 -488 -549c-27 0 -52 4 -68 10l34 161c11 -3 37 -6 53 -6c162 0 236 165 297 391l243 896h871l-110 -515h278c270 0 461 -160 461 -411c0 -260 -223 -517 -550 -517h-570l273 1281h-521zM1566 768h-274l-130 -608h333c215 0 381 148 381 330
c0 192 -127 278 -310 278z" />
    <glyph glyph-name="Njecyrillic" unicode="&#x40a;" horiz-adv-x="2092" 
d="M982 0l140 657h-709l-140 -657h-183l307 1443h184l-133 -624h708l133 624h184l-133 -625h301c252 0 431 -141 431 -361c0 -230 -200 -457 -520 -457h-570zM1200 160h333c220 0 351 121 351 276c0 151 -115 222 -280 222h-298z" />
    <glyph glyph-name="Ereversedcyrillic" unicode="&#x42d;" horiz-adv-x="1380" 
d="M643 -23c-278 0 -498 185 -514 431h185c36 -167 167 -265 352 -265c256 0 449 192 520 515h-635l33 159h626c12 296 -129 481 -365 481c-184 0 -340 -108 -424 -296h-182c88 291 321 464 625 464c397 0 602 -334 503 -821c-85 -421 -352 -668 -724 -668z" />
    <glyph glyph-name="uni04EC" unicode="&#x4ec;" horiz-adv-x="1380" 
d="M643 -23c-278 0 -498 185 -514 431h185c36 -167 167 -265 352 -265c256 0 449 192 520 515h-635l33 159h626c12 296 -129 481 -365 481c-184 0 -340 -108 -424 -296h-182c88 291 321 464 625 464c397 0 602 -334 503 -821c-85 -421 -352 -668 -724 -668zM727 1618
c-60 0 -110 49 -110 110s50 110 110 110s110 -49 110 -110s-50 -110 -110 -110zM1099 1618c-60 0 -110 49 -110 110s50 110 110 110s110 -49 110 -110s-50 -110 -110 -110z" />
    <glyph glyph-name="uniF522" horiz-adv-x="1380" 
d="M643 -23c-278 0 -498 185 -514 431h185c36 -167 167 -265 352 -265c256 0 449 192 520 515h-635l33 159h626c12 296 -129 481 -365 481c-184 0 -340 -108 -424 -296h-182c88 291 321 464 625 464c397 0 602 -334 503 -821c-85 -421 -352 -668 -724 -668zM1240 1750
l-25 -116h-634l25 116h634z" />
    <glyph glyph-name="uniF466" horiz-adv-x="1380" 
d="M643 -23c-278 0 -498 185 -514 431h185c36 -167 167 -265 352 -265c256 0 449 192 520 515h-635l33 159h626c12 296 -129 481 -365 481c-184 0 -340 -108 -424 -296h-182c88 291 321 464 625 464c397 0 602 -334 503 -821c-85 -421 -352 -668 -724 -668zM964 1560h-162
l281 289h202z" />
    <glyph glyph-name="uniF524" horiz-adv-x="1380" 
d="M643 -23c-278 0 -498 185 -514 431h185c36 -167 167 -265 352 -265c256 0 449 192 520 515h-635l33 159h626c12 296 -129 481 -365 481c-184 0 -340 -108 -424 -296h-182c88 291 321 464 625 464c397 0 602 -334 503 -821c-85 -421 -352 -668 -724 -668zM591 1840h156
c-23 -109 42 -180 148 -180c108 0 203 71 226 180h156c-39 -186 -192 -298 -394 -298c-206 0 -332 112 -292 298z" />
    <glyph glyph-name="uniF4D6" horiz-adv-x="1380" 
d="M643 -23c-278 0 -498 185 -514 431h185c36 -167 167 -265 352 -265c256 0 449 192 520 515h-635l33 159h626c12 296 -129 481 -365 481c-184 0 -340 -108 -424 -296h-182c88 291 321 464 625 464c397 0 602 -334 503 -821c-85 -421 -352 -668 -724 -668zM915 1611
c-68 0 -124 56 -124 124s56 124 124 124s124 -56 124 -124s-56 -124 -124 -124z" />
    <glyph glyph-name="IUcyrillic" unicode="&#x42e;" horiz-adv-x="2018" 
d="M1277 142c333 0 561 309 561 689c0 287 -160 470 -410 470c-333 0 -561 -309 -561 -689c0 -287 160 -470 410 -470zM443 819h261c78 370 358 647 724 647c359 0 595 -249 595 -629c0 -472 -313 -860 -746 -860c-359 0 -595 249 -595 629c0 17 0 34 1 51h-275l-140 -657
h-183l307 1443h184z" />
    <glyph glyph-name="uniF52C" horiz-adv-x="2018" 
d="M1425 1750l-25 -116h-634l25 116h634zM1277 142c333 0 561 309 561 689c0 287 -160 470 -410 470c-333 0 -561 -309 -561 -689c0 -287 160 -470 410 -470zM443 819h261c78 370 358 647 724 647c359 0 595 -249 595 -629c0 -472 -313 -860 -746 -860
c-359 0 -595 249 -595 629c0 17 0 34 1 51h-275l-140 -657h-183l307 1443h184z" />
    <glyph glyph-name="uniF467" horiz-adv-x="2018" 
d="M1470 1849l-321 -289h-162l281 289h202zM1277 142c333 0 561 309 561 689c0 287 -160 470 -410 470c-333 0 -561 -309 -561 -689c0 -287 160 -470 410 -470zM443 819h261c78 370 358 647 724 647c359 0 595 -249 595 -629c0 -472 -313 -860 -746 -860
c-359 0 -595 249 -595 629c0 17 0 34 1 51h-275l-140 -657h-183l307 1443h184z" />
    <glyph glyph-name="uniF52E" horiz-adv-x="2018" 
d="M1306 1840h156c-39 -186 -192 -298 -394 -298c-206 0 -332 112 -292 298h156c-23 -109 42 -180 148 -180c108 0 203 71 226 180zM1277 142c333 0 561 309 561 689c0 287 -160 470 -410 470c-333 0 -561 -309 -561 -689c0 -287 160 -470 410 -470zM443 819h261
c78 370 358 647 724 647c359 0 595 -249 595 -629c0 -472 -313 -860 -746 -860c-359 0 -595 249 -595 629c0 17 0 34 1 51h-275l-140 -657h-183l307 1443h184z" />
    <glyph glyph-name="uniF498" horiz-adv-x="2018" 
d="M1284 1618c-60 0 -110 49 -110 110s50 110 110 110s110 -49 110 -110s-50 -110 -110 -110zM912 1618c-60 0 -110 49 -110 110s50 110 110 110s110 -49 110 -110s-50 -110 -110 -110zM1277 142c333 0 561 309 561 689c0 287 -160 470 -410 470c-333 0 -561 -309 -561 -689
c0 -287 160 -470 410 -470zM443 819h261c78 370 358 647 724 647c359 0 595 -249 595 -629c0 -472 -313 -860 -746 -860c-359 0 -595 249 -595 629c0 17 0 34 1 51h-275l-140 -657h-183l307 1443h184z" />
    <glyph glyph-name="IAcyrillic" unicode="&#x42f;" horiz-adv-x="1268" 
d="M748 695h279l125 588h-333c-215 0 -381 -144 -381 -320c0 -185 127 -268 310 -268zM730 535l-497 -535h-236l525 564c-166 56 -272 189 -272 372c0 255 223 507 550 507h570l-307 -1443h-184l114 535h-263v0z" />
    <glyph glyph-name="uniF528" horiz-adv-x="1268" 
d="M748 695h279l125 588h-333c-215 0 -381 -144 -381 -320c0 -185 127 -268 310 -268zM730 535l-497 -535h-236l525 564c-166 56 -272 189 -272 372c0 255 223 507 550 507h570l-307 -1443h-184l114 535h-263v0zM1300 1750l-25 -116h-634l25 116h634z" />
    <glyph glyph-name="uniF468" horiz-adv-x="1268" 
d="M748 695h279l125 588h-333c-215 0 -381 -144 -381 -320c0 -185 127 -268 310 -268zM730 535l-497 -535h-236l525 564c-166 56 -272 189 -272 372c0 255 223 507 550 507h570l-307 -1443h-184l114 535h-263v0zM1024 1560h-162l281 289h202z" />
    <glyph glyph-name="uniF4D9" horiz-adv-x="1268" 
d="M748 695h279l125 588h-333c-215 0 -381 -144 -381 -320c0 -185 127 -268 310 -268zM730 535l-497 -535h-236l525 564c-166 56 -272 189 -272 372c0 255 223 507 550 507h570l-307 -1443h-184l114 535h-263v0zM787 1618c-60 0 -110 49 -110 110s50 110 110 110
s110 -49 110 -110s-50 -110 -110 -110zM1159 1618c-60 0 -110 49 -110 110s50 110 110 110s110 -49 110 -110s-50 -110 -110 -110z" />
    <glyph glyph-name="uniF52A" horiz-adv-x="1268" 
d="M748 695h279l125 588h-333c-215 0 -381 -144 -381 -320c0 -185 127 -268 310 -268zM730 535l-497 -535h-236l525 564c-166 56 -272 189 -272 372c0 255 223 507 550 507h570l-307 -1443h-184l114 535h-263v0zM651 1840h156c-23 -109 42 -180 148 -180
c108 0 203 71 226 180h156c-39 -186 -192 -298 -394 -298c-206 0 -332 112 -292 298z" />
    <glyph glyph-name="uni0494" unicode="&#x494;" horiz-adv-x="1294" 
d="M1197 1443l-35 -162h-625l-110 -520h16c87 80 214 146 389 146c245 0 392 -147 392 -375c0 -278 -209 -548 -525 -548c-78 0 -132 8 -154 18l35 161c23 -9 75 -16 124 -16c213 0 336 192 336 370c0 140 -94 228 -254 228c-159 0 -327 -90 -407 -210l-114 -535h-180
l307 1443h805z" />
    <glyph glyph-name="uni04A6" unicode="&#x4a6;" horiz-adv-x="2185" 
d="M392 1443h1071l-145 -682h16c87 80 214 146 389 146c245 0 392 -147 392 -375c0 -278 -209 -548 -525 -548c-78 0 -132 8 -154 18l35 161c23 -9 75 -16 124 -16c213 0 336 192 336 370c0 140 -94 228 -254 228c-159 0 -327 -90 -407 -210l-114 -535h-178l272 1279h-712
l-272 -1279h-181z" />
    <glyph glyph-name="Ecyrillic" unicode="&#x404;" horiz-adv-x="1409" 
d="M1347 402c-92 -269 -327 -436 -622 -436c-395 0 -627 300 -513 834c84 397 351 677 749 677c268 0 508 -184 515 -454v-15h-183c-9 186 -159 303 -355 303c-259 0 -459 -198 -536 -492h652l-34 -162h-647c-35 -326 103 -525 371 -525c202 0 354 123 420 270h183z" />
    <glyph glyph-name="uniF526" horiz-adv-x="1409" 
d="M1347 402c-92 -269 -327 -436 -622 -436c-395 0 -627 300 -513 834c84 397 351 677 749 677c268 0 508 -184 515 -454v-15h-183c-9 186 -159 303 -355 303c-259 0 -459 -198 -536 -492h652l-34 -162h-647c-35 -326 103 -525 371 -525c202 0 354 123 420 270h183z
M832 1618c-60 0 -110 49 -110 110s50 110 110 110s110 -49 110 -110s-50 -110 -110 -110zM1204 1618c-60 0 -110 49 -110 110s50 110 110 110s110 -49 110 -110s-50 -110 -110 -110z" />
    <glyph glyph-name="uni04C0" unicode="&#x4c0;" horiz-adv-x="474" 
d="M269 0h-184l307 1443h184z" />
    <glyph glyph-name="Icyrillic" unicode="&#x406;" horiz-adv-x="474" 
d="M269 0h-184l307 1443h184z" />
    <glyph glyph-name="Yicyrillic" unicode="&#x407;" horiz-adv-x="474" 
d="M269 0h-184l307 1443h184zM355 1618c-60 0 -110 49 -110 110s50 110 110 110s110 -49 110 -110s-50 -110 -110 -110zM727 1618c-60 0 -110 49 -110 110s50 110 110 110s110 -49 110 -110s-50 -110 -110 -110z" />
    <glyph glyph-name="uni04C0.1" horiz-adv-x="924" 
d="M1042 1289h-274l-241 -1135h274l-33 -154h-274h-184h-274l33 154h274l241 1135h-274l33 154h274h184h274z" />
    <glyph glyph-name="Icyrillic.1" horiz-adv-x="924" 
d="M1042 1289h-274l-241 -1135h274l-33 -154h-274h-184h-274l33 154h274l241 1135h-274l33 154h274h184h274z" />
    <glyph glyph-name="Yicyrillic.1" horiz-adv-x="924" 
d="M950 1618c-60 0 -110 49 -110 110s50 110 110 110s110 -49 110 -110s-50 -110 -110 -110zM578 1618c-60 0 -110 49 -110 110s50 110 110 110s110 -49 110 -110s-50 -110 -110 -110zM1042 1289h-274l-241 -1135h274l-33 -154h-274h-184h-274l33 154h274l241 1135h-274
l33 154h274h184h274z" />
    <glyph glyph-name="uni04A8" unicode="&#x4a8;" horiz-adv-x="1923" 
d="M1427 1137c-200 0 -360 -209 -360 -471c0 -169 73 -333 191 -435c255 113 416 340 416 596c0 197 -90 310 -247 310zM980 1487l-38 -179c-359 -58 -574 -300 -574 -647c0 -299 216 -519 511 -519c71 0 137 9 204 27c-122 126 -202 315 -202 487c0 364 240 646 549 646
c275 0 432 -166 432 -456c0 -300 -187 -579 -460 -703c35 -9 79 -13 135 -13c104 0 202 24 268 66l42 -146c-90 -50 -190 -73 -318 -73c-123 0 -221 25 -310 80c-102 -52 -229 -80 -362 -80c-408 0 -682 278 -682 690c0 447 336 789 805 820z" />
    <glyph glyph-name="uni04AE" unicode="&#x4ae;" horiz-adv-x="1266" 
d="M667 0h-185l132 630l-336 813h190l266 -658h4l536 658h208l-689 -839z" />
    <glyph glyph-name="uniF43A" horiz-adv-x="1266" 
d="M667 0h-185l132 630l-336 813h190l266 -658h4l536 658h208l-689 -839zM1262 1750l-25 -116h-634l25 116h634z" />
    <glyph glyph-name="uni04B0" unicode="&#x4b0;" horiz-adv-x="1256" 
d="M1477 1443l-629 -766h371l-33 -154h-415l-109 -523h-185l110 523h-424l33 154h394l-317 766h190l266 -658h4l536 658h208z" />
    <glyph glyph-name="uni04BC" unicode="&#x4bc;" horiz-adv-x="1730" 
d="M671 860h884c1 7 1 8 1 39c0 250 -145 399 -387 399c-230 0 -428 -174 -498 -438zM1730 706h-1089c-4 -22 -6 -58 -6 -102c0 -284 154 -458 404 -458c184 0 325 74 409 216h197c-101 -238 -333 -385 -607 -385c-367 0 -587 232 -587 619c0 37 2 74 5 110h-17
c-171 0 -273 91 -273 243c0 75 28 157 77 225h153c-48 -83 -69 -142 -69 -194c0 -82 41 -120 128 -120h28c91 356 361 606 694 606c359 0 569 -219 569 -592c0 -62 -4 -106 -16 -168z" />
    <glyph glyph-name="uni04BE" unicode="&#x4be;" horiz-adv-x="1730" 
d="M671 860h884c1 7 1 8 1 39c0 250 -145 399 -387 399c-230 0 -428 -174 -498 -438zM1730 706h-1089c-4 -22 -6 -58 -6 -102c0 -284 154 -458 404 -458c184 0 325 74 409 216h197c-92 -218 -295 -360 -539 -382l-56 -265h-162l57 267c-311 37 -494 261 -494 614
c0 37 2 74 5 110h-17c-171 0 -273 91 -273 243c0 75 28 157 77 225h153c-48 -83 -69 -142 -69 -194c0 -82 41 -120 128 -120h28c91 356 361 606 694 606c359 0 569 -219 569 -592c0 -62 -4 -106 -16 -168z" />
    <glyph glyph-name="uni04D4" unicode="&#x4d4;" horiz-adv-x="1879" 
d="M1153 1292h-146l-454 -680h455zM878 0l98 459h-523l-304 -459h-194l958 1443h1110l-35 -162h-654l-100 -473h617l-34 -160h-617l-104 -486h654l-34 -162h-838z" />
    <glyph glyph-name="uni04D8" unicode="&#x18f;" horiz-adv-x="1467" 
d="M740 -23c-359 0 -569 219 -569 592c0 62 4 106 16 168h1087c6 42 9 76 9 102c0 284 -154 458 -405 458c-184 0 -325 -74 -409 -216h-197c101 238 333 385 607 385c367 0 587 -232 587 -619c0 -511 -300 -870 -726 -870zM748 145c240 0 429 167 496 438h-882
c-1 -7 -1 -7 -1 -39c0 -250 145 -399 387 -399z" />
    <glyph glyph-name="uni04D8" unicode="&#x4d8;" horiz-adv-x="1467" 
d="M740 -23c-359 0 -569 219 -569 592c0 62 4 106 16 168h1087c6 42 9 76 9 102c0 284 -154 458 -405 458c-184 0 -325 -74 -409 -216h-197c101 238 333 385 607 385c367 0 587 -232 587 -619c0 -511 -300 -870 -726 -870zM748 145c240 0 429 167 496 438h-882
c-1 -7 -1 -7 -1 -39c0 -250 145 -399 387 -399z" />
    <glyph glyph-name="uni04DA" unicode="&#x4da;" horiz-adv-x="1467" 
d="M740 -23c-359 0 -569 219 -569 592c0 62 4 106 16 168h1087c6 42 9 76 9 102c0 284 -154 458 -405 458c-184 0 -325 -74 -409 -216h-197c101 238 333 385 607 385c367 0 587 -232 587 -619c0 -511 -300 -870 -726 -870zM748 145c240 0 429 167 496 438h-882
c-1 -7 -1 -7 -1 -39c0 -250 145 -399 387 -399zM752 1618c-60 0 -110 49 -110 110s50 110 110 110s110 -49 110 -110s-50 -110 -110 -110zM1124 1618c-60 0 -110 49 -110 110s50 110 110 110s110 -49 110 -110s-50 -110 -110 -110z" />
    <glyph glyph-name="uniF49C" horiz-adv-x="1467" 
d="M740 -23c-359 0 -569 219 -569 592c0 62 4 106 16 168h1087c6 42 9 76 9 102c0 284 -154 458 -405 458c-184 0 -325 -74 -409 -216h-197c101 238 333 385 607 385c367 0 587 -232 587 -619c0 -511 -300 -870 -726 -870zM748 145c240 0 429 167 496 438h-882
c-1 -7 -1 -7 -1 -39c0 -250 145 -399 387 -399zM1265 1750l-25 -116h-634l25 116h634z" />
    <glyph glyph-name="uni04E0" unicode="&#x4e0;" horiz-adv-x="1181" 
d="M582 -24c-306 0 -507 174 -490 423v0h174c0 -164 126 -266 330 -266c195 0 342 135 342 315c0 171 -124 271 -336 271h-119l28 136l479 410l3 16h-654l35 162h932l-27 -128l-556 -465v0c260 -12 400 -171 400 -378c0 -291 -224 -496 -541 -496z" />
    <glyph glyph-name="uni0510" unicode="&#x510;" horiz-adv-x="1187" 
d="M866 662h-191c-243 0 -385 -101 -385 -275c0 -149 128 -254 318 -254c199 0 325 89 357 247h181c-42 -256 -239 -404 -547 -404c-300 0 -495 159 -495 397c0 213 155 369 387 389l1 5c-119 35 -199 151 -199 290c0 241 211 410 506 410c296 0 487 -165 453 -398h-164
c7 151 -110 243 -300 243c-180 0 -317 -102 -317 -242c0 -148 117 -246 295 -246h132z" />
    <glyph glyph-name="uniF538" horiz-adv-x="1187" 
d="M866 662h-191c-243 0 -385 -101 -385 -275c0 -149 128 -254 318 -254c199 0 325 89 357 247h181c-42 -256 -239 -404 -547 -404c-300 0 -495 159 -495 397c0 213 155 369 387 389l1 5c-119 35 -199 151 -199 290c0 241 211 410 506 410c296 0 487 -165 453 -398h-164
c7 151 -110 243 -300 243c-180 0 -317 -102 -317 -242c0 -148 117 -246 295 -246h132zM704 1620c-60 0 -110 49 -110 110s50 110 110 110s110 -49 110 -110s-50 -110 -110 -110zM1076 1620c-60 0 -110 49 -110 110s50 110 110 110s110 -49 110 -110s-50 -110 -110 -110z" />
    <glyph glyph-name="uni0474" unicode="&#x474;" horiz-adv-x="1457" 
d="M683 0h-182l-223 1443h174l182 -1206h4l561 996c47 84 93 142 145 179c51 38 108 54 175 54c70 0 136 -15 175 -40l-83 -147c-31 12 -58 18 -83 18c-36 0 -65 -9 -94 -35c-30 -26 -60 -70 -100 -139z" />
    <glyph glyph-name="uni051C" unicode="&#x51c;" horiz-adv-x="1906" 
d="M1130 1147l-567 -1147h-177l-87 1443h169l58 -1167h4l572 1167h170l96 -1165h4l539 1165h190l-690 -1443h-177l-100 1147h-4z" />
    <glyph glyph-name="Djecyrillic" unicode="&#x402;" horiz-adv-x="1669" 
d="M459 0l272 1281h-463l35 162h1110l-35 -162h-463l-110 -520h12c79 89 216 146 350 146c271 0 432 -157 432 -419c0 -300 -206 -504 -509 -504c-68 0 -145 8 -169 18l35 161c22 -9 83 -16 134 -16c188 0 325 135 325 322c0 175 -98 276 -268 276
c-144 0 -309 -89 -390 -210l-114 -535h-184z" />
    <glyph glyph-name="Dzecyrillic" unicode="&#x405;" horiz-adv-x="1237" 
d="M105 424h181c20 -168 162 -284 381 -284c185 0 328 87 328 245c0 130 -77 196 -255 252l-96 30c-239 75 -356 190 -356 385c0 247 205 414 499 414c293 0 507 -159 507 -418h-180c-7 150 -128 255 -329 255c-207 0 -311 -116 -311 -237c0 -111 77 -180 252 -235l96 -30
c240 -75 362 -195 362 -378c0 -226 -177 -446 -519 -446c-300 0 -550 167 -560 447z" />
    <glyph glyph-name="Jecyrillic" unicode="&#x408;" horiz-adv-x="1036" 
d="M70 330v22h182v-1c0 -128 87 -206 222 -206c140 0 224 89 262 269l218 1029h184l-227 -1070c-53 -252 -209 -397 -455 -397c-223 0 -386 153 -386 354z" />
    <glyph glyph-name="a" unicode="a" horiz-adv-x="1018" 
d="M446 130c149 0 277 96 308 235l26 116l-284 -15c-156 -8 -246 -72 -246 -177c0 -97 80 -159 196 -159zM400 -18c-179 0 -326 119 -326 289c0 204 158 319 424 333l311 16l14 65c4 17 4 33 4 51c0 104 -73 169 -207 169c-141 0 -224 -69 -245 -168h-182
c31 187 199 321 441 321c222 0 368 -122 368 -297c0 -33 -3 -64 -7 -88l-143 -673h-167l27 127h-3c-71 -89 -181 -145 -309 -145z" />
    <glyph glyph-name="agrave" unicode="&#xe0;" horiz-adv-x="1018" 
d="M446 130c149 0 277 96 308 235l26 116l-284 -15c-156 -8 -246 -72 -246 -177c0 -97 80 -159 196 -159zM400 -18c-179 0 -326 119 -326 289c0 204 158 319 424 333l311 16l14 65c4 17 4 33 4 51c0 104 -73 169 -207 169c-141 0 -224 -69 -245 -168h-182
c31 187 199 321 441 321c222 0 368 -122 368 -297c0 -33 -3 -64 -7 -88l-143 -673h-167l27 127h-3c-71 -89 -181 -145 -309 -145zM767 1208h-140l-182 300h176z" />
    <glyph glyph-name="aacute" unicode="&#xe1;" horiz-adv-x="1018" 
d="M446 130c149 0 277 96 308 235l26 116l-284 -15c-156 -8 -246 -72 -246 -177c0 -97 80 -159 196 -159zM400 -18c-179 0 -326 119 -326 289c0 204 158 319 424 333l311 16l14 65c4 17 4 33 4 51c0 104 -73 169 -207 169c-141 0 -224 -69 -245 -168h-182
c31 187 199 321 441 321c222 0 368 -122 368 -297c0 -33 -3 -64 -7 -88l-143 -673h-167l27 127h-3c-71 -89 -181 -145 -309 -145zM759 1208h-160l274 300h196z" />
    <glyph glyph-name="adieresis" unicode="&#xe4;" horiz-adv-x="1018" 
d="M446 130c149 0 277 96 308 235l26 116l-284 -15c-156 -8 -246 -72 -246 -177c0 -97 80 -159 196 -159zM400 -18c-179 0 -326 119 -326 289c0 204 158 319 424 333l311 16l14 65c4 17 4 33 4 51c0 104 -73 169 -207 169c-141 0 -224 -69 -245 -168h-182
c31 187 199 321 441 321c222 0 368 -122 368 -297c0 -33 -3 -64 -7 -88l-143 -673h-167l27 127h-3c-71 -89 -181 -145 -309 -145zM521 1215c-60 0 -110 49 -110 110s50 110 110 110s110 -49 110 -110s-50 -110 -110 -110zM893 1215c-60 0 -110 49 -110 110s50 110 110 110
s110 -49 110 -110s-50 -110 -110 -110z" />
    <glyph glyph-name="adieresismacron" unicode="&#x1df;" horiz-adv-x="1018" 
d="M446 130c149 0 277 96 308 235l26 116l-284 -15c-156 -8 -246 -72 -246 -177c0 -97 80 -159 196 -159zM400 -18c-179 0 -326 119 -326 289c0 204 158 319 424 333l311 16l14 65c4 17 4 33 4 51c0 104 -73 169 -207 169c-141 0 -224 -69 -245 -168h-182
c31 187 199 321 441 321c222 0 368 -122 368 -297c0 -33 -3 -64 -7 -88l-143 -673h-167l27 127h-3c-71 -89 -181 -145 -309 -145zM523 1205c-60 0 -110 49 -110 110s50 110 110 110s110 -49 110 -110s-50 -110 -110 -110zM895 1205c-60 0 -110 49 -110 110s50 110 110 110
s110 -49 110 -110s-50 -110 -110 -110zM1079 1706l-24 -116h-574l24 116h574z" />
    <glyph glyph-name="aring" unicode="&#xe5;" horiz-adv-x="1018" 
d="M446 130c149 0 277 96 308 235l26 116l-284 -15c-156 -8 -246 -72 -246 -177c0 -97 80 -159 196 -159zM400 -18c-179 0 -326 119 -326 289c0 204 158 319 424 333l311 16l14 65c4 17 4 33 4 51c0 104 -73 169 -207 169c-141 0 -224 -69 -245 -168h-182
c31 187 199 321 441 321c222 0 368 -122 368 -297c0 -33 -3 -64 -7 -88l-143 -673h-167l27 127h-3c-71 -89 -181 -145 -309 -145zM706 1152c-102 0 -187 68 -187 182c0 118 85 200 195 200c104 0 189 -68 188 -182c-1 -118 -84 -200 -196 -200zM706 1238
c64 0 107 42 106 111c-1 61 -40 99 -98 99c-62 0 -105 -42 -105 -111c0 -61 41 -99 97 -99z" />
    <glyph glyph-name="aringacute" unicode="&#x1fb;" horiz-adv-x="1018" 
d="M446 130c149 0 277 96 308 235l26 116l-284 -15c-156 -8 -246 -72 -246 -177c0 -97 80 -159 196 -159zM400 -18c-179 0 -326 119 -326 289c0 204 158 319 424 333l311 16l14 65c4 17 4 33 4 51c0 104 -73 169 -207 169c-141 0 -224 -69 -245 -168h-182
c31 187 199 321 441 321c222 0 368 -122 368 -297c0 -33 -3 -64 -7 -88l-143 -673h-167l27 127h-3c-71 -89 -181 -145 -309 -145zM706 1630l164 196h164l-182 -196h-146zM712 1172c-102 0 -187 68 -187 182c0 118 85 200 195 200c104 0 189 -68 188 -182
c-1 -118 -84 -200 -196 -200zM615 1357c0 -61 41 -99 97 -99c64 0 107 42 106 111c-1 61 -40 99 -98 99c-62 0 -105 -42 -105 -111z" />
    <glyph glyph-name="atilde" unicode="&#xe3;" horiz-adv-x="1018" 
d="M446 130c149 0 277 96 308 235l26 116l-284 -15c-156 -8 -246 -72 -246 -177c0 -97 80 -159 196 -159zM400 -18c-179 0 -326 119 -326 289c0 204 158 319 424 333l311 16l14 65c4 17 4 33 4 51c0 104 -73 169 -207 169c-141 0 -224 -69 -245 -168h-182
c31 187 199 321 441 321c222 0 368 -122 368 -297c0 -33 -3 -64 -7 -88l-143 -673h-167l27 127h-3c-71 -89 -181 -145 -309 -145zM827 1216c-132 0 -158 152 -237 152c-46 0 -89 -49 -105 -142h-118c29 160 118 255 232 255c141 0 162 -152 237 -152c42 0 83 47 103 143h118
c-32 -156 -121 -256 -230 -256z" />
    <glyph glyph-name="abrevegrave" unicode="&#x1eb1;" horiz-adv-x="1018" 
d="M446 130c149 0 277 96 308 235l26 116l-284 -15c-156 -8 -246 -72 -246 -177c0 -97 80 -159 196 -159zM400 -18c-179 0 -326 119 -326 289c0 204 158 319 424 333l311 16l14 65c4 17 4 33 4 51c0 104 -73 169 -207 169c-141 0 -224 -69 -245 -168h-182
c31 187 199 321 441 321c222 0 368 -122 368 -297c0 -33 -3 -64 -7 -88l-143 -673h-167l27 127h-3c-71 -89 -181 -145 -309 -145zM835 1530h-130l-168 296h152zM1071 1508c-41 -194 -180 -310 -384 -310c-150 0 -268 95 -268 236c0 28 4 53 10 74h126c-4 -14 -8 -33 -8 -52
c0 -93 62 -150 159 -150c114 0 212 76 239 202h126z" />
    <glyph glyph-name="adotmacron" unicode="&#x1e1;" horiz-adv-x="1018" 
d="M446 130c149 0 277 96 308 235l26 116l-284 -15c-156 -8 -246 -72 -246 -177c0 -97 80 -159 196 -159zM400 -18c-179 0 -326 119 -326 289c0 204 158 319 424 333l311 16l14 65c4 17 4 33 4 51c0 104 -73 169 -207 169c-141 0 -224 -69 -245 -168h-182
c31 187 199 321 441 321c222 0 368 -122 368 -297c0 -33 -3 -64 -7 -88l-143 -673h-167l27 127h-3c-71 -89 -181 -145 -309 -145zM709 1195c-67 0 -119 52 -119 119s52 119 119 119s119 -52 119 -119s-52 -119 -119 -119zM1079 1706l-24 -116h-574l24 116h574z" />
    <glyph glyph-name="aringbelow" unicode="&#x1e01;" horiz-adv-x="1018" 
d="M446 130c149 0 277 96 308 235l26 116l-284 -15c-156 -8 -246 -72 -246 -177c0 -97 80 -159 196 -159zM400 -18c-179 0 -326 119 -326 289c0 204 158 319 424 333l311 16l14 65c4 17 4 33 4 51c0 104 -73 169 -207 169c-141 0 -224 -69 -245 -168h-182
c31 187 199 321 441 321c222 0 368 -122 368 -297c0 -33 -3 -64 -7 -88l-143 -673h-167l27 127h-3c-71 -89 -181 -145 -309 -145zM409 -500c-102 0 -187 68 -187 182c0 118 85 200 195 200c104 0 189 -68 188 -182c-1 -118 -84 -200 -196 -200zM409 -414
c64 0 107 42 106 111c-1 61 -40 99 -98 99c-62 0 -105 -42 -105 -111c0 -61 41 -99 97 -99z" />
    <glyph glyph-name="acircumflex" unicode="&#xe2;" horiz-adv-x="1018" 
d="M446 130c149 0 277 96 308 235l26 116l-284 -15c-156 -8 -246 -72 -246 -177c0 -97 80 -159 196 -159zM400 -18c-179 0 -326 119 -326 289c0 204 158 319 424 333l311 16l14 65c4 17 4 33 4 51c0 104 -73 169 -207 169c-141 0 -224 -69 -245 -168h-182
c31 187 199 321 441 321c222 0 368 -122 368 -297c0 -33 -3 -64 -7 -88l-143 -673h-167l27 127h-3c-71 -89 -181 -145 -309 -145zM819 1508l208 -300h-158l-132 192h-6l-214 -192h-168l336 300h134z" />
    <glyph glyph-name="acircumflexdotbelow" unicode="&#x1ead;" horiz-adv-x="1018" 
d="M446 130c149 0 277 96 308 235l26 116l-284 -15c-156 -8 -246 -72 -246 -177c0 -97 80 -159 196 -159zM400 -18c-179 0 -326 119 -326 289c0 204 158 319 424 333l311 16l14 65c4 17 4 33 4 51c0 104 -73 169 -207 169c-141 0 -224 -69 -245 -168h-182
c31 187 199 321 441 321c222 0 368 -122 368 -297c0 -33 -3 -64 -7 -88l-143 -673h-167l27 127h-3c-71 -89 -181 -145 -309 -145zM819 1508l208 -300h-158l-132 192h-6l-214 -192h-168l336 300h134zM415 -433c-68 0 -124 56 -124 124s56 124 124 124s124 -56 124 -124
s-56 -124 -124 -124z" />
    <glyph glyph-name="acircumflexacute" unicode="&#x1ea5;" horiz-adv-x="1018" 
d="M446 130c149 0 277 96 308 235l26 116l-284 -15c-156 -8 -246 -72 -246 -177c0 -97 80 -159 196 -159zM400 -18c-179 0 -326 119 -326 289c0 204 158 319 424 333l311 16l14 65c4 17 4 33 4 51c0 104 -73 169 -207 169c-141 0 -224 -69 -245 -168h-182
c31 187 199 321 441 321c222 0 368 -122 368 -297c0 -33 -3 -64 -7 -88l-143 -673h-167l27 127h-3c-71 -89 -181 -145 -309 -145zM802 1488l212 -280h-152l-135 178h-6l-211 -178h-176l332 280h136zM904 1530l272 296h172l-294 -296h-150z" />
    <glyph glyph-name="acircumflextilde" unicode="&#x1eab;" horiz-adv-x="1018" 
d="M446 130c149 0 277 96 308 235l26 116l-284 -15c-156 -8 -246 -72 -246 -177c0 -97 80 -159 196 -159zM400 -18c-179 0 -326 119 -326 289c0 204 158 319 424 333l311 16l14 65c4 17 4 33 4 51c0 104 -73 169 -207 169c-141 0 -224 -69 -245 -168h-182
c31 187 199 321 441 321c222 0 368 -122 368 -297c0 -33 -3 -64 -7 -88l-143 -673h-167l27 127h-3c-71 -89 -181 -145 -309 -145zM802 1488l212 -280h-152l-135 178h-6l-211 -178h-176l332 280h136zM895 1579c-135 0 -164 149 -241 149c-46 0 -86 -48 -99 -130h-116
c28 154 115 240 229 240c133 0 161 -149 240 -149c44 0 80 46 98 131h116c-27 -150 -118 -241 -227 -241z" />
    <glyph glyph-name="acircumflexgrave" unicode="&#x1ea7;" horiz-adv-x="1018" 
d="M446 130c149 0 277 96 308 235l26 116l-284 -15c-156 -8 -246 -72 -246 -177c0 -97 80 -159 196 -159zM400 -18c-179 0 -326 119 -326 289c0 204 158 319 424 333l311 16l14 65c4 17 4 33 4 51c0 104 -73 169 -207 169c-141 0 -224 -69 -245 -168h-182
c31 187 199 321 441 321c222 0 368 -122 368 -297c0 -33 -3 -64 -7 -88l-143 -673h-167l27 127h-3c-71 -89 -181 -145 -309 -145zM1063 1530h-130l-168 296h152zM802 1488l212 -280h-152l-135 178h-6l-211 -178h-176l332 280h136z" />
    <glyph glyph-name="acircumflexhookabove" unicode="&#x1ea9;" horiz-adv-x="1018" 
d="M446 130c149 0 277 96 308 235l26 116l-284 -15c-156 -8 -246 -72 -246 -177c0 -97 80 -159 196 -159zM400 -18c-179 0 -326 119 -326 289c0 204 158 319 424 333l311 16l14 65c4 17 4 33 4 51c0 104 -73 169 -207 169c-141 0 -224 -69 -245 -168h-182
c31 187 199 321 441 321c222 0 368 -122 368 -297c0 -33 -3 -64 -7 -88l-143 -673h-167l27 127h-3c-71 -89 -181 -145 -309 -145zM812 1707l21 96c26 13 76 24 115 24c101 0 161 -47 161 -126c0 -90 -80 -186 -179 -216l-54 70c59 20 111 74 111 115c0 33 -30 56 -72 56
c-35 0 -67 -6 -103 -19zM802 1488l212 -280h-152l-135 178h-6l-211 -178h-176l332 280h136z" />
    <glyph glyph-name="abreve" unicode="&#x103;" horiz-adv-x="1018" 
d="M446 130c149 0 277 96 308 235l26 116l-284 -15c-156 -8 -246 -72 -246 -177c0 -97 80 -159 196 -159zM400 -18c-179 0 -326 119 -326 289c0 204 158 319 424 333l311 16l14 65c4 17 4 33 4 51c0 104 -73 169 -207 169c-141 0 -224 -69 -245 -168h-182
c31 187 199 321 441 321c222 0 368 -122 368 -297c0 -33 -3 -64 -7 -88l-143 -673h-167l27 127h-3c-71 -89 -181 -145 -309 -145zM426 1508h126c-4 -14 -8 -33 -8 -52c0 -93 62 -150 159 -150c114 0 212 76 239 202h126c-41 -194 -180 -310 -384 -310
c-150 0 -268 95 -268 236c0 28 4 53 10 74z" />
    <glyph glyph-name="abreveacute" unicode="&#x1eaf;" horiz-adv-x="1018" 
d="M446 130c149 0 277 96 308 235l26 116l-284 -15c-156 -8 -246 -72 -246 -177c0 -97 80 -159 196 -159zM400 -18c-179 0 -326 119 -326 289c0 204 158 319 424 333l311 16l14 65c4 17 4 33 4 51c0 104 -73 169 -207 169c-141 0 -224 -69 -245 -168h-182
c31 187 199 321 441 321c222 0 368 -122 368 -297c0 -33 -3 -64 -7 -88l-143 -673h-167l27 127h-3c-71 -89 -181 -145 -309 -145zM667 1530l272 296h172l-294 -296h-150zM1071 1508c-41 -194 -180 -310 -384 -310c-150 0 -268 95 -268 236c0 28 4 53 10 74h126
c-4 -14 -8 -33 -8 -52c0 -93 62 -150 159 -150c114 0 212 76 239 202h126z" />
    <glyph glyph-name="abrevetilde" unicode="&#x1eb5;" horiz-adv-x="1018" 
d="M446 130c149 0 277 96 308 235l26 116l-284 -15c-156 -8 -246 -72 -246 -177c0 -97 80 -159 196 -159zM400 -18c-179 0 -326 119 -326 289c0 204 158 319 424 333l311 16l14 65c4 17 4 33 4 51c0 104 -73 169 -207 169c-141 0 -224 -69 -245 -168h-182
c31 187 199 321 441 321c222 0 368 -122 368 -297c0 -33 -3 -64 -7 -88l-143 -673h-167l27 127h-3c-71 -89 -181 -145 -309 -145zM1071 1508c-41 -194 -180 -310 -384 -310c-150 0 -268 95 -268 236c0 28 4 53 10 74h126c-4 -14 -8 -33 -8 -52c0 -93 62 -150 159 -150
c114 0 212 76 239 202h126zM917 1579c-135 0 -164 149 -241 149c-46 0 -86 -48 -99 -130h-116c28 154 115 240 229 240c133 0 161 -149 240 -149c44 0 80 46 98 131h116c-27 -150 -118 -241 -227 -241z" />
    <glyph glyph-name="abrevehookabove" unicode="&#x1eb3;" horiz-adv-x="1018" 
d="M446 130c149 0 277 96 308 235l26 116l-284 -15c-156 -8 -246 -72 -246 -177c0 -97 80 -159 196 -159zM400 -18c-179 0 -326 119 -326 289c0 204 158 319 424 333l311 16l14 65c4 17 4 33 4 51c0 104 -73 169 -207 169c-141 0 -224 -69 -245 -168h-182
c31 187 199 321 441 321c222 0 368 -122 368 -297c0 -33 -3 -64 -7 -88l-143 -673h-167l27 127h-3c-71 -89 -181 -145 -309 -145zM625 1710l22 93c26 13 76 24 115 24c101 0 161 -47 161 -126c0 -90 -80 -186 -179 -216l-55 73c59 20 111 74 111 115c0 33 -30 56 -72 56
c-35 0 -67 -6 -103 -19zM1071 1508c-41 -194 -180 -310 -384 -310c-150 0 -268 95 -268 236c0 28 4 53 10 74h126c-4 -14 -8 -33 -8 -52c0 -93 62 -150 159 -150c114 0 212 76 239 202h126z" />
    <glyph glyph-name="abrevedotbelow" unicode="&#x1eb7;" horiz-adv-x="1018" 
d="M446 130c149 0 277 96 308 235l26 116l-284 -15c-156 -8 -246 -72 -246 -177c0 -97 80 -159 196 -159zM400 -18c-179 0 -326 119 -326 289c0 204 158 319 424 333l311 16l14 65c4 17 4 33 4 51c0 104 -73 169 -207 169c-141 0 -224 -69 -245 -168h-182
c31 187 199 321 441 321c222 0 368 -122 368 -297c0 -33 -3 -64 -7 -88l-143 -673h-167l27 127h-3c-71 -89 -181 -145 -309 -145zM426 1508h126c-4 -14 -8 -33 -8 -52c0 -93 62 -150 159 -150c114 0 212 76 239 202h126c-41 -194 -180 -310 -384 -310
c-150 0 -268 95 -268 236c0 28 4 53 10 74zM415 -433c-68 0 -124 56 -124 124s56 124 124 124s124 -56 124 -124s-56 -124 -124 -124z" />
    <glyph glyph-name="ainvertedbreve" unicode="&#x203;" horiz-adv-x="1018" 
d="M446 130c149 0 277 96 308 235l26 116l-284 -15c-156 -8 -246 -72 -246 -177c0 -97 80 -159 196 -159zM400 -18c-179 0 -326 119 -326 289c0 204 158 319 424 333l311 16l14 65c4 17 4 33 4 51c0 104 -73 169 -207 169c-141 0 -224 -69 -245 -168h-182
c31 187 199 321 441 321c222 0 368 -122 368 -297c0 -33 -3 -64 -7 -88l-143 -673h-167l27 127h-3c-71 -89 -181 -145 -309 -145zM1004 1198h-126c4 14 8 33 8 52c0 93 -62 150 -159 150c-114 0 -212 -76 -239 -202h-126c41 194 180 310 384 310c150 0 268 -95 268 -236
c0 -28 -4 -53 -10 -74z" />
    <glyph glyph-name="acaron" unicode="&#x1ce;" horiz-adv-x="1018" 
d="M446 130c149 0 277 96 308 235l26 116l-284 -15c-156 -8 -246 -72 -246 -177c0 -97 80 -159 196 -159zM400 -18c-179 0 -326 119 -326 289c0 204 158 319 424 333l311 16l14 65c4 17 4 33 4 51c0 104 -73 169 -207 169c-141 0 -224 -69 -245 -168h-182
c31 187 199 321 441 321c222 0 368 -122 368 -297c0 -33 -3 -64 -7 -88l-143 -673h-167l27 127h-3c-71 -89 -181 -145 -309 -145zM764 1208h-134l-208 300h152l131 -196h6l215 196h174z" />
    <glyph glyph-name="adotaccent" unicode="&#x227;" horiz-adv-x="1018" 
d="M446 130c149 0 277 96 308 235l26 116l-284 -15c-156 -8 -246 -72 -246 -177c0 -97 80 -159 196 -159zM400 -18c-179 0 -326 119 -326 289c0 204 158 319 424 333l311 16l14 65c4 17 4 33 4 51c0 104 -73 169 -207 169c-141 0 -224 -69 -245 -168h-182
c31 187 199 321 441 321c222 0 368 -122 368 -297c0 -33 -3 -64 -7 -88l-143 -673h-167l27 127h-3c-71 -89 -181 -145 -309 -145zM709 1208c-68 0 -124 56 -124 124s56 124 124 124s124 -56 124 -124s-56 -124 -124 -124z" />
    <glyph glyph-name="adotbelow" unicode="&#x1ea1;" horiz-adv-x="1018" 
d="M446 130c149 0 277 96 308 235l26 116l-284 -15c-156 -8 -246 -72 -246 -177c0 -97 80 -159 196 -159zM400 -18c-179 0 -326 119 -326 289c0 204 158 319 424 333l311 16l14 65c4 17 4 33 4 51c0 104 -73 169 -207 169c-141 0 -224 -69 -245 -168h-182
c31 187 199 321 441 321c222 0 368 -122 368 -297c0 -33 -3 -64 -7 -88l-143 -673h-167l27 127h-3c-71 -89 -181 -145 -309 -145zM415 -433c-68 0 -124 56 -124 124s56 124 124 124s124 -56 124 -124s-56 -124 -124 -124z" />
    <glyph glyph-name="ahookabove" unicode="&#x1ea3;" horiz-adv-x="1018" 
d="M446 130c149 0 277 96 308 235l26 116l-284 -15c-156 -8 -246 -72 -246 -177c0 -97 80 -159 196 -159zM400 -18c-179 0 -326 119 -326 289c0 204 158 319 424 333l311 16l14 65c4 17 4 33 4 51c0 104 -73 169 -207 169c-141 0 -224 -69 -245 -168h-182
c31 187 199 321 441 321c222 0 368 -122 368 -297c0 -33 -3 -64 -7 -88l-143 -673h-167l27 127h-3c-71 -89 -181 -145 -309 -145zM571 1428l22 105c28 15 73 25 125 25c96 0 170 -61 170 -142c0 -105 -83 -194 -209 -230l-43 85c79 25 117 71 117 119c0 35 -33 62 -77 62
c-35 0 -75 -8 -105 -24z" />
    <glyph glyph-name="adblgrave" unicode="&#x201;" horiz-adv-x="1018" 
d="M446 130c149 0 277 96 308 235l26 116l-284 -15c-156 -8 -246 -72 -246 -177c0 -97 80 -159 196 -159zM400 -18c-179 0 -326 119 -326 289c0 204 158 319 424 333l311 16l14 65c4 17 4 33 4 51c0 104 -73 169 -207 169c-141 0 -224 -69 -245 -168h-182
c31 187 199 321 441 321c222 0 368 -122 368 -297c0 -33 -3 -64 -7 -88l-143 -673h-167l27 127h-3c-71 -89 -181 -145 -309 -145zM597 1208h-127l-178 300h173zM913 1208h-127l-178 300h173z" />
    <glyph glyph-name="amacron" unicode="&#x101;" horiz-adv-x="1018" 
d="M446 130c149 0 277 96 308 235l26 116l-284 -15c-156 -8 -246 -72 -246 -177c0 -97 80 -159 196 -159zM400 -18c-179 0 -326 119 -326 289c0 204 158 319 424 333l311 16l14 65c4 17 4 33 4 51c0 104 -73 169 -207 169c-141 0 -224 -69 -245 -168h-182
c31 187 199 321 441 321c222 0 368 -122 368 -297c0 -33 -3 -64 -7 -88l-143 -673h-167l27 127h-3c-71 -89 -181 -145 -309 -145zM1014 1398l-24 -116h-574l24 116h574z" />
    <glyph glyph-name="aogonek" unicode="&#x105;" horiz-adv-x="1018" 
d="M444 139c157 0 281 90 310 226l26 116l-288 -15c-152 -8 -242 -74 -242 -177c0 -91 77 -150 194 -150zM755 -391c-17 -12 -64 -21 -111 -21c-113 0 -188 60 -188 150c0 101 75 190 232 276l24 113h-3c-71 -89 -178 -136 -311 -136c-184 0 -324 121 -324 280
c0 200 152 319 428 333l307 16l14 65c3 13 4 25 4 51c0 100 -80 160 -214 160c-129 0 -217 -59 -238 -159h-182c31 188 204 312 434 312c223 0 375 -117 375 -288c0 -38 -2 -66 -7 -88l-145 -681l-8 -3c-138 -51 -230 -132 -230 -201c0 -47 35 -74 95 -74c27 0 52 4 73 13z
" />
    <glyph glyph-name="a.1" horiz-adv-x="1139" 
d="M543 135c212 0 363 204 363 477c0 171 -107 292 -269 292c-203 0 -348 -198 -348 -462c0 -187 96 -307 254 -307zM966 0h-167l38 173h-4c-65 -109 -197 -191 -329 -191c-238 0 -389 182 -389 456c0 349 223 620 519 620c168 0 296 -98 334 -240h6l46 222h168z" />
    <glyph glyph-name="agrave.1" horiz-adv-x="1139" 
d="M543 135c212 0 363 204 363 477c0 171 -107 292 -269 292c-203 0 -348 -198 -348 -462c0 -187 96 -307 254 -307zM966 0h-167l38 173h-4c-65 -109 -197 -191 -329 -191c-238 0 -389 182 -389 456c0 349 223 620 519 620c168 0 296 -98 334 -240h6l46 222h168zM834 1208
h-140l-182 300h176z" />
    <glyph glyph-name="aacute.1" horiz-adv-x="1139" 
d="M543 135c212 0 363 204 363 477c0 171 -107 292 -269 292c-203 0 -348 -198 -348 -462c0 -187 96 -307 254 -307zM966 0h-167l38 173h-4c-65 -109 -197 -191 -329 -191c-238 0 -389 182 -389 456c0 349 223 620 519 620c168 0 296 -98 334 -240h6l46 222h168zM826 1208
h-160l274 300h196z" />
    <glyph glyph-name="adieresis.1" horiz-adv-x="1139" 
d="M543 135c212 0 363 204 363 477c0 171 -107 292 -269 292c-203 0 -348 -198 -348 -462c0 -187 96 -307 254 -307zM966 0h-167l38 173h-4c-65 -109 -197 -191 -329 -191c-238 0 -389 182 -389 456c0 349 223 620 519 620c168 0 296 -98 334 -240h6l46 222h168zM588 1215
c-60 0 -110 49 -110 110s50 110 110 110s110 -49 110 -110s-50 -110 -110 -110zM960 1215c-60 0 -110 49 -110 110s50 110 110 110s110 -49 110 -110s-50 -110 -110 -110z" />
    <glyph glyph-name="adieresismacron.1" horiz-adv-x="1139" 
d="M543 135c212 0 363 204 363 477c0 171 -107 292 -269 292c-203 0 -348 -198 -348 -462c0 -187 96 -307 254 -307zM966 0h-167l38 173h-4c-65 -109 -197 -191 -329 -191c-238 0 -389 182 -389 456c0 349 223 620 519 620c168 0 296 -98 334 -240h6l46 222h168zM590 1205
c-60 0 -110 49 -110 110s50 110 110 110s110 -49 110 -110s-50 -110 -110 -110zM962 1205c-60 0 -110 49 -110 110s50 110 110 110s110 -49 110 -110s-50 -110 -110 -110zM1146 1706l-24 -116h-574l24 116h574z" />
    <glyph glyph-name="aring.1" horiz-adv-x="1139" 
d="M543 135c212 0 363 204 363 477c0 171 -107 292 -269 292c-203 0 -348 -198 -348 -462c0 -187 96 -307 254 -307zM966 0h-167l38 173h-4c-65 -109 -197 -191 -329 -191c-238 0 -389 182 -389 456c0 349 223 620 519 620c168 0 296 -98 334 -240h6l46 222h168zM773 1152
c-102 0 -187 68 -187 182c0 118 85 200 195 200c104 0 189 -68 188 -182c-1 -118 -84 -200 -196 -200zM773 1238c64 0 107 42 106 111c-1 61 -40 99 -98 99c-62 0 -105 -42 -105 -111c0 -61 41 -99 97 -99z" />
    <glyph glyph-name="aringacute.1" horiz-adv-x="1139" 
d="M543 135c212 0 363 204 363 477c0 171 -107 292 -269 292c-203 0 -348 -198 -348 -462c0 -187 96 -307 254 -307zM966 0h-167l38 173h-4c-65 -109 -197 -191 -329 -191c-238 0 -389 182 -389 456c0 349 223 620 519 620c168 0 296 -98 334 -240h6l46 222h168zM773 1630
l164 196h164l-182 -196h-146zM779 1172c-102 0 -187 68 -187 182c0 118 85 200 195 200c104 0 189 -68 188 -182c-1 -118 -84 -200 -196 -200zM682 1357c0 -61 41 -99 97 -99c64 0 107 42 106 111c-1 61 -40 99 -98 99c-62 0 -105 -42 -105 -111z" />
    <glyph glyph-name="atilde.1" horiz-adv-x="1139" 
d="M543 135c212 0 363 204 363 477c0 171 -107 292 -269 292c-203 0 -348 -198 -348 -462c0 -187 96 -307 254 -307zM966 0h-167l38 173h-4c-65 -109 -197 -191 -329 -191c-238 0 -389 182 -389 456c0 349 223 620 519 620c168 0 296 -98 334 -240h6l46 222h168zM894 1216
c-132 0 -158 152 -237 152c-46 0 -89 -49 -105 -142h-118c29 160 118 255 232 255c141 0 162 -152 237 -152c42 0 83 47 103 143h118c-32 -156 -121 -256 -230 -256z" />
    <glyph glyph-name="abrevegrave.1" horiz-adv-x="1139" 
d="M543 135c212 0 363 204 363 477c0 171 -107 292 -269 292c-203 0 -348 -198 -348 -462c0 -187 96 -307 254 -307zM966 0h-167l38 173h-4c-65 -109 -197 -191 -329 -191c-238 0 -389 182 -389 456c0 349 223 620 519 620c168 0 296 -98 334 -240h6l46 222h168zM902 1530
h-130l-168 296h152zM1138 1508c-41 -194 -180 -310 -384 -310c-150 0 -268 95 -268 236c0 28 4 53 10 74h126c-4 -14 -8 -33 -8 -52c0 -93 62 -150 159 -150c114 0 212 76 239 202h126z" />
    <glyph glyph-name="adotmacron.1" horiz-adv-x="1139" 
d="M543 135c212 0 363 204 363 477c0 171 -107 292 -269 292c-203 0 -348 -198 -348 -462c0 -187 96 -307 254 -307zM966 0h-167l38 173h-4c-65 -109 -197 -191 -329 -191c-238 0 -389 182 -389 456c0 349 223 620 519 620c168 0 296 -98 334 -240h6l46 222h168zM776 1195
c-67 0 -119 52 -119 119s52 119 119 119s119 -52 119 -119s-52 -119 -119 -119zM1146 1706l-24 -116h-574l24 116h574z" />
    <glyph glyph-name="aringbelow.1" horiz-adv-x="1139" 
d="M543 135c212 0 363 204 363 477c0 171 -107 292 -269 292c-203 0 -348 -198 -348 -462c0 -187 96 -307 254 -307zM966 0h-167l38 173h-4c-65 -109 -197 -191 -329 -191c-238 0 -389 182 -389 456c0 349 223 620 519 620c168 0 296 -98 334 -240h6l46 222h168zM447 -500
c-102 0 -187 68 -187 182c0 118 85 200 195 200c104 0 189 -68 188 -182c-1 -118 -84 -200 -196 -200zM447 -414c64 0 107 42 106 111c-1 61 -40 99 -98 99c-62 0 -105 -42 -105 -111c0 -61 41 -99 97 -99z" />
    <glyph glyph-name="acircumflex.1" horiz-adv-x="1139" 
d="M543 135c212 0 363 204 363 477c0 171 -107 292 -269 292c-203 0 -348 -198 -348 -462c0 -187 96 -307 254 -307zM966 0h-167l38 173h-4c-65 -109 -197 -191 -329 -191c-238 0 -389 182 -389 456c0 349 223 620 519 620c168 0 296 -98 334 -240h6l46 222h168zM886 1508
l208 -300h-158l-132 192h-6l-214 -192h-168l336 300h134z" />
    <glyph glyph-name="acircumflexdotbelow.1" horiz-adv-x="1139" 
d="M543 135c212 0 363 204 363 477c0 171 -107 292 -269 292c-203 0 -348 -198 -348 -462c0 -187 96 -307 254 -307zM966 0h-167l38 173h-4c-65 -109 -197 -191 -329 -191c-238 0 -389 182 -389 456c0 349 223 620 519 620c168 0 296 -98 334 -240h6l46 222h168zM886 1508
l208 -300h-158l-132 192h-6l-214 -192h-168l336 300h134zM453 -433c-68 0 -124 56 -124 124s56 124 124 124s124 -56 124 -124s-56 -124 -124 -124z" />
    <glyph glyph-name="acircumflexacute.1" horiz-adv-x="1139" 
d="M543 135c212 0 363 204 363 477c0 171 -107 292 -269 292c-203 0 -348 -198 -348 -462c0 -187 96 -307 254 -307zM966 0h-167l38 173h-4c-65 -109 -197 -191 -329 -191c-238 0 -389 182 -389 456c0 349 223 620 519 620c168 0 296 -98 334 -240h6l46 222h168zM869 1488
l212 -280h-152l-135 178h-6l-211 -178h-176l332 280h136zM971 1530l272 296h172l-294 -296h-150z" />
    <glyph glyph-name="acircumflextilde.1" horiz-adv-x="1139" 
d="M543 135c212 0 363 204 363 477c0 171 -107 292 -269 292c-203 0 -348 -198 -348 -462c0 -187 96 -307 254 -307zM966 0h-167l38 173h-4c-65 -109 -197 -191 -329 -191c-238 0 -389 182 -389 456c0 349 223 620 519 620c168 0 296 -98 334 -240h6l46 222h168zM869 1488
l212 -280h-152l-135 178h-6l-211 -178h-176l332 280h136zM962 1579c-135 0 -164 149 -241 149c-46 0 -86 -48 -99 -130h-116c28 154 115 240 229 240c133 0 161 -149 240 -149c44 0 80 46 98 131h116c-27 -150 -118 -241 -227 -241z" />
    <glyph glyph-name="acircumflexgrave.1" horiz-adv-x="1139" 
d="M543 135c212 0 363 204 363 477c0 171 -107 292 -269 292c-203 0 -348 -198 -348 -462c0 -187 96 -307 254 -307zM966 0h-167l38 173h-4c-65 -109 -197 -191 -329 -191c-238 0 -389 182 -389 456c0 349 223 620 519 620c168 0 296 -98 334 -240h6l46 222h168zM1130 1530
h-130l-168 296h152zM869 1488l212 -280h-152l-135 178h-6l-211 -178h-176l332 280h136z" />
    <glyph glyph-name="acircumflexhookabove.1" horiz-adv-x="1139" 
d="M543 135c212 0 363 204 363 477c0 171 -107 292 -269 292c-203 0 -348 -198 -348 -462c0 -187 96 -307 254 -307zM966 0h-167l38 173h-4c-65 -109 -197 -191 -329 -191c-238 0 -389 182 -389 456c0 349 223 620 519 620c168 0 296 -98 334 -240h6l46 222h168zM879 1707
l21 96c26 13 76 24 115 24c101 0 161 -47 161 -126c0 -90 -80 -186 -179 -216l-54 70c59 20 111 74 111 115c0 33 -30 56 -72 56c-35 0 -67 -6 -103 -19zM869 1488l212 -280h-152l-135 178h-6l-211 -178h-176l332 280h136z" />
    <glyph glyph-name="abreve.1" horiz-adv-x="1139" 
d="M543 135c212 0 363 204 363 477c0 171 -107 292 -269 292c-203 0 -348 -198 -348 -462c0 -187 96 -307 254 -307zM966 0h-167l38 173h-4c-65 -109 -197 -191 -329 -191c-238 0 -389 182 -389 456c0 349 223 620 519 620c168 0 296 -98 334 -240h6l46 222h168zM493 1508
h126c-4 -14 -8 -33 -8 -52c0 -93 62 -150 159 -150c114 0 212 76 239 202h126c-41 -194 -180 -310 -384 -310c-150 0 -268 95 -268 236c0 28 4 53 10 74z" />
    <glyph glyph-name="abreveacute.1" horiz-adv-x="1139" 
d="M543 135c212 0 363 204 363 477c0 171 -107 292 -269 292c-203 0 -348 -198 -348 -462c0 -187 96 -307 254 -307zM966 0h-167l38 173h-4c-65 -109 -197 -191 -329 -191c-238 0 -389 182 -389 456c0 349 223 620 519 620c168 0 296 -98 334 -240h6l46 222h168zM734 1530
l272 296h172l-294 -296h-150zM1138 1508c-41 -194 -180 -310 -384 -310c-150 0 -268 95 -268 236c0 28 4 53 10 74h126c-4 -14 -8 -33 -8 -52c0 -93 62 -150 159 -150c114 0 212 76 239 202h126z" />
    <glyph glyph-name="abrevetilde.1" horiz-adv-x="1139" 
d="M543 135c212 0 363 204 363 477c0 171 -107 292 -269 292c-203 0 -348 -198 -348 -462c0 -187 96 -307 254 -307zM966 0h-167l38 173h-4c-65 -109 -197 -191 -329 -191c-238 0 -389 182 -389 456c0 349 223 620 519 620c168 0 296 -98 334 -240h6l46 222h168zM1138 1508
c-41 -194 -180 -310 -384 -310c-150 0 -268 95 -268 236c0 28 4 53 10 74h126c-4 -14 -8 -33 -8 -52c0 -93 62 -150 159 -150c114 0 212 76 239 202h126zM984 1579c-135 0 -164 149 -241 149c-46 0 -86 -48 -99 -130h-116c28 154 115 240 229 240c133 0 161 -149 240 -149
c44 0 80 46 98 131h116c-27 -150 -118 -241 -227 -241z" />
    <glyph glyph-name="abrevehookabove.1" horiz-adv-x="1139" 
d="M543 135c212 0 363 204 363 477c0 171 -107 292 -269 292c-203 0 -348 -198 -348 -462c0 -187 96 -307 254 -307zM966 0h-167l38 173h-4c-65 -109 -197 -191 -329 -191c-238 0 -389 182 -389 456c0 349 223 620 519 620c168 0 296 -98 334 -240h6l46 222h168zM692 1710
l22 93c26 13 76 24 115 24c101 0 161 -47 161 -126c0 -90 -80 -186 -179 -216l-55 73c59 20 111 74 111 115c0 33 -30 56 -72 56c-35 0 -67 -6 -103 -19zM1138 1508c-41 -194 -180 -310 -384 -310c-150 0 -268 95 -268 236c0 28 4 53 10 74h126c-4 -14 -8 -33 -8 -52
c0 -93 62 -150 159 -150c114 0 212 76 239 202h126z" />
    <glyph glyph-name="abrevedotbelow.1" horiz-adv-x="1139" 
d="M543 135c212 0 363 204 363 477c0 171 -107 292 -269 292c-203 0 -348 -198 -348 -462c0 -187 96 -307 254 -307zM966 0h-167l38 173h-4c-65 -109 -197 -191 -329 -191c-238 0 -389 182 -389 456c0 349 223 620 519 620c168 0 296 -98 334 -240h6l46 222h168zM493 1508
h126c-4 -14 -8 -33 -8 -52c0 -93 62 -150 159 -150c114 0 212 76 239 202h126c-41 -194 -180 -310 -384 -310c-150 0 -268 95 -268 236c0 28 4 53 10 74zM453 -433c-68 0 -124 56 -124 124s56 124 124 124s124 -56 124 -124s-56 -124 -124 -124z" />
    <glyph glyph-name="ainvertedbreve.1" horiz-adv-x="1139" 
d="M543 135c212 0 363 204 363 477c0 171 -107 292 -269 292c-203 0 -348 -198 -348 -462c0 -187 96 -307 254 -307zM966 0h-167l38 173h-4c-65 -109 -197 -191 -329 -191c-238 0 -389 182 -389 456c0 349 223 620 519 620c168 0 296 -98 334 -240h6l46 222h168zM1071 1198
h-126c4 14 8 33 8 52c0 93 -62 150 -159 150c-114 0 -212 -76 -239 -202h-126c41 194 180 310 384 310c150 0 268 -95 268 -236c0 -28 -4 -53 -10 -74z" />
    <glyph glyph-name="acaron.1" horiz-adv-x="1139" 
d="M543 135c212 0 363 204 363 477c0 171 -107 292 -269 292c-203 0 -348 -198 -348 -462c0 -187 96 -307 254 -307zM966 0h-167l38 173h-4c-65 -109 -197 -191 -329 -191c-238 0 -389 182 -389 456c0 349 223 620 519 620c168 0 296 -98 334 -240h6l46 222h168zM831 1208
h-134l-208 300h152l131 -196h6l215 196h174z" />
    <glyph glyph-name="adotaccent.1" horiz-adv-x="1139" 
d="M543 135c212 0 363 204 363 477c0 171 -107 292 -269 292c-203 0 -348 -198 -348 -462c0 -187 96 -307 254 -307zM966 0h-167l38 173h-4c-65 -109 -197 -191 -329 -191c-238 0 -389 182 -389 456c0 349 223 620 519 620c168 0 296 -98 334 -240h6l46 222h168zM776 1208
c-68 0 -124 56 -124 124s56 124 124 124s124 -56 124 -124s-56 -124 -124 -124z" />
    <glyph glyph-name="adotbelow.1" horiz-adv-x="1139" 
d="M543 135c212 0 363 204 363 477c0 171 -107 292 -269 292c-203 0 -348 -198 -348 -462c0 -187 96 -307 254 -307zM966 0h-167l38 173h-4c-65 -109 -197 -191 -329 -191c-238 0 -389 182 -389 456c0 349 223 620 519 620c168 0 296 -98 334 -240h6l46 222h168zM453 -433
c-68 0 -124 56 -124 124s56 124 124 124s124 -56 124 -124s-56 -124 -124 -124z" />
    <glyph glyph-name="ahookabove.1" horiz-adv-x="1139" 
d="M543 135c212 0 363 204 363 477c0 171 -107 292 -269 292c-203 0 -348 -198 -348 -462c0 -187 96 -307 254 -307zM966 0h-167l38 173h-4c-65 -109 -197 -191 -329 -191c-238 0 -389 182 -389 456c0 349 223 620 519 620c168 0 296 -98 334 -240h6l46 222h168zM638 1428
l22 105c28 15 73 25 125 25c96 0 170 -61 170 -142c0 -105 -83 -194 -209 -230l-43 85c79 25 117 71 117 119c0 35 -33 62 -77 62c-35 0 -75 -8 -105 -24z" />
    <glyph glyph-name="adblgrave.1" horiz-adv-x="1139" 
d="M543 135c212 0 363 204 363 477c0 171 -107 292 -269 292c-203 0 -348 -198 -348 -462c0 -187 96 -307 254 -307zM966 0h-167l38 173h-4c-65 -109 -197 -191 -329 -191c-238 0 -389 182 -389 456c0 349 223 620 519 620c168 0 296 -98 334 -240h6l46 222h168zM664 1208
h-127l-178 300h173zM980 1208h-127l-178 300h173z" />
    <glyph glyph-name="amacron.1" horiz-adv-x="1139" 
d="M543 135c212 0 363 204 363 477c0 171 -107 292 -269 292c-203 0 -348 -198 -348 -462c0 -187 96 -307 254 -307zM966 0h-167l38 173h-4c-65 -109 -197 -191 -329 -191c-238 0 -389 182 -389 456c0 349 223 620 519 620c168 0 296 -98 334 -240h6l46 222h168zM1081 1398
l-24 -116h-574l24 116h574z" />
    <glyph glyph-name="aogonek.1" horiz-adv-x="1139" 
d="M543 135c212 0 363 204 363 477c0 171 -107 292 -269 292c-203 0 -348 -198 -348 -462c0 -187 96 -307 254 -307zM870 -391c-17 -12 -64 -21 -111 -21c-113 0 -188 60 -188 150c0 100 73 189 231 275l35 160h-4c-65 -109 -197 -191 -329 -191c-238 0 -389 182 -389 456
c0 349 223 620 519 620c168 0 296 -98 334 -240h6l46 222h168l-223 -1048l-8 -3c-147 -55 -230 -137 -230 -201c0 -47 35 -74 95 -74c26 0 51 4 73 13z" />
    <glyph glyph-name="b" unicode="b" horiz-adv-x="1139" 
d="M611 -18c-164 0 -306 100 -340 233h-5l-45 -215h-165l307 1443h172l-119 -566h3c57 105 185 181 317 181c236 0 390 -168 390 -456c0 -312 -192 -620 -515 -620zM609 136c209 0 343 208 343 462c0 190 -92 307 -256 307c-216 0 -361 -217 -361 -477
c0 -171 110 -292 274 -292z" />
    <glyph glyph-name="blinebelow" unicode="&#x1e07;" horiz-adv-x="1139" 
d="M611 -18c-164 0 -306 100 -340 233h-5l-45 -215h-165l307 1443h172l-119 -566h3c57 105 185 181 317 181c236 0 390 -168 390 -456c0 -312 -192 -620 -515 -620zM609 136c209 0 343 208 343 462c0 190 -92 307 -256 307c-216 0 -361 -217 -361 -477
c0 -171 110 -292 274 -292zM798 -251l-25 -116h-634l25 116h634z" />
    <glyph glyph-name="bdotbelow" unicode="&#x1e05;" horiz-adv-x="1139" 
d="M611 -18c-164 0 -306 100 -340 233h-5l-45 -215h-165l307 1443h172l-119 -566h3c57 105 185 181 317 181c236 0 390 -168 390 -456c0 -312 -192 -620 -515 -620zM609 136c209 0 343 208 343 462c0 190 -92 307 -256 307c-216 0 -361 -217 -361 -477
c0 -171 110 -292 274 -292zM464 -433c-68 0 -124 56 -124 124s56 124 124 124s124 -56 124 -124s-56 -124 -124 -124z" />
    <glyph glyph-name="bdotaccent" unicode="&#x1e03;" horiz-adv-x="1139" 
d="M611 -18c-164 0 -306 100 -340 233h-5l-45 -215h-165l307 1443h172l-119 -566h3c57 105 185 181 317 181c236 0 390 -168 390 -456c0 -312 -192 -620 -515 -620zM609 136c209 0 343 208 343 462c0 190 -92 307 -256 307c-216 0 -361 -217 -361 -477
c0 -171 110 -292 274 -292zM507 1611c-68 0 -124 56 -124 124s56 124 124 124s124 -56 124 -124s-56 -124 -124 -124z" />
    <glyph glyph-name="c" unicode="c" horiz-adv-x="1031" 
d="M647 1058c275 0 414 -176 414 -362v-7h-169c-5 117 -93 216 -247 216c-207 0 -353 -191 -353 -462c0 -192 100 -308 252 -308c136 0 237 77 281 195h171c-50 -197 -235 -348 -454 -348c-281 0 -428 190 -428 455c0 349 220 621 533 621z" />
    <glyph glyph-name="cacute" unicode="&#x107;" horiz-adv-x="1031" 
d="M647 1058c275 0 414 -176 414 -362v-7h-169c-5 117 -93 216 -247 216c-207 0 -353 -191 -353 -462c0 -192 100 -308 252 -308c136 0 237 77 281 195h171c-50 -197 -235 -348 -454 -348c-281 0 -428 190 -428 455c0 349 220 621 533 621zM766 1208h-160l274 300h196z" />
    <glyph glyph-name="ccaron" unicode="&#x10d;" horiz-adv-x="1031" 
d="M647 1058c275 0 414 -176 414 -362v-7h-169c-5 117 -93 216 -247 216c-207 0 -353 -191 -353 -462c0 -192 100 -308 252 -308c136 0 237 77 281 195h171c-50 -197 -235 -348 -454 -348c-281 0 -428 190 -428 455c0 349 220 621 533 621zM771 1208h-134l-208 300h152
l131 -196h6l215 196h174z" />
    <glyph glyph-name="ccircumflex" unicode="&#x109;" horiz-adv-x="1031" 
d="M647 1058c275 0 414 -176 414 -362v-7h-169c-5 117 -93 216 -247 216c-207 0 -353 -191 -353 -462c0 -192 100 -308 252 -308c136 0 237 77 281 195h171c-50 -197 -235 -348 -454 -348c-281 0 -428 190 -428 455c0 349 220 621 533 621zM826 1508l208 -300h-158l-132 192
h-6l-214 -192h-168l336 300h134z" />
    <glyph glyph-name="cdotaccent" unicode="&#x10b;" horiz-adv-x="1031" 
d="M647 1058c275 0 414 -176 414 -362v-7h-169c-5 117 -93 216 -247 216c-207 0 -353 -191 -353 -462c0 -192 100 -308 252 -308c136 0 237 77 281 195h171c-50 -197 -235 -348 -454 -348c-281 0 -428 190 -428 455c0 349 220 621 533 621zM716 1208c-68 0 -124 56 -124 124
s56 124 124 124s124 -56 124 -124s-56 -124 -124 -124z" />
    <glyph glyph-name="ccedilla" unicode="&#xe7;" horiz-adv-x="1031" 
d="M1061 689h-169c-5 117 -93 216 -247 216c-207 0 -353 -191 -353 -462c0 -192 100 -308 252 -308c136 0 237 77 281 195h171c-45 -178 -201 -319 -393 -344l-72 -126c119 4 189 -50 189 -145c0 -119 -98 -198 -246 -198c-59 0 -132 12 -177 29l24 114
c43 -16 91 -25 139 -25c79 0 125 25 125 69c0 45 -47 65 -155 65h-59l16 72l80 146c-232 31 -353 210 -353 450c0 349 220 621 533 621c275 0 414 -176 414 -362v-7z" />
    <glyph glyph-name="ccedillaacute" unicode="&#x1e09;" horiz-adv-x="1031" 
d="M1076 1508l-310 -300h-160l274 300h196zM387 -159l80 146c-232 31 -353 210 -353 450c0 349 220 621 533 621c275 0 414 -176 414 -362v-7h-169c-5 117 -93 216 -247 216c-207 0 -353 -191 -353 -462c0 -192 100 -308 252 -308c136 0 237 77 281 195h171
c-45 -178 -201 -319 -393 -344l-72 -126c119 4 189 -50 189 -145c0 -119 -98 -198 -246 -198c-59 0 -132 12 -177 29l24 114c43 -16 91 -25 139 -25c79 0 125 25 125 69c0 45 -47 65 -155 65h-59z" />
    <glyph glyph-name="d" unicode="d" horiz-adv-x="1151" 
d="M502 -18c-238 0 -387 178 -387 448c0 360 227 628 521 628c166 0 302 -104 334 -232h5l133 617h174l-307 -1443h-175l35 166h-4c-63 -104 -193 -184 -329 -184zM542 135c210 0 364 204 364 477c0 171 -104 292 -268 292c-198 0 -349 -192 -349 -466
c0 -188 94 -303 253 -303z" />
    <glyph glyph-name="ddotaccent" unicode="&#x1e0b;" horiz-adv-x="1151" 
d="M502 -18c-238 0 -387 178 -387 448c0 360 227 628 521 628c166 0 302 -104 334 -232h5l133 617h174l-307 -1443h-175l35 166h-4c-63 -104 -193 -184 -329 -184zM542 135c210 0 364 204 364 477c0 171 -104 292 -268 292c-198 0 -349 -192 -349 -466
c0 -188 94 -303 253 -303zM1261 1611c-68 0 -124 56 -124 124s56 124 124 124s124 -56 124 -124s-56 -124 -124 -124z" />
    <glyph glyph-name="dcircumflexbelow" unicode="&#x1e13;" horiz-adv-x="1151" 
d="M502 -18c-238 0 -387 178 -387 448c0 360 227 628 521 628c166 0 302 -104 334 -232h5l133 617h174l-307 -1443h-175l35 166h-4c-63 -104 -193 -184 -329 -184zM542 135c210 0 364 204 364 477c0 171 -104 292 -268 292c-198 0 -349 -192 -349 -466
c0 -188 94 -303 253 -303zM590 -165l220 -298h-154l-140 192h-6l-222 -192h-178l346 298h134z" />
    <glyph glyph-name="dcommaaccent" unicode="&#x1e11;" horiz-adv-x="1151" 
d="M502 -18c-238 0 -387 178 -387 448c0 360 227 628 521 628c166 0 302 -104 334 -232h5l133 617h174l-307 -1443h-175l35 166h-4c-63 -104 -193 -184 -329 -184zM542 135c210 0 364 204 364 477c0 171 -104 292 -268 292c-198 0 -349 -192 -349 -466
c0 -188 94 -303 253 -303zM421 -476h-134l182 359h164z" />
    <glyph glyph-name="dlinebelow" unicode="&#x1e0f;" horiz-adv-x="1151" 
d="M502 -18c-238 0 -387 178 -387 448c0 360 227 628 521 628c166 0 302 -104 334 -232h5l133 617h174l-307 -1443h-175l35 166h-4c-63 -104 -193 -184 -329 -184zM542 135c210 0 364 204 364 477c0 171 -104 292 -268 292c-198 0 -349 -192 -349 -466
c0 -188 94 -303 253 -303zM835 -251l-25 -116h-634l25 116h634z" />
    <glyph glyph-name="dcaron" unicode="&#x10f;" horiz-adv-x="1356" 
d="M1432 1443h170l-154 -488h-120zM502 -18c-238 0 -387 178 -387 448c0 360 227 628 521 628c166 0 302 -104 334 -232h5l133 617h174l-307 -1443h-175l35 166h-4c-63 -104 -193 -184 -329 -184zM542 135c210 0 364 204 364 477c0 171 -104 292 -268 292
c-198 0 -349 -192 -349 -466c0 -188 94 -303 253 -303z" />
    <glyph glyph-name="ddotbelow" unicode="&#x1e0d;" horiz-adv-x="1151" 
d="M502 -18c-238 0 -387 178 -387 448c0 360 227 628 521 628c166 0 302 -104 334 -232h5l133 617h174l-307 -1443h-175l35 166h-4c-63 -104 -193 -184 -329 -184zM542 135c210 0 364 204 364 477c0 171 -104 292 -268 292c-198 0 -349 -192 -349 -466
c0 -188 94 -303 253 -303zM501 -433c-68 0 -124 56 -124 124s56 124 124 124s124 -56 124 -124s-56 -124 -124 -124z" />
    <glyph glyph-name="dcroat" unicode="&#x111;" horiz-adv-x="1151" 
d="M542 135c210 0 364 204 364 477c0 171 -104 292 -268 292c-198 0 -349 -192 -349 -466c0 -188 94 -303 253 -303zM1375 1337l-30 -144h-116l-254 -1193h-175l35 166h-4c-63 -104 -193 -184 -329 -184c-238 0 -387 178 -387 448c0 360 227 628 521 628
c166 0 302 -104 334 -232h5l79 367h-243l31 144h243l23 106h174l-23 -106h116z" />
    <glyph glyph-name="e" unicode="e" horiz-adv-x="1062" 
d="M314 618h557c1 9 1 19 1 28c0 132 -70 260 -245 260c-162 0 -271 -126 -313 -288zM542 -20c-283 0 -428 194 -428 458c0 342 213 620 515 620c259 0 420 -168 420 -439c0 -43 -2 -95 -9 -140h-748c-1 -12 -1 -24 -1 -36c0 -192 99 -310 253 -310c140 0 239 74 286 187
h171c-54 -192 -236 -340 -459 -340z" />
    <glyph glyph-name="egrave" unicode="&#xe8;" horiz-adv-x="1062" 
d="M314 618h557c1 9 1 19 1 28c0 132 -70 260 -245 260c-162 0 -271 -126 -313 -288zM542 -20c-283 0 -428 194 -428 458c0 342 213 620 515 620c259 0 420 -168 420 -439c0 -43 -2 -95 -9 -140h-748c-1 -12 -1 -24 -1 -36c0 -192 99 -310 253 -310c140 0 239 74 286 187
h171c-54 -192 -236 -340 -459 -340zM760 1208h-140l-182 300h176z" />
    <glyph glyph-name="edblgrave" unicode="&#x205;" horiz-adv-x="1062" 
d="M314 618h557c1 9 1 19 1 28c0 132 -70 260 -245 260c-162 0 -271 -126 -313 -288zM542 -20c-283 0 -428 194 -428 458c0 342 213 620 515 620c259 0 420 -168 420 -439c0 -43 -2 -95 -9 -140h-748c-1 -12 -1 -24 -1 -36c0 -192 99 -310 253 -310c140 0 239 74 286 187
h171c-54 -192 -236 -340 -459 -340zM590 1208h-127l-178 300h173zM906 1208h-127l-178 300h173z" />
    <glyph glyph-name="eacute" unicode="&#xe9;" horiz-adv-x="1062" 
d="M314 618h557c1 9 1 19 1 28c0 132 -70 260 -245 260c-162 0 -271 -126 -313 -288zM542 -20c-283 0 -428 194 -428 458c0 342 213 620 515 620c259 0 420 -168 420 -439c0 -43 -2 -95 -9 -140h-748c-1 -12 -1 -24 -1 -36c0 -192 99 -310 253 -310c140 0 239 74 286 187
h171c-54 -192 -236 -340 -459 -340zM752 1208h-160l274 300h196z" />
    <glyph glyph-name="ecircumflex" unicode="&#xea;" horiz-adv-x="1062" 
d="M314 618h557c1 9 1 19 1 28c0 132 -70 260 -245 260c-162 0 -271 -126 -313 -288zM542 -20c-283 0 -428 194 -428 458c0 342 213 620 515 620c259 0 420 -168 420 -439c0 -43 -2 -95 -9 -140h-748c-1 -12 -1 -24 -1 -36c0 -192 99 -310 253 -310c140 0 239 74 286 187
h171c-54 -192 -236 -340 -459 -340zM812 1508l208 -300h-158l-132 192h-6l-214 -192h-168l336 300h134z" />
    <glyph glyph-name="ecircumflexhookabove" unicode="&#x1ec3;" horiz-adv-x="1062" 
d="M314 618h557c1 9 1 19 1 28c0 132 -70 260 -245 260c-162 0 -271 -126 -313 -288zM542 -20c-283 0 -428 194 -428 458c0 342 213 620 515 620c259 0 420 -168 420 -439c0 -43 -2 -95 -9 -140h-748c-1 -12 -1 -24 -1 -36c0 -192 99 -310 253 -310c140 0 239 74 286 187
h171c-54 -192 -236 -340 -459 -340zM805 1707l21 96c26 13 76 24 115 24c101 0 161 -47 161 -126c0 -90 -80 -186 -179 -216l-54 70c59 20 111 74 111 115c0 33 -30 56 -72 56c-35 0 -67 -6 -103 -19zM795 1488l212 -280h-152l-135 178h-6l-211 -178h-176l332 280h136z" />
    <glyph glyph-name="ecircumflexgrave" unicode="&#x1ec1;" horiz-adv-x="1062" 
d="M314 618h557c1 9 1 19 1 28c0 132 -70 260 -245 260c-162 0 -271 -126 -313 -288zM542 -20c-283 0 -428 194 -428 458c0 342 213 620 515 620c259 0 420 -168 420 -439c0 -43 -2 -95 -9 -140h-748c-1 -12 -1 -24 -1 -36c0 -192 99 -310 253 -310c140 0 239 74 286 187
h171c-54 -192 -236 -340 -459 -340zM1056 1530h-130l-168 296h152zM795 1488l212 -280h-152l-135 178h-6l-211 -178h-176l332 280h136z" />
    <glyph glyph-name="ecircumflextilde" unicode="&#x1ec5;" horiz-adv-x="1062" 
d="M314 618h557c1 9 1 19 1 28c0 132 -70 260 -245 260c-162 0 -271 -126 -313 -288zM542 -20c-283 0 -428 194 -428 458c0 342 213 620 515 620c259 0 420 -168 420 -439c0 -43 -2 -95 -9 -140h-748c-1 -12 -1 -24 -1 -36c0 -192 99 -310 253 -310c140 0 239 74 286 187
h171c-54 -192 -236 -340 -459 -340zM795 1488l212 -280h-152l-135 178h-6l-211 -178h-176l332 280h136zM888 1579c-135 0 -164 149 -241 149c-46 0 -86 -48 -99 -130h-116c28 154 115 240 229 240c133 0 161 -149 240 -149c44 0 80 46 98 131h116
c-27 -150 -118 -241 -227 -241z" />
    <glyph glyph-name="ecircumflexdotbelow" unicode="&#x1ec7;" horiz-adv-x="1062" 
d="M314 618h557c1 9 1 19 1 28c0 132 -70 260 -245 260c-162 0 -271 -126 -313 -288zM542 -20c-283 0 -428 194 -428 458c0 342 213 620 515 620c259 0 420 -168 420 -439c0 -43 -2 -95 -9 -140h-748c-1 -12 -1 -24 -1 -36c0 -192 99 -310 253 -310c140 0 239 74 286 187
h171c-54 -192 -236 -340 -459 -340zM812 1508l208 -300h-158l-132 192h-6l-214 -192h-168l336 300h134zM471 -433c-68 0 -124 56 -124 124s56 124 124 124s124 -56 124 -124s-56 -124 -124 -124z" />
    <glyph glyph-name="ecircumflexacute" unicode="&#x1ebf;" horiz-adv-x="1062" 
d="M314 618h557c1 9 1 19 1 28c0 132 -70 260 -245 260c-162 0 -271 -126 -313 -288zM542 -20c-283 0 -428 194 -428 458c0 342 213 620 515 620c259 0 420 -168 420 -439c0 -43 -2 -95 -9 -140h-748c-1 -12 -1 -24 -1 -36c0 -192 99 -310 253 -310c140 0 239 74 286 187
h171c-54 -192 -236 -340 -459 -340zM795 1488l212 -280h-152l-135 178h-6l-211 -178h-176l332 280h136zM897 1530l272 296h172l-294 -296h-150z" />
    <glyph glyph-name="edieresis" unicode="&#xeb;" horiz-adv-x="1062" 
d="M314 618h557c1 9 1 19 1 28c0 132 -70 260 -245 260c-162 0 -271 -126 -313 -288zM542 -20c-283 0 -428 194 -428 458c0 342 213 620 515 620c259 0 420 -168 420 -439c0 -43 -2 -95 -9 -140h-748c-1 -12 -1 -24 -1 -36c0 -192 99 -310 253 -310c140 0 239 74 286 187
h171c-54 -192 -236 -340 -459 -340zM514 1215c-60 0 -110 49 -110 110s50 110 110 110s110 -49 110 -110s-50 -110 -110 -110zM886 1215c-60 0 -110 49 -110 110s50 110 110 110s110 -49 110 -110s-50 -110 -110 -110z" />
    <glyph glyph-name="edotbelow" unicode="&#x1eb9;" horiz-adv-x="1062" 
d="M314 618h557c1 9 1 19 1 28c0 132 -70 260 -245 260c-162 0 -271 -126 -313 -288zM542 -20c-283 0 -428 194 -428 458c0 342 213 620 515 620c259 0 420 -168 420 -439c0 -43 -2 -95 -9 -140h-748c-1 -12 -1 -24 -1 -36c0 -192 99 -310 253 -310c140 0 239 74 286 187
h171c-54 -192 -236 -340 -459 -340zM471 -433c-68 0 -124 56 -124 124s56 124 124 124s124 -56 124 -124s-56 -124 -124 -124z" />
    <glyph glyph-name="einvertedbreve" unicode="&#x207;" horiz-adv-x="1062" 
d="M314 618h557c1 9 1 19 1 28c0 132 -70 260 -245 260c-162 0 -271 -126 -313 -288zM542 -20c-283 0 -428 194 -428 458c0 342 213 620 515 620c259 0 420 -168 420 -439c0 -43 -2 -95 -9 -140h-748c-1 -12 -1 -24 -1 -36c0 -192 99 -310 253 -310c140 0 239 74 286 187
h171c-54 -192 -236 -340 -459 -340zM997 1198h-126c4 14 8 33 8 52c0 93 -62 150 -159 150c-114 0 -212 -76 -239 -202h-126c41 194 180 310 384 310c150 0 268 -95 268 -236c0 -28 -4 -53 -10 -74z" />
    <glyph glyph-name="ehookabove" unicode="&#x1ebb;" horiz-adv-x="1062" 
d="M314 618h557c1 9 1 19 1 28c0 132 -70 260 -245 260c-162 0 -271 -126 -313 -288zM542 -20c-283 0 -428 194 -428 458c0 342 213 620 515 620c259 0 420 -168 420 -439c0 -43 -2 -95 -9 -140h-748c-1 -12 -1 -24 -1 -36c0 -192 99 -310 253 -310c140 0 239 74 286 187
h171c-54 -192 -236 -340 -459 -340zM564 1428l22 105c28 15 73 25 125 25c96 0 170 -61 170 -142c0 -105 -83 -194 -209 -230l-43 85c79 25 117 71 117 119c0 35 -33 62 -77 62c-35 0 -75 -8 -105 -24z" />
    <glyph glyph-name="ecaron" unicode="&#x11b;" horiz-adv-x="1062" 
d="M314 618h557c1 9 1 19 1 28c0 132 -70 260 -245 260c-162 0 -271 -126 -313 -288zM542 -20c-283 0 -428 194 -428 458c0 342 213 620 515 620c259 0 420 -168 420 -439c0 -43 -2 -95 -9 -140h-748c-1 -12 -1 -24 -1 -36c0 -192 99 -310 253 -310c140 0 239 74 286 187
h171c-54 -192 -236 -340 -459 -340zM757 1208h-134l-208 300h152l131 -196h6l215 196h174z" />
    <glyph glyph-name="emacron" unicode="&#x113;" horiz-adv-x="1062" 
d="M314 618h557c1 9 1 19 1 28c0 132 -70 260 -245 260c-162 0 -271 -126 -313 -288zM542 -20c-283 0 -428 194 -428 458c0 342 213 620 515 620c259 0 420 -168 420 -439c0 -43 -2 -95 -9 -140h-748c-1 -12 -1 -24 -1 -36c0 -192 99 -310 253 -310c140 0 239 74 286 187
h171c-54 -192 -236 -340 -459 -340zM1007 1398l-24 -116h-574l24 116h574z" />
    <glyph glyph-name="emacrongrave" unicode="&#x1e15;" horiz-adv-x="1062" 
d="M314 618h557c1 9 1 19 1 28c0 132 -70 260 -245 260c-162 0 -271 -126 -313 -288zM542 -20c-283 0 -428 194 -428 458c0 342 213 620 515 620c259 0 420 -168 420 -439c0 -43 -2 -95 -9 -140h-748c-1 -12 -1 -24 -1 -36c0 -192 99 -310 253 -310c140 0 239 74 286 187
h171c-54 -192 -236 -340 -459 -340zM826 1530h-130l-168 296h152zM994 1374l-24 -116h-574l24 116h574z" />
    </font>
</defs>
</svg>
